<svg width="161" height="160" viewBox="0 0 161 160" fill="none" xmlns="http://www.w3.org/2000/svg">
<path d="M80.5 159.662C124.959 159.662 161 139.547 161 114.735C161 89.9215 124.959 69.8066 80.5 69.8066C36.0411 69.8066 0 89.9215 0 114.735C0 139.547 36.0411 159.662 80.5 159.662Z" fill="#F0F0F0"/>
<path d="M47.1101 138.619C62.7382 138.619 75.4073 131.305 75.4073 122.282C75.4073 113.26 62.7382 105.945 47.1101 105.945C31.482 105.945 18.813 113.26 18.813 122.282C18.813 131.305 31.482 138.619 47.1101 138.619Z" fill="#E0E0E0"/>
<path d="M116.015 137.737C131.643 137.737 144.313 130.423 144.313 121.4C144.313 112.378 131.643 105.063 116.015 105.063C100.387 105.063 87.7183 112.378 87.7183 121.4C87.7183 130.423 100.387 137.737 116.015 137.737Z" fill="#E0E0E0"/>
<path d="M28.2141 2.01392L25.1458 3.78556C25.1621 3.65045 25.1709 3.51454 25.1722 3.37846V2.48887C25.1722 0.90948 24.0413 0.264908 22.6881 1.05649C22.0989 1.41967 21.5949 1.90567 21.2105 2.48133C20.9843 0.491073 19.4238 -0.251505 17.5278 0.8454C15.4772 2.029 13.8186 4.90508 13.8186 7.25344V8.58404C13.8052 9.11498 13.9121 9.64206 14.1315 10.1257L11.5834 11.5958C11.1827 11.8575 10.8494 12.2099 10.6103 12.6244C10.3713 13.039 10.2333 13.504 10.2075 13.9819C10.2075 14.8602 10.8219 15.2145 11.5834 14.7772L28.2141 5.17271C28.6159 4.91321 28.9503 4.56183 29.1895 4.1476C29.4287 3.73337 29.566 3.26818 29.5899 2.79043C29.5899 1.931 28.9755 1.57667 28.2141 2.01392Z" fill="#EBEBEB"/>
<path d="M42.9827 8.66285L40.6645 10.001C40.6794 9.89864 40.687 9.79535 40.6871 9.69191V9.02095C40.6871 7.82981 39.8466 7.34355 38.8024 7.94289C38.3523 8.21344 37.9664 8.57873 37.6716 9.01341C37.502 7.50564 36.3221 6.95153 34.8935 7.78081C34.0779 8.31205 33.3992 9.02827 32.9126 9.87123C32.4259 10.7142 32.1451 11.6601 32.0928 12.6321V13.6347C32.0822 14.0356 32.1621 14.4337 32.3265 14.7995L30.4041 15.9077C30.1015 16.1053 29.8496 16.3714 29.6689 16.6844C29.4882 16.9974 29.3836 17.3486 29.3638 17.7095C29.3638 18.3691 29.8312 18.6405 30.4041 18.3088L42.9563 11.0602C43.2589 10.8634 43.5108 10.598 43.6915 10.2856C43.8723 9.97321 43.9769 9.62258 43.9967 9.26219C44.0231 8.59877 43.5595 8.33114 42.9827 8.66285Z" fill="#EBEBEB"/>
<path d="M26.1561 115.68C25.617 113.192 22.7975 108.858 19.5219 106.189C16.2462 103.52 11.297 102.37 8.62822 103.976C6.14416 105.484 7.19583 108.929 10.9502 110.558C14.7045 112.186 22.5186 114.99 24.8217 118.715L26.6084 122.081L26.1561 115.68Z" fill="#86C240"/>
<path opacity="0.15" d="M26.1561 115.68C25.617 113.192 22.7975 108.858 19.5219 106.189C16.2462 103.52 11.297 102.37 8.62822 103.976C6.14416 105.484 7.19583 108.929 10.9502 110.558C14.7045 112.186 22.5186 114.99 24.8217 118.715L26.6084 122.081L26.1561 115.68Z" fill="black"/>
<path d="M26.7742 119.8C26.7337 119.805 26.6927 119.797 26.6573 119.776C26.622 119.756 26.5942 119.725 26.5782 119.687C23.0839 111.564 14.7309 106.151 10.2942 105.514C10.2455 105.507 10.2016 105.48 10.172 105.441C10.1424 105.401 10.1294 105.352 10.1359 105.303C10.1391 105.279 10.1472 105.255 10.1596 105.234C10.172 105.213 10.1885 105.194 10.2082 105.18C10.2279 105.165 10.2503 105.154 10.2741 105.148C10.2979 105.142 10.3227 105.141 10.347 105.145C14.8703 105.793 23.3704 111.293 26.9325 119.54C26.9425 119.562 26.948 119.586 26.9487 119.611C26.9494 119.635 26.9453 119.66 26.9365 119.682C26.9277 119.705 26.9145 119.726 26.8977 119.744C26.8808 119.761 26.8606 119.775 26.8383 119.785L26.7742 119.8Z" fill="white"/>
<path d="M27.0227 124.037C26.2688 122.793 24.0072 121.022 20.8296 119.891C17.3164 118.666 13.3208 118.76 12.0242 117.407C10.4674 115.786 11.5794 113.543 14.7155 113.087C17.8517 112.631 24.3201 115.303 26.8833 121.297L27.0227 124.037Z" fill="#86C240"/>
<path d="M27.2193 122.457C27.1854 122.465 27.1501 122.462 27.1178 122.449C27.0856 122.436 27.0579 122.414 27.0383 122.386C22.5904 116.049 16.5518 115.054 13.9773 115.412C13.9273 115.419 13.8767 115.405 13.8368 115.374C13.7969 115.344 13.7708 115.298 13.7643 115.248C13.7578 115.198 13.7714 115.148 13.8022 115.108C13.8329 115.068 13.8783 115.042 13.9283 115.035C16.7742 114.636 22.7977 115.687 27.3361 122.156C27.3498 122.175 27.3595 122.197 27.3646 122.221C27.3697 122.244 27.3702 122.268 27.366 122.291C27.3618 122.315 27.353 122.337 27.3401 122.357C27.3272 122.377 27.3105 122.395 27.2909 122.408C27.273 122.432 27.2479 122.449 27.2193 122.457Z" fill="white"/>
<path d="M131.078 110.17C131.078 110.17 130.758 104.836 132.65 100.328C134.542 95.8197 137.675 92.6609 140.943 91.8166C144.211 90.9722 147.456 93.5656 144.26 96.2947C141.063 99.0237 135.096 102.281 133.555 110.668L131.078 110.17Z" fill="#86C240"/>
<path opacity="0.15" d="M131.078 110.17C131.078 110.17 130.758 104.836 132.65 100.328C134.542 95.8197 137.675 92.6609 140.943 91.8166C144.211 90.9722 147.456 93.5656 144.26 96.2947C141.063 99.0237 135.096 102.281 133.555 110.668L131.078 110.17Z" fill="black"/>
<path d="M131.817 108.64H131.764C131.741 108.635 131.719 108.625 131.7 108.612C131.68 108.598 131.664 108.581 131.651 108.561C131.639 108.541 131.63 108.518 131.626 108.495C131.622 108.472 131.623 108.448 131.629 108.425C133.634 99.1482 139.699 94.361 142.624 93.1284C142.646 93.1174 142.67 93.111 142.695 93.1097C142.719 93.1083 142.744 93.1119 142.767 93.1204C142.79 93.1288 142.811 93.1419 142.829 93.1587C142.847 93.1756 142.861 93.196 142.871 93.2186C142.881 93.2412 142.886 93.2655 142.886 93.2901C142.886 93.3147 142.881 93.339 142.871 93.3617C142.861 93.3843 142.847 93.4047 142.829 93.4216C142.812 93.4385 142.79 93.4516 142.767 93.4601C139.899 94.6701 133.954 99.3706 131.979 108.5C131.971 108.538 131.95 108.571 131.921 108.596C131.892 108.621 131.856 108.637 131.817 108.64Z" fill="white"/>
<path d="M147.128 104.633C147.053 105.341 146.484 105.884 145.937 106.344C145.391 106.804 144.806 107.294 144.644 107.991C144.343 109.397 146.009 110.698 145.647 112.089C145.551 112.375 145.398 112.639 145.196 112.864C144.995 113.089 144.749 113.27 144.475 113.397C144.024 113.617 143.563 113.814 143.091 113.985C142.864 114.056 142.632 114.112 142.398 114.154C141.694 114.222 141.032 114.519 140.513 114.999C139.759 115.832 139.838 117.113 139.567 118.214C139.389 118.869 139.071 119.478 138.635 119.999C138.199 120.519 137.655 120.939 137.041 121.23C136.02 121.716 134.346 121.983 133.916 121.606C133.589 121.316 133.864 120.031 133.743 119.612C133.43 118.536 133.22 117.431 133.117 116.314C133.089 115.803 133 115.297 132.853 114.806C132.673 114.264 132.477 113.717 132.322 113.17C132.167 112.624 131.843 112.16 131.862 111.497C131.909 110.864 132.05 110.241 132.281 109.65C132.484 109.062 132.691 108.475 132.902 107.889C133.129 107.188 133.441 106.518 133.83 105.892C134.192 105.365 134.658 104.918 135.199 104.578C135.741 104.237 136.346 104.011 136.977 103.913C138.025 103.758 139.175 103.999 140.185 103.619C141.195 103.238 142.051 102.669 143.091 102.409C143.633 102.249 144.204 102.215 144.762 102.309C145.319 102.403 145.847 102.623 146.307 102.952C146.572 103.142 146.785 103.396 146.929 103.689C147.072 103.982 147.141 104.306 147.128 104.633Z" fill="#86C240"/>
<path d="M135.666 110.173C135.677 110.149 135.694 110.127 135.715 110.109C138.606 106.015 143.137 104.078 144.667 103.731C144.708 103.722 144.752 103.73 144.788 103.753C144.823 103.776 144.848 103.812 144.857 103.854C144.866 103.895 144.858 103.939 144.836 103.974C144.813 104.01 144.776 104.035 144.735 104.044C143.287 104.368 139.081 106.159 136.254 109.909C137.407 109.521 138.628 109.377 139.84 109.485C141.052 109.592 142.228 109.95 143.295 110.535C143.331 110.558 143.356 110.595 143.365 110.636C143.374 110.678 143.367 110.721 143.344 110.757C143.32 110.793 143.284 110.817 143.242 110.825C143.2 110.834 143.157 110.826 143.122 110.803C142.026 110.209 140.814 109.863 139.57 109.787C138.326 109.712 137.081 109.909 135.922 110.365C134.233 112.78 133.386 115.684 133.513 118.628C133.514 118.669 133.5 118.708 133.474 118.739C133.447 118.769 133.41 118.789 133.37 118.794C133.349 118.795 133.328 118.792 133.308 118.784C133.288 118.777 133.27 118.766 133.254 118.752C133.239 118.737 133.227 118.72 133.218 118.7C133.209 118.681 133.205 118.66 133.204 118.639C133.072 115.623 133.937 112.648 135.666 110.173Z" fill="white"/>
<path d="M112.54 117.498L95.2384 123.107L94.9934 123.22C94.9105 123.714 94.9557 124.294 95.8566 124.864C97.0478 125.617 100.663 126.243 103.622 125.436C106.581 124.63 108.473 122.018 109.076 121.467C110.128 120.506 112.054 120.385 112.469 119.978C112.992 119.006 112.54 117.498 112.54 117.498Z" fill="#455A64"/>
<path d="M103.701 112.428C103.524 112.805 103.595 113.287 103.539 113.687C103.431 114.222 103.169 114.713 102.785 115.1C101.884 116.119 100.845 117.007 99.6978 117.739C98.6325 118.436 97.5246 119.065 96.3807 119.624C95.7709 119.932 95.3074 120.468 95.0914 121.116C94.8753 121.765 94.9242 122.472 95.2273 123.084C95.7324 123.514 96.9461 124.298 99.253 124.498C101.944 124.731 103.659 124.498 105.865 123.122C107.403 122.157 107.859 121.15 109.4 120.193C110.019 119.816 111.903 119.488 112.646 118.474C113.072 117.37 112.808 116.088 112.665 115.361C112.521 114.633 112.356 114.113 112.258 113.615C112.129 113.102 112.027 112.582 111.952 112.059C111.952 111.938 111.922 111.648 111.605 111.651L111.568 112.428C111.247 113.325 110.12 113.698 109.174 113.612C109.174 112.944 109.299 112.677 109.001 112.334C108.624 111.908 107.87 111.836 107.346 111.764C106.52 111.684 105.688 111.698 104.866 111.806C104.498 111.801 104.141 111.925 103.855 112.157C103.787 112.236 103.735 112.328 103.701 112.428Z" fill="#86C240"/>
<path opacity="0.3" d="M103.701 112.428C103.524 112.805 103.595 113.287 103.539 113.687C103.431 114.222 103.169 114.713 102.785 115.1C101.884 116.119 100.845 117.007 99.6978 117.739C98.6325 118.436 97.5246 119.065 96.3807 119.624C95.7709 119.932 95.3074 120.468 95.0914 121.116C94.8753 121.765 94.9242 122.472 95.2273 123.084C95.7324 123.514 96.9461 124.298 99.253 124.498C101.944 124.731 103.659 124.498 105.865 123.122C107.403 122.157 107.859 121.15 109.4 120.193C110.019 119.816 111.903 119.488 112.646 118.474C113.072 117.37 112.808 116.088 112.665 115.361C112.521 114.633 112.356 114.113 112.258 113.615C112.129 113.102 112.027 112.582 111.952 112.059C111.952 111.938 111.922 111.648 111.605 111.651L111.568 112.428C111.247 113.325 110.12 113.698 109.174 113.612C109.174 112.944 109.299 112.677 109.001 112.334C108.624 111.908 107.87 111.836 107.346 111.764C106.52 111.684 105.688 111.698 104.866 111.806C104.498 111.801 104.141 111.925 103.855 112.157C103.787 112.236 103.735 112.328 103.701 112.428Z" fill="black"/>
<path d="M94.9937 123.22C94.1682 121.498 94.6959 120.016 96.7992 119.142C98.9026 118.267 102.272 119.142 103.516 120.08C104.76 121.019 105.559 122.203 104.983 123.654C104.983 123.654 102.668 125.162 98.797 124.785C96.2187 124.513 94.9937 123.22 94.9937 123.22Z" fill="#FAFAFA"/>
<path d="M104.507 112.564C104.507 112.564 99.8785 76.8524 103.116 63.6934L115.597 76.3059C115.597 76.3059 112.917 95.6355 111.944 106.375C111.711 109.032 111.65 111.022 111.567 112.564C111.36 114.053 106.509 114.965 104.507 112.564Z" fill="#FFA8A7"/>
<path d="M106.257 95.1908C106.155 95.0767 106.031 94.9844 105.892 94.9196C105.753 94.8548 105.603 94.8188 105.45 94.8139C105.29 94.8094 105.133 94.8527 104.998 94.9383C104.938 94.9782 104.886 95.0279 104.843 95.0853C104.802 95.143 104.778 95.2111 104.774 95.2818C104.77 95.3525 104.786 95.4228 104.82 95.4848C104.851 95.5451 104.945 95.6168 105.013 95.5602C105.08 95.5037 105.22 95.3303 105.299 95.2737L105.325 95.2549L105.378 95.236H105.405H105.525L105.593 95.2549H105.635C105.763 95.3124 105.869 95.41 105.937 95.5331C106.005 95.6561 106.031 95.7979 106.012 95.9372C106.002 96.029 105.966 96.116 105.908 96.1877C105.849 96.2593 105.772 96.3124 105.684 96.3405H105.638C105.612 96.3442 105.585 96.3442 105.559 96.3405C105.51 96.3464 105.461 96.3464 105.412 96.3405C105.3 96.3335 105.188 96.3133 105.08 96.2802C104.847 96.2141 104.629 96.1013 104.44 95.9485C104.206 95.7675 104.042 95.5123 103.973 95.2251C103.905 94.9379 103.936 94.6359 104.063 94.3691C104.124 94.2218 104.215 94.0886 104.33 93.9777C104.444 93.8669 104.581 93.7807 104.73 93.7245C105.041 93.6586 105.358 93.6283 105.676 93.634C105.842 93.634 105.736 93.3702 105.612 93.3664C105.25 93.3023 104.88 93.3023 104.519 93.3664C104.161 93.4969 103.862 93.7526 103.678 94.0864C103.483 94.4208 103.412 94.8131 103.476 95.1948C103.541 95.5765 103.738 95.9233 104.033 96.1746C104.511 96.5968 105.292 96.9059 105.917 96.676C106.052 96.615 106.17 96.5239 106.263 96.4096C106.356 96.2954 106.422 96.1612 106.455 96.0174C106.488 95.8737 106.487 95.7243 106.452 95.5809C106.418 95.4375 106.351 95.304 106.257 95.1908Z" fill="#F28F8F"/>
<path d="M125.971 122.654C125.971 124.102 125.692 125.987 126.563 127.272C127.433 128.557 129.412 129.575 132.398 128.561C135.383 127.547 136.167 125.824 136.427 124.253C136.687 122.681 135.915 120.623 135.296 119.62C134.678 118.617 125.971 122.654 125.971 122.654Z" fill="#455A64"/>
<path d="M125.281 113.254C124.96 113.895 125.179 114.984 125.677 116.043C126.174 117.102 125.797 122.425 126.054 123.982C126.431 126.213 127.603 127.989 130.912 127.348C134.222 126.707 136.34 124.091 135.835 121.407C135.432 119.266 134.361 118.618 134.124 115.274C133.981 113.243 133.389 110.374 132.469 110.374L132.643 111.565C132.643 111.565 132.492 112.387 132.22 112.319C131.61 112.153 132.22 111.086 131.195 110.872C130.17 110.657 126.231 111.426 125.68 111.678C124.768 112.112 125.281 113.254 125.281 113.254Z" fill="#86C240"/>
<path opacity="0.3" d="M125.281 113.254C124.96 113.895 125.179 114.984 125.677 116.043C126.174 117.102 125.797 122.425 126.054 123.982C126.431 126.213 127.603 127.989 130.912 127.348C134.222 126.707 136.34 124.091 135.835 121.407C135.432 119.266 134.361 118.618 134.124 115.274C133.981 113.243 133.389 110.374 132.469 110.374L132.643 111.565C132.643 111.565 132.492 112.387 132.22 112.319C131.61 112.153 132.22 111.086 131.195 110.872C130.17 110.657 126.231 111.426 125.68 111.678C124.768 112.112 125.281 113.254 125.281 113.254Z" fill="black"/>
<path d="M126.555 126.168C125.767 124.758 125.884 123.397 127.158 122.218C128.726 120.77 133.189 120.363 134.75 121.087C136.31 121.81 136.386 123.612 135.413 125.146C134.192 127.099 128.979 129.338 126.555 126.168Z" fill="#FAFAFA"/>
<path d="M113.954 71.7065C115.59 84.3718 122.778 108.229 125.914 113.657C127.644 114.829 132.205 114.731 132.658 111.572C132.62 111.27 132.544 110.882 132.488 110.381C132.22 108.055 131.923 103.622 131.214 99.2874C130.351 94.0102 128.014 68.3555 128.014 68.3555L113.954 71.7065Z" fill="#FFA8A7"/>
<path d="M124.655 94.9901C124.37 94.8275 124.039 94.7626 123.713 94.8054C123.553 94.8232 123.404 94.8981 123.294 95.0165C123.125 95.2314 123.245 95.4387 123.423 95.6008C123.457 95.6333 123.503 95.6509 123.551 95.6498C123.551 95.6498 123.664 95.597 123.645 95.5895C123.646 95.4898 123.661 95.3908 123.69 95.2954H123.72H123.762H123.803C123.989 95.2823 124.175 95.3229 124.339 95.4123C124.435 95.4704 124.519 95.548 124.583 95.6402C124.648 95.7323 124.693 95.837 124.715 95.9476C124.715 96.1323 124.572 96.2642 124.399 96.3471C123.933 96.536 123.414 96.5468 122.94 96.3773C122.756 96.326 122.593 96.2162 122.476 96.0644C122.35 95.8547 122.292 95.6111 122.311 95.3671C122.311 94.9223 122.51 94.0365 123.098 94.0515C123.119 94.055 123.14 94.0537 123.161 94.0478C123.181 94.0418 123.199 94.0314 123.215 94.0173C123.231 94.0031 123.243 93.9856 123.251 93.9661C123.259 93.9466 123.262 93.9255 123.261 93.9045C123.25 93.8575 123.224 93.8151 123.188 93.7838C123.151 93.7525 123.105 93.7341 123.057 93.7311C122.247 93.603 121.888 94.583 121.832 95.2389C121.788 95.5793 121.849 95.9249 122.005 96.2303C122.182 96.4999 122.45 96.6977 122.759 96.7881C123.086 96.8945 123.429 96.9454 123.773 96.9389C124.12 96.9399 124.461 96.8516 124.765 96.6826C124.905 96.6139 125.024 96.5065 125.106 96.373C125.188 96.2395 125.23 96.0854 125.228 95.9287C125.215 95.7378 125.156 95.5529 125.056 95.3896C124.956 95.2263 124.819 95.0893 124.655 94.9901Z" fill="#F28F8F"/>
<path d="M127.584 26.4326C127.041 18.0343 124.512 14.6719 120.95 12.6704C119.193 11.6297 117.191 11.0767 115.149 11.0684C109.988 11.0684 107.452 12.4103 104.594 14.6456C101.737 16.8808 100.097 21.4946 103.038 24.5629C104.315 28.3022 106.924 35.3812 113.573 35.7393C114.357 36.9531 115.386 37.722 116.743 37.7258C122.812 37.7258 123.705 33.6209 123.705 33.6209C123.939 36.0748 121.643 37.5524 121.643 37.5524C125.126 37.1868 128.153 35.1739 127.584 26.4326Z" fill="#37474F"/>
<path d="M87.0397 69.784C85.0494 70.8092 83.0403 71.7931 80.9747 72.66C79.8059 73.1863 78.5765 73.5661 77.3145 73.7909C76.0387 74.0206 74.723 73.8536 73.5451 73.3121C72.8938 73.0124 72.3522 72.517 71.9959 71.8948C71.6604 71.2691 71.144 69.882 71.4795 69.2562C71.928 68.4081 72.8101 68.3666 73.7411 68.2121C74.5214 68.0839 76.0028 68.0387 76.6097 67.8352C77.2165 67.6316 77.8159 67.5751 77.4314 67.3037C77.1869 67.1648 76.9353 67.039 76.6775 66.9267C76.4726 66.8066 76.2784 66.6692 76.097 66.5159C75.8987 66.3864 75.7306 66.2157 75.6044 66.0153C75.4782 65.8149 75.3968 65.5896 75.3657 65.3549C75.363 65.2435 75.3929 65.1338 75.4519 65.0394C75.5109 64.9449 75.5962 64.8698 75.6975 64.8234C75.8607 64.7726 76.0355 64.7726 76.1988 64.8234C76.7341 64.9843 77.2793 65.1102 77.831 65.2003C78.3862 65.2694 78.9451 65.3046 79.5046 65.3059C80.4474 65.2844 81.3862 65.1759 82.309 64.9817C83.8168 64.6311 86.3235 63.342 88.9847 60.9786C91.9663 58.34 93.6965 56.4779 95.3249 53.7865C96.8327 51.325 98.74 48.1323 100.131 45.833C104.078 39.2968 105.687 38.4713 110.327 38.6032C110.327 38.6032 109.125 45.6822 107.406 50.5335C107.406 50.5335 103.87 56.5645 102.223 58.9921C100.576 61.4196 97.1719 64.0506 96.2409 64.6462C93.6211 66.2859 92.396 66.9493 89.667 68.4156C88.8113 68.8717 87.9293 69.3241 87.0397 69.784Z" fill="#FFA8A7"/>
<path d="M108.771 38.6117C106.539 38.3516 104.481 39.2412 102.834 41.141C101.187 43.0408 96.6294 50.5382 96.6294 50.5382C96.6294 50.5382 99.611 56.803 105.265 56.1924C110.603 55.5855 108.771 38.6117 108.771 38.6117Z" fill="#EBEBEB"/>
<path d="M127.373 51.9293C127.395 49.1814 127.26 46.4599 127.218 45.2801C127.139 42.9091 125.922 39.249 122.665 38.872C119.408 38.4951 118.805 38.5441 118.805 38.5441C118.805 38.5441 112.118 38.5441 110.787 38.6044C109.457 38.6647 108.575 39.2226 107.105 40.3233C105.789 41.3071 103.641 43.6931 102.713 50.0899C102.104 54.3525 101.841 58.6574 101.925 62.9625L127.904 62.4724C127.904 62.4724 127.328 56.5507 127.373 51.9293Z" fill="#F5F5F5"/>
<path d="M123.848 26.6092C123.125 24.9996 121.342 25.5198 120.795 26.1719C120.369 26.677 119.86 27.1407 119.144 26.8127C118.824 26.6479 118.566 26.3833 118.409 26.0588C117.829 24.9695 117.817 23.752 117.568 22.5684C117.239 21.0402 116.467 19.6427 115.348 18.5501C114.425 17.6499 113.314 16.9651 112.095 16.5448C111.529 16.3103 110.944 16.1237 110.346 15.9869C109.641 15.8774 108.921 15.9004 108.224 16.0548C107.148 16.3266 106.139 16.8169 105.26 17.4951C104.382 18.1734 103.652 19.0252 103.116 19.9976C102.684 20.8635 102.428 21.8064 102.363 22.7719C102.257 23.9517 102.626 26.432 102.453 27.6081C102.239 28.7357 102.181 29.8873 102.28 31.0307C102.452 32.3829 103.124 33.6215 104.164 34.5024C105.751 35.8325 107.771 36.534 109.841 36.4738L110.335 36.4549L110.286 39.0483C107.979 43.255 116.242 43.2135 119.031 38.9842L119.702 30.5219C119.702 30.5219 120.23 31.3662 121.964 30.8686C123.023 30.5671 124.761 28.6598 123.848 26.6092Z" fill="#FFA8A7"/>
<path d="M111.945 26.1726C111.949 26.3594 112.008 26.5407 112.115 26.6941C112.222 26.8475 112.371 26.9662 112.544 27.0355C112.718 27.1047 112.908 27.1215 113.091 27.0837C113.274 27.0459 113.442 26.9552 113.574 26.8228C113.705 26.6904 113.796 26.5223 113.833 26.3392C113.87 26.156 113.852 25.9661 113.782 25.7928C113.712 25.6196 113.593 25.4707 113.439 25.3646C113.285 25.2586 113.104 25.2 112.917 25.1963C112.789 25.1958 112.662 25.2207 112.543 25.2697C112.425 25.3186 112.317 25.3905 112.227 25.4814C112.137 25.5722 112.065 25.68 112.017 25.7987C111.968 25.9173 111.944 26.0444 111.945 26.1726Z" fill="#263238"/>
<path d="M112.54 30.624L108.925 31.9094C108.999 32.1516 109.121 32.3764 109.284 32.5704C109.446 32.7644 109.646 32.9237 109.872 33.0388C110.097 33.1538 110.344 33.2222 110.596 33.24C110.849 33.2577 111.102 33.2244 111.342 33.142C111.828 32.9583 112.224 32.5936 112.448 32.1242C112.671 31.6549 112.704 31.1173 112.54 30.624Z" fill="#B16668"/>
<path d="M112.578 31.7806C112.327 31.6509 112.046 31.5898 111.764 31.6034C111.361 31.6284 110.983 31.8062 110.707 32.1004C110.431 32.3946 110.278 32.7831 110.279 33.1866C110.632 33.2788 111.005 33.263 111.349 33.1414C111.649 33.0313 111.918 32.8499 112.132 32.6129C112.346 32.3758 112.499 32.0901 112.578 31.7806Z" fill="#F28F8F"/>
<path d="M103.806 26.0896C103.811 26.2763 103.87 26.4577 103.977 26.6111C104.083 26.7645 104.233 26.8832 104.406 26.9525C104.58 27.0217 104.77 27.0385 104.953 27.0007C105.136 26.9629 105.304 26.8722 105.435 26.7398C105.567 26.6074 105.657 26.4393 105.695 26.2561C105.732 26.073 105.714 25.8831 105.644 25.7098C105.574 25.5366 105.455 25.3877 105.301 25.2816C105.147 25.1756 104.966 25.117 104.779 25.1133C104.651 25.1128 104.524 25.1377 104.405 25.1867C104.287 25.2356 104.179 25.3075 104.089 25.3983C103.998 25.4892 103.927 25.597 103.878 25.7157C103.83 25.8343 103.805 25.9614 103.806 26.0896Z" fill="#263238"/>
<path d="M108.763 26.4062L108.74 30.0814L106.102 29.1278L108.763 26.4062Z" fill="#F28F8F"/>
<path d="M110.373 36.4553C110.373 36.4553 114.195 36.542 117 34.7855C117.946 34.1899 118.824 33.3832 119.073 32.8027C118.865 33.6727 118.454 34.4813 117.874 35.1624C115.797 37.5296 110.354 37.5635 110.354 37.5635L110.373 36.4553Z" fill="#F28F8F"/>
<path opacity="0.5" d="M116.581 28.2981C116.698 29.1236 115.952 29.9077 114.919 30.0509C113.886 30.1942 112.959 29.64 112.846 28.8183C112.733 27.9966 113.475 27.2088 114.508 27.0655C115.541 26.9223 116.468 27.4764 116.581 28.2981Z" fill="#F28F8F"/>
<path opacity="0.5" d="M105.246 28.8481C105.118 29.6699 104.18 30.2051 103.151 30.0468C102.122 29.8885 101.39 29.0856 101.518 28.2639C101.647 27.4421 102.589 26.9069 103.618 27.069C104.647 27.2311 105.378 28.0264 105.246 28.8481Z" fill="#F28F8F"/>
<path d="M145.768 74.3909C146.002 75.6518 146.083 76.9365 146.009 78.2169C145.926 79.5058 145.453 80.739 144.652 81.7526C144.204 82.3126 143.593 82.7196 142.903 82.9173C142.213 83.0945 140.747 83.2641 140.215 82.7892C139.503 82.1522 139.669 81.2814 139.744 80.3315C139.808 79.5399 140.121 78.0699 140.068 77.4554C140.016 76.841 140.106 76.2228 139.752 76.5319C139.551 76.7348 139.363 76.9487 139.186 77.1727C139.022 77.3423 138.844 77.4986 138.655 77.6401C138.481 77.8009 138.274 77.9225 138.049 77.9967C137.824 78.0708 137.586 78.0958 137.351 78.0699C137.242 78.0477 137.142 77.9935 137.064 77.9143C136.986 77.835 136.934 77.7343 136.913 77.6251C136.91 77.4532 136.957 77.2842 137.049 77.1388C137.337 76.6554 137.589 76.1514 137.803 75.631C138.005 75.1081 138.173 74.5731 138.308 74.029C138.489 73.1696 138.828 72.0991 138.659 71.2283C138.027 68.5263 137.155 65.8861 136.054 63.3389C135.064 61.211 133.654 59.3055 131.908 57.7375C130.528 56.4333 128.594 54.6315 126.427 52.6903C121.625 48.0388 120.554 41.921 122.68 38.8564C126.619 38.8564 128.097 40.7751 130.596 43.4137C133.035 45.9807 135.651 48.4647 137.822 51.2654C140.898 55.2422 144.166 63.8063 145.768 74.3909Z" fill="#FFA8A7"/>
<path d="M122.186 38.811C124.591 38.811 126.257 38.7318 128.432 40.6957C130.607 42.6596 134.908 47.213 134.908 47.213C134.908 47.213 134.365 53.165 128.236 54.8235C128.236 54.8235 124.022 51.8758 122.665 49.1015C121.308 46.3272 120.241 42.6068 122.186 38.811Z" fill="#EBEBEB"/>
<path d="M127.905 62.4643C127.905 62.4643 127.724 60.6173 127.573 58.1785C124.241 58.9324 120.946 56.1166 120.328 52.415C119.755 48.9735 119.502 42.6748 121.907 38.7734C121.135 38.6867 120.547 38.6302 120.102 38.5925C119.427 39.4557 117.422 42.3619 116.728 47.1039L106.784 46.8212C106.784 46.8212 107.625 41.1369 110.324 39.0448L110.354 38.5322C109.823 38.4728 109.286 38.4983 108.763 38.6076C105.62 40.1983 103.354 44.6764 102.563 48.9848C101.839 52.9126 101.918 57.3379 101.895 60.2931C101.895 61.1526 101.906 62.0447 101.926 62.9694C98.2504 70.2859 93.3652 82.5026 93.3652 82.5026C101.503 90.9575 124.84 93.1551 135.688 81.5603L127.905 62.4643Z" fill="#86C240"/>
<path opacity="0.3" d="M101.926 62.9581C101.926 62.9581 104.187 65.0615 111.945 65.412C119.702 65.7626 124.614 64.2812 127.904 62.4681L127.72 60.2705C127.72 60.2705 121.783 63.1843 112.288 62.9581C104.606 62.7734 101.892 60.6512 101.892 60.6512L101.926 62.9581Z" fill="black"/>
<path d="M107.071 13.3409C104.296 13.1336 101.386 15.35 100.403 18.2148C99.6864 20.2955 99.7995 22.1953 99.8787 23.7068C102.32 24.4407 104.884 24.6753 107.418 24.3966L108.017 19.5265L108.424 24.4682C108.424 24.4682 111.816 24.8113 114.154 24.325C116.491 23.8387 116.981 23.7483 117.086 22.3461C117.195 20.8797 117.685 18.2713 116.479 16.8955C115.273 15.5196 114.199 12.2854 107.071 13.3409Z" fill="#37474F"/>
<path d="M114.715 11.072C108.986 10.4802 106.422 13.3337 106.422 13.3337C109.788 12.5798 116.159 12.9567 119.125 16.9561C122.092 20.9555 121.04 25.9386 121.04 25.9386C121.359 25.7399 121.716 25.6114 122.088 25.5617C124.693 13.6541 114.715 11.072 114.715 11.072Z" fill="#86C240"/>
<path d="M49.6356 68.3409C50.3895 65.4686 56.0813 67.7114 62.8814 69.2456C67.4569 70.2697 72.1738 70.5043 76.8283 69.9391C79.1691 69.7959 82.539 73.6294 81.3516 78.9217C79.8061 85.7481 74.4083 84.6701 74.4083 84.6701C70.0717 83.9353 65.8379 82.6876 61.7958 80.9534C53.9252 77.4968 48.7988 71.4846 49.6356 68.3409Z" fill="#9A4A4D"/>
<path d="M43.7783 86.1553C43.0244 93.0458 49.391 115.651 52.4103 120.612C54.3214 122.591 62.5124 121.558 62.863 118.331C62.863 118.331 62.5086 111.169 63.3153 107.155C63.9258 104.384 64.7565 101.666 65.7993 99.0279C65.7993 99.0279 49.5606 100.931 43.7783 86.1553Z" fill="#9A4A4D"/>
<path opacity="0.2" d="M62.8029 113.088C59.237 113.088 57.748 115.41 57.748 115.41C59.2807 114.561 61.0552 114.254 62.784 114.539C62.784 114.075 62.784 113.585 62.8029 113.088Z" fill="black"/>
<path d="M52.4102 120.611C53.4505 121.946 56.0439 123.691 61.0799 123.359C66.0291 123.035 68.2983 121.475 68.909 119.488C68.9919 118.293 69.0484 116.273 66.2025 115.342C65.1007 114.968 63.9642 114.705 62.81 114.558L52.4102 120.611Z" fill="#9A4A4D"/>
<path d="M26.4125 88.8506C24.0001 95.3529 24.7238 118.829 26.454 124.37C27.8336 126.756 36.0283 127.732 37.1516 124.687C37.1516 124.687 38.4558 119.115 40.2086 115.429C41.239 113.237 42.7124 111.282 44.5359 109.688C44.5359 109.688 28.4518 104.569 26.4125 88.8506Z" fill="#9A4A4D"/>
<path opacity="0.2" d="M38.1803 120.891L38.6176 119.507C33.0803 119.032 31.0146 122.523 31.0146 122.523C32.0814 121.837 35.3947 120.069 38.1803 120.891Z" fill="black"/>
<path d="M25.7754 93.5013C26.4878 103.219 32.8242 107.248 38.7761 108.805C41.3783 109.469 44.0603 109.767 46.7447 109.691C52.5044 109.536 62.9533 108.119 66.244 97.7796C66.4362 97.1539 66.6209 96.5093 66.7529 95.8233C69.2784 83.697 59.6889 77.093 59.6889 77.093C57.3406 67.4621 51.4904 64.6991 46.6769 64.8611C35.8925 65.2192 24.7124 78.9061 25.7754 93.5013Z" fill="#B16668"/>
<path d="M25.0216 93.294C26.5934 102.914 32.8243 107.241 38.7762 108.805C41.3784 109.469 44.0603 109.767 46.7448 109.691C52.5045 109.536 62.9534 108.119 66.2441 97.7796C66.4363 97.1539 66.621 96.5093 66.7529 95.8233C69.2785 83.697 59.689 77.093 59.689 77.093C57.3407 67.4621 51.4905 64.6991 46.6769 64.8611C35.8926 65.2192 22.53 78.0466 25.0216 93.294Z" fill="#B16668"/>
<path opacity="0.1" d="M40.5853 105.028C33.1596 101.572 29.7067 94.0971 31.1052 88.5296C32.5037 82.9622 35.9715 80.2369 36.5784 77.0931C36.5784 77.0931 40.6004 80.6138 44.2945 79.5207C47.1894 78.665 48.1355 72.8337 48.1355 72.8337C48.1355 72.8337 53.7406 73.4368 56.8617 70.3383C54.0234 66.1053 50.0768 64.7445 46.6843 64.8613C35.8999 65.2194 22.5373 78.0544 25.0289 93.2942C26.6007 102.91 32.8316 107.241 38.7835 108.805C41.3857 109.469 44.0677 109.768 46.7521 109.691C52.1462 109.544 61.6489 108.293 65.539 99.6494V99.6155C61.5057 106.495 48.1355 108.545 40.5853 105.028Z" fill="black"/>
<path d="M33.9851 71.5559C36.3636 73.3464 32.1532 77.7642 28.1764 83.49C25.5149 87.3422 23.5301 91.6204 22.3074 96.1402C21.9644 97.957 16.74 100.049 12.2845 96.9544C6.53612 92.9588 9.56297 88.3638 9.56297 88.3638C11.872 84.6193 14.6178 81.1623 17.7426 78.0657C23.8906 72.095 31.388 69.5996 33.9851 71.5559Z" fill="#9A4A4D"/>
<path opacity="0.5" d="M50.0167 80.1358C58.807 78.4358 65.3168 84.7496 65.3582 92.884C65.3997 101.086 54.3892 106.642 44.6075 102.134C34.8258 97.6259 39.6093 82.1524 50.0167 80.1358Z" fill="#F28F8F"/>
<path d="M50.8082 37.0884C50.1561 34.5855 55.9988 27.94 61.9469 32.7536C67.3749 37.1487 62.8101 44.6688 58.4413 44.6386C54.0726 44.6084 50.8082 37.0884 50.8082 37.0884Z" fill="#9A4A4D"/>
<path d="M58.4788 42.9616C60.7179 42.8561 63.9709 40.127 62.0749 36.8929C60.5143 34.2316 57.3857 34.439 55.9872 35.9694C54.5888 37.4997 54.7848 39.9574 54.7848 39.9574L58.4788 42.9616Z" fill="#F28F8F"/>
<path d="M61.3628 60.0409C63.044 55.5704 63.4209 48.5291 59.3612 42.5206C55.4863 36.7873 47.1031 33.7567 39.0063 35.3587C30.7739 37.0059 25.1461 42.8071 24.347 51.1639C23.333 61.7522 30.2838 68.835 40.8722 69.849C44.8829 70.2259 49.8698 69.8791 53.5789 68.3035C56.9563 66.8862 59.3424 65.4161 61.3628 60.0409Z" fill="#B16668"/>
<path opacity="0.1" d="M42.4818 69.9466C41.939 69.9466 41.4 69.9165 40.8609 69.8675C30.2726 68.8723 23.3218 61.7707 24.3358 51.1824C24.6346 48.0857 25.6868 45.1093 27.4003 42.5127C27.046 43.0743 28.2447 45.0269 28.2447 45.0269C26.948 47.707 25.7945 51.4538 26.8236 55.2044C28.3992 60.9188 32.685 66.9876 42.4818 69.9466Z" fill="black"/>
<path d="M48.3431 54.3074C55.0226 52.3586 58.8109 53.9305 60.59 58.3445C62.2863 62.5361 59.1652 68.9328 51.4002 70.1353C47.4498 70.7459 42.7305 70.7195 40.7741 66.9086C38.4408 62.3778 42.3384 56.0564 48.3431 54.3074Z" fill="#F28F8F"/>
<path d="M56.191 63.859C55.8405 63.8596 55.493 63.7957 55.1657 63.6705C52.7344 62.7395 53.428 60.5721 53.4355 60.5494C53.4594 60.5094 53.4963 60.4788 53.54 60.4627C53.5838 60.4466 53.6317 60.446 53.6758 60.461C53.72 60.476 53.7576 60.5057 53.7825 60.5451C53.8073 60.5846 53.8179 60.6313 53.8125 60.6776C53.7898 60.753 53.2395 62.502 55.3014 63.2936C55.6198 63.411 55.9582 63.4641 56.2973 63.4499C56.6363 63.4357 56.9692 63.3543 57.2766 63.2107C57.5727 63.0712 57.8368 62.872 58.0522 62.6255C58.2676 62.3789 58.4296 62.0905 58.528 61.7783C58.546 61.7272 58.5833 61.6851 58.6319 61.6612C58.6805 61.6372 58.7366 61.6332 58.7881 61.6501C58.8134 61.659 58.8366 61.6728 58.8566 61.6907C58.8765 61.7085 58.8927 61.7302 58.9043 61.7543C58.9158 61.7785 58.9225 61.8047 58.9239 61.8315C58.9253 61.8582 58.9215 61.885 58.9125 61.9102C58.7966 62.2741 58.6069 62.6102 58.3553 62.8976C58.1036 63.1849 57.7954 63.4172 57.45 63.5801C57.0553 63.7627 56.6258 63.8579 56.191 63.859Z" fill="#37474F"/>
<path d="M49.9904 65.1027C49.4317 65.1024 48.8799 64.9802 48.3733 64.7447C47.7757 64.5047 47.2955 64.0407 47.0351 63.4517C47.0202 63.4259 47.0112 63.3972 47.0086 63.3675C47.006 63.3378 47.01 63.3079 47.0202 63.28C47.0304 63.252 47.0467 63.2266 47.0678 63.2056C47.0889 63.1846 47.1144 63.1684 47.1424 63.1584C47.1705 63.1483 47.2004 63.1444 47.23 63.1472C47.2597 63.1499 47.2884 63.1591 47.3141 63.1742C47.3398 63.1892 47.3619 63.2097 47.3789 63.2342C47.3958 63.2587 47.4071 63.2867 47.4121 63.316C47.6414 63.7995 48.0455 64.178 48.5429 64.3753C49.354 64.7546 50.2821 64.798 51.125 64.4959C52.6855 63.9154 53.315 62.728 53.1605 60.636C53.1573 60.5822 53.1752 60.5293 53.2104 60.4885C53.2456 60.4477 53.2953 60.4222 53.3489 60.4173C53.4027 60.4142 53.4556 60.4321 53.4964 60.4673C53.5373 60.5025 53.5628 60.5522 53.5676 60.6058C53.7334 62.8675 53.0021 64.232 51.2682 64.8766C50.8588 65.0263 50.4263 65.1029 49.9904 65.1027Z" fill="#37474F"/>
<path d="M56.0627 56.3128C54.2534 54.5826 49.8431 56.2299 49.4398 57.6623C48.9158 59.547 52.0256 61.786 54.3401 60.9303C55.7498 60.4139 57.6609 57.8319 56.0627 56.3128Z" fill="#9A4A4D"/>
<path d="M31.2753 42.7579C31.5064 41.8851 31.4029 40.9574 30.9851 40.157C29.9899 38.2723 26.9744 34.7592 22.5076 36.3197C15.9902 38.6003 16.0769 49.4298 25.4591 49.5881C26.2333 49.6065 26.9895 49.3531 27.5963 48.872C29.8655 47.0589 30.8607 44.3713 31.2753 42.7579Z" fill="#9A4A4D"/>
<path d="M30.8828 44.0244C30.4089 45.38 29.6923 46.6381 28.7682 47.7373C23.491 48.985 21.791 44.6539 22.7672 42.2829C23.8302 39.7009 29.115 38.4381 30.8828 44.0244Z" fill="#F28F8F"/>
<path d="M55.0864 49.9501C55.0864 50.3229 55.197 50.6873 55.4041 50.9972C55.6112 51.3072 55.9055 51.5487 56.2499 51.6914C56.5943 51.834 56.9732 51.8714 57.3388 51.7986C57.7044 51.7259 58.0403 51.5464 58.3038 51.2828C58.5674 51.0193 58.7469 50.6834 58.8196 50.3178C58.8924 49.9522 58.855 49.5733 58.7124 49.2289C58.5697 48.8845 58.3282 48.5902 58.0182 48.3831C57.7083 48.176 57.3439 48.0654 56.9711 48.0654C56.4713 48.0654 55.9919 48.264 55.6384 48.6174C55.285 48.9709 55.0864 49.4503 55.0864 49.9501Z" fill="#263238"/>
<path d="M39.4395 53.3015C39.4387 53.7193 39.562 54.1279 39.7936 54.4756C40.0253 54.8233 40.3549 55.0945 40.7408 55.2547C41.1267 55.4149 41.5514 55.457 41.9612 55.3757C42.371 55.2944 42.7475 55.0933 43.043 54.7978C43.3384 54.5024 43.5395 54.1259 43.6208 53.7161C43.7022 53.3063 43.66 52.8815 43.4998 52.4957C43.3396 52.1098 43.0684 51.7802 42.7207 51.5485C42.373 51.3169 41.9644 51.1936 41.5466 51.1943C40.9877 51.1943 40.4518 51.4163 40.0566 51.8115C39.6615 52.2067 39.4395 52.7426 39.4395 53.3015Z" fill="#263238"/>
<path d="M32.1081 70.3315C32.1081 70.3315 33.156 69.653 32.9299 67.7984C31.3957 64.2853 27.3436 63.392 26.2014 63.7425C24.1584 64.3682 23.5628 71.1532 25.5418 72.0353C27.5848 72.9814 32.1194 70.7348 32.1081 70.3315Z" fill="#86C240"/>
<path opacity="0.1" d="M31.7238 68.5709C30.8757 68.1035 27.3777 65.8871 27.0799 66.6184C26.7029 67.5419 30.9134 68.831 30.9134 68.831C30.9134 68.831 26.6351 68.7255 26.8198 69.7734C26.9442 70.4783 31.3657 69.3625 31.3657 69.3625L31.7238 68.5709Z" fill="black"/>
<path d="M32.0326 67.8619C31.9567 67.9183 31.8849 67.98 31.8177 68.0466C31.5219 68.333 31.299 68.6861 31.1679 69.0763C31.0367 69.4666 31.001 69.8826 31.0638 70.2895C31.2146 71.0433 31.9685 71.5748 32.6319 71.8312C33.0894 72.0093 33.5804 72.0847 34.0702 72.0522C34.56 72.0196 35.0367 71.8798 35.4665 71.6427C35.842 71.4027 36.1381 71.0571 36.3178 70.6494C36.4976 70.2416 36.5529 69.7899 36.4768 69.3509C36.1073 67.4662 33.4687 66.7952 32.0326 67.8619Z" fill="#86C240"/>
<path opacity="0.2" d="M32.0326 67.8619C31.9567 67.9183 31.8849 67.98 31.8177 68.0466C31.5219 68.333 31.299 68.6861 31.1679 69.0763C31.0367 69.4666 31.001 69.8826 31.0638 70.2895C31.2146 71.0433 31.9685 71.5748 32.6319 71.8312C33.0894 72.0093 33.5804 72.0847 34.0702 72.0522C34.56 72.0196 35.0367 71.8798 35.4665 71.6427C35.842 71.4027 36.1381 71.0571 36.3178 70.6494C36.4976 70.2416 36.5529 69.7899 36.4768 69.3509C36.1073 67.4662 33.4687 66.7952 32.0326 67.8619Z" fill="black"/>
<path d="M35.5117 69.0687C36.0093 67.9379 41.1885 64.8583 43.9175 67.1576C45.3386 68.3563 43.7554 74.6475 41.9348 75.1903C39.2962 75.9818 35.7567 73.1925 35.2855 71.2097C35.1672 70.8576 35.1262 70.484 35.1652 70.1146C35.2042 69.7451 35.3224 69.3884 35.5117 69.0687Z" fill="#86C240"/>
<path opacity="0.1" d="M35.2671 69.6565C35.2228 69.8247 35.1913 69.9961 35.1729 70.1691C35.4895 70.5461 39.568 72.5853 39.7339 71.8804C39.8997 71.1755 36.0247 69.9166 36.0247 69.9166C36.0247 69.9166 40.6838 69.566 40.4991 68.7254C40.3671 68.1751 35.8137 69.2758 35.2671 69.6565Z" fill="black"/>
<path d="M26.4536 124.351C27.1434 125.901 29.2355 128.219 34.1998 129.116C39.1001 129.998 41.6595 129.044 42.7338 127.254C43.1107 126.123 43.646 124.167 41.1129 122.561C39.4242 121.487 37.6111 120.604 37.6111 120.604L26.4536 124.351Z" fill="#9A4A4D"/>
<path d="M44.8949 93.8673H43.1101L42.8035 94.7383H42.0736L43.6008 90.4695H44.4104L45.9376 94.7383H45.2016L44.8949 93.8673ZM44.6987 93.2969L44.0056 91.3159L43.3064 93.2969H44.6987ZM48.3159 91.3036C48.5817 91.3036 48.8188 91.3588 49.0273 91.4692C49.24 91.5796 49.4056 91.7432 49.5241 91.9599C49.6427 92.1766 49.702 92.4383 49.702 92.7449V94.7383H49.0089V92.8492C49.0089 92.5466 48.9333 92.3156 48.782 92.1561C48.6307 91.9926 48.4242 91.9108 48.1625 91.9108C47.9009 91.9108 47.6923 91.9926 47.5369 92.1561C47.3857 92.3156 47.31 92.5466 47.31 92.8492V94.7383H46.6108V91.3588H47.31V91.7452C47.4245 91.6062 47.5697 91.4978 47.7455 91.4201C47.9254 91.3425 48.1155 91.3036 48.3159 91.3036ZM50.9588 90.9111C50.8321 90.9111 50.7258 90.8681 50.6399 90.7823C50.554 90.6964 50.5111 90.5901 50.5111 90.4633C50.5111 90.3366 50.554 90.2303 50.6399 90.1444C50.7258 90.0585 50.8321 90.0156 50.9588 90.0156C51.0815 90.0156 51.1858 90.0585 51.2716 90.1444C51.3575 90.2303 51.4004 90.3366 51.4004 90.4633C51.4004 90.5901 51.3575 90.6964 51.2716 90.7823C51.1858 90.8681 51.0815 90.9111 50.9588 90.9111ZM51.3023 91.3588V94.7383H50.6031V91.3588H51.3023ZM56.3204 91.3036C56.5862 91.3036 56.8233 91.3588 57.0319 91.4692C57.2445 91.5796 57.4101 91.7432 57.5287 91.9599C57.6513 92.1766 57.7127 92.4383 57.7127 92.7449V94.7383H57.0196V92.8492C57.0196 92.5466 56.944 92.3156 56.7927 92.1561C56.6414 91.9926 56.4349 91.9108 56.1732 91.9108C55.9115 91.9108 55.703 91.9926 55.5476 92.1561C55.3963 92.3156 55.3207 92.5466 55.3207 92.8492V94.7383H54.6276V92.8492C54.6276 92.5466 54.552 92.3156 54.4007 92.1561C54.2494 91.9926 54.0429 91.9108 53.7812 91.9108C53.5195 91.9108 53.311 91.9926 53.1556 92.1561C53.0043 92.3156 52.9287 92.5466 52.9287 92.8492V94.7383H52.2295V91.3588H52.9287V91.7452C53.0432 91.6062 53.1883 91.4978 53.3641 91.4201C53.54 91.3425 53.7281 91.3036 53.9284 91.3036C54.1983 91.3036 54.4395 91.3609 54.6521 91.4753C54.8648 91.5898 55.0283 91.7554 55.1428 91.9721C55.245 91.7677 55.4045 91.6062 55.6212 91.4876C55.8379 91.3649 56.071 91.3036 56.3204 91.3036ZM58.3785 93.0332C58.3785 92.6938 58.448 92.3933 58.5871 92.1316C58.7302 91.8699 58.9223 91.6675 59.1636 91.5244C59.4089 91.3772 59.6788 91.3036 59.9732 91.3036C60.239 91.3036 60.47 91.3568 60.6663 91.4631C60.8666 91.5653 61.0261 91.6941 61.1447 91.8495V91.3588H61.85V94.7383H61.1447V94.2353C61.0261 94.3948 60.8646 94.5277 60.6601 94.634C60.4557 94.7403 60.2226 94.7935 59.9609 94.7935C59.6706 94.7935 59.4048 94.7199 59.1636 94.5727C58.9223 94.4214 58.7302 94.2129 58.5871 93.9471C58.448 93.6772 58.3785 93.3726 58.3785 93.0332ZM61.1447 93.0455C61.1447 92.8124 61.0956 92.61 60.9975 92.4383C60.9034 92.2665 60.7787 92.1357 60.6233 92.0457C60.4679 91.9558 60.3003 91.9108 60.1204 91.9108C59.9405 91.9108 59.7728 91.9558 59.6175 92.0457C59.4621 92.1316 59.3353 92.2604 59.2372 92.4321C59.1431 92.5998 59.0961 92.8001 59.0961 93.0332C59.0961 93.2663 59.1431 93.4707 59.2372 93.6465C59.3353 93.8224 59.4621 93.9573 59.6175 94.0513C59.7769 94.1413 59.9446 94.1863 60.1204 94.1863C60.3003 94.1863 60.4679 94.1413 60.6233 94.0513C60.7787 93.9614 60.9034 93.8305 60.9975 93.6588C61.0956 93.483 61.1447 93.2785 61.1447 93.0455ZM63.4768 90.1996V94.7383H62.7776V90.1996H63.4768Z" fill="white"/>
</svg>
