<svg width="165" height="160" viewBox="0 0 165 160" fill="none" xmlns="http://www.w3.org/2000/svg">
<path d="M147.134 58.9429C147.317 58.8275 143.974 46.6579 133.267 40.2175C133.081 40.1058 133.081 40.3664 133.267 40.5153C136.096 42.95 143.743 51.8325 145.731 58.1798C132.388 62.0589 117.847 52.1377 114.154 46.7249C114.069 46.5983 113.886 46.7249 113.961 46.8663C123.346 64.0915 145.306 61.2771 147.134 58.9429Z" fill="#DBDBDB"/>
<path opacity="0.1" d="M150.723 59.776C147.157 64.7794 141.614 68.0405 137.459 69.2132C131.13 71.0038 113.585 71.2049 105.894 69.0941C98.2027 66.9833 92.7824 61.4922 93.3594 51.8131C93.9365 42.1339 103.139 32.1309 103.139 32.1309C109.245 32.8785 115.413 32.9671 121.537 32.3952C123.214 32.2296 124.906 32.2809 126.57 32.5478C120.487 35.0346 114.531 39.219 110.841 44.6914C103.593 55.4874 116.545 61.6784 125.36 63.2345C133.968 64.7696 142.841 63.5597 150.723 59.776Z" fill="#A6A6A6"/>
<path d="M99.5729 21.1638C98.7092 24.425 94.1823 29.004 93.7766 28.9295C93.6196 28.9034 93.4643 28.8686 93.3112 28.8253C90.0256 27.9502 87.1623 25.9268 85.2403 23.122C81.7595 18.2117 83.2337 11.6261 84.8122 11.2092C86.3906 10.7922 87.8202 13.588 90.4261 14.1651C93.032 14.7421 94.5025 13.4726 96.1182 12.4079C96.3378 12.6983 100.418 17.9958 99.5729 21.1638Z" fill="#DBDBDB"/>
<path d="M103.478 22.2247C99.9559 21.5546 98.545 27.2393 102.361 27.9652C106.005 28.6688 107.122 22.9209 103.478 22.2247Z" fill="#A6A6A6"/>
<path opacity="0.1" d="M126.559 32.9873C123.469 38.1992 117.84 41.8475 110.205 41.3933C100.943 40.8424 95.1726 35.4369 93.3112 28.8253C90.0256 27.9502 87.1623 25.9269 85.2403 23.1221C81.7595 18.2117 83.2337 11.6262 84.8122 11.2092C86.3906 10.7923 87.8202 13.5881 90.4261 14.1651C93.032 14.7421 94.5025 13.4727 96.1182 12.408C99.4687 7.3078 105.164 4.02433 112.398 4.45245C113.427 4.5108 114.45 4.6477 115.458 4.86195C103.951 8.04118 94.1377 22.9731 106.132 31.7253C110.723 35.0758 116.951 36.0177 122.405 34.6105C123.848 34.2323 125.242 33.6876 126.559 32.9873Z" fill="#A6A6A6"/>
<path d="M0.986816 70.3607C53.2096 70.1337 111.791 70.1337 164.014 70.3607C111.791 70.5916 53.2096 70.5916 0.986816 70.3607Z" fill="#263238"/>
<path d="M84.0564 160C126.908 160 161.646 141.866 161.646 119.497C161.646 97.1272 126.908 78.9932 84.0564 78.9932C41.2049 78.9932 6.4668 97.1272 6.4668 119.497C6.4668 141.866 41.2049 160 84.0564 160Z" fill="#EBEBEB"/>
<path d="M37.5152 69.8232H15.3164V92.022H37.5152V69.8232Z" fill="white"/>
<path d="M40.5752 95.0789H12.2637V66.7637H40.5827L40.5752 95.0789ZM15.3163 92.0225H37.5151V69.8238H15.3163V92.0225Z" fill="#86C240"/>
<path opacity="0.5" d="M40.5752 95.0789H12.2637V66.7637H40.5827L40.5752 95.0789ZM15.3163 92.0225H37.5151V69.8238H15.3163V92.0225Z" fill="white"/>
<path d="M30.8402 76.4357L27.702 80.7355V84.8677C27.704 84.9789 27.6836 85.0894 27.6421 85.1926C27.6005 85.2958 27.5387 85.3896 27.4602 85.4684C27.3818 85.5473 27.2882 85.6095 27.1852 85.6515C27.0822 85.6935 26.9718 85.7143 26.8606 85.7128C26.641 85.7051 26.4328 85.613 26.2795 85.4555C26.1262 85.298 26.0397 85.0875 26.0379 84.8677V80.7355L22.9108 76.4357C22.842 76.3495 22.7916 76.2501 22.7626 76.1437C22.7337 76.0373 22.7269 75.926 22.7426 75.8169C22.7583 75.7077 22.7962 75.6029 22.8539 75.5089C22.9116 75.415 22.988 75.3338 23.0783 75.2705C23.1663 75.2042 23.2667 75.1563 23.3736 75.1297C23.4805 75.1031 23.5917 75.0983 23.7005 75.1157C23.8093 75.1331 23.9134 75.1722 24.0068 75.2308C24.1001 75.2894 24.1806 75.3662 24.2435 75.4566L26.8494 79.0379L29.4554 75.4566C29.52 75.3667 29.6018 75.2904 29.6961 75.2323C29.7904 75.1742 29.8953 75.1353 30.0047 75.118C30.1141 75.1007 30.2259 75.1053 30.3335 75.1314C30.4411 75.1576 30.5425 75.2049 30.6318 75.2705C30.8114 75.3993 30.9337 75.5931 30.9726 75.8107C31.0116 76.0284 30.9641 76.2526 30.8402 76.4357Z" fill="#86C240"/>
<g opacity="0.5">
<path d="M30.8407 76.4357L27.7024 80.7355V84.8677C27.7045 84.9789 27.6841 85.0894 27.6426 85.1926C27.601 85.2958 27.5392 85.3896 27.4607 85.4684C27.3822 85.5473 27.2887 85.6095 27.1857 85.6515C27.0827 85.6935 26.9723 85.7143 26.8611 85.7128C26.6415 85.7051 26.4333 85.613 26.28 85.4555C26.1267 85.298 26.0402 85.0875 26.0384 84.8677V80.7355L22.9113 76.4357C22.8425 76.3495 22.7921 76.2501 22.7631 76.1437C22.7342 76.0373 22.7274 75.926 22.7431 75.8169C22.7588 75.7077 22.7967 75.6029 22.8544 75.5089C22.9121 75.415 22.9885 75.3338 23.0788 75.2705C23.1668 75.2042 23.2672 75.1563 23.3741 75.1297C23.481 75.1031 23.5922 75.0983 23.701 75.1157C23.8098 75.1331 23.9139 75.1722 24.0072 75.2308C24.1005 75.2894 24.1811 75.3662 24.244 75.4566L26.8499 79.0379L29.4559 75.4566C29.5205 75.3667 29.6023 75.2904 29.6966 75.2323C29.7909 75.1742 29.8958 75.1353 30.0052 75.118C30.1146 75.1007 30.2264 75.1053 30.334 75.1314C30.4416 75.1576 30.543 75.2049 30.6323 75.2705C30.8119 75.3993 30.9342 75.5931 30.9731 75.8107C31.0121 76.0284 30.9646 76.2526 30.8407 76.4357Z" fill="white"/>
</g>
<path d="M49.2385 66.7637H40.5757V95.0864H49.2385V66.7637Z" fill="#86C240"/>
<path d="M16.8093 69.8232H15.2495V92.022H16.8093V69.8232Z" fill="#86C240"/>
<path d="M42.3993 92.0254H47.7861V69.8266H42.3993V92.0254Z" fill="white"/>
<path d="M46.7512 92.0254H47.7861V69.8266H46.7512V92.0254Z" fill="#86C240"/>
<path opacity="0.5" d="M46.7512 92.0254H47.7861V69.8266H46.7512V92.0254Z" fill="white"/>
<path d="M32.4113 123.331H4.09229V95.0117H32.4113V123.331ZM7.15239 120.271H29.3512V98.0569H7.15239V120.271Z" fill="#455A64"/>
<path d="M29.3511 98.0723H7.15234V120.271H29.3511V98.0723Z" fill="white"/>
<path d="M8.71218 98.0723H7.15234V120.271H8.71218V98.0723Z" fill="#37474F"/>
<path d="M15.2979 113.116V104.085C15.2979 103.861 15.3865 103.647 15.5443 103.49C15.7021 103.332 15.9161 103.243 16.1392 103.243H18.3133C18.853 103.244 19.3818 103.395 19.8406 103.679C20.2994 103.964 20.6702 104.37 20.9116 104.852C21.1529 105.335 21.2553 105.875 21.2074 106.413C21.1594 106.951 20.963 107.464 20.64 107.897C21.2432 108.274 21.7075 108.837 21.9627 109.501C22.2179 110.165 22.2503 110.894 22.0549 111.578C21.8595 112.262 21.4469 112.864 20.8795 113.294C20.312 113.723 19.6204 113.956 18.9089 113.957H16.1988C16.169 113.957 16.169 113.957 16.1541 113.957C16.0426 113.958 15.9321 113.937 15.8287 113.896C15.7253 113.854 15.6312 113.792 15.5517 113.714C15.4722 113.636 15.4089 113.543 15.3653 113.44C15.3217 113.338 15.2988 113.227 15.2979 113.116ZM16.9954 107.394H18.3133C18.6378 107.389 18.9472 107.256 19.1739 107.024C19.4006 106.791 19.5262 106.479 19.5232 106.154C19.5242 105.995 19.4935 105.837 19.4331 105.69C19.3726 105.543 19.2836 105.409 19.171 105.297C19.0585 105.184 18.9247 105.095 18.7775 105.035C18.6302 104.974 18.4724 104.943 18.3133 104.944H16.9954V107.394ZM16.9954 112.26H18.9089C19.3157 112.24 19.6994 112.064 19.9803 111.77C20.2613 111.475 20.418 111.083 20.418 110.676C20.418 110.268 20.2613 109.877 19.9803 109.582C19.6994 109.287 19.3157 109.111 18.9089 109.092H16.9954V112.26Z" fill="#455A64"/>
<path d="M47.7079 95.0117H32.4111V123.334H47.7079V95.0117Z" fill="#37474F"/>
<path d="M34.3399 120.271H46.249V98.0717H34.3399V120.271Z" fill="white"/>
<path d="M44.9833 120.271H46.249V98.0717H44.9833V120.271Z" fill="#455A64"/>
<path d="M132.836 95.0117H161.174V123.331H132.836V95.0117ZM158.095 98.0569H135.897V120.256H158.095V98.0569Z" fill="#455A64"/>
<path d="M135.896 120.271H158.095V98.0717H135.896V120.271Z" fill="white"/>
<path d="M156.535 120.271H158.095V98.0717H156.535V120.271Z" fill="#37474F"/>
<path d="M143.305 113.116V104.088C143.304 103.978 143.326 103.868 143.368 103.766C143.41 103.664 143.472 103.571 143.55 103.492C143.628 103.414 143.721 103.352 143.823 103.31C143.926 103.268 144.035 103.247 144.146 103.247H146.32C146.702 103.247 147.08 103.321 147.433 103.467C147.786 103.613 148.107 103.827 148.377 104.098C148.647 104.368 148.861 104.688 149.007 105.041C149.153 105.394 149.228 105.773 149.228 106.155C149.231 106.783 149.027 107.396 148.647 107.897C149.252 108.273 149.718 108.837 149.974 109.501C150.231 110.166 150.263 110.896 150.068 111.582C149.872 112.267 149.459 112.87 148.89 113.299C148.321 113.728 147.628 113.961 146.916 113.961H144.209C144.176 113.961 144.176 113.961 144.161 113.961C143.935 113.962 143.719 113.874 143.558 113.715C143.398 113.557 143.307 113.342 143.305 113.116ZM145.002 107.394H146.32C146.645 107.389 146.954 107.256 147.181 107.024C147.407 106.792 147.533 106.479 147.53 106.155C147.531 105.995 147.5 105.838 147.44 105.69C147.379 105.543 147.29 105.409 147.178 105.297C147.065 105.184 146.932 105.095 146.784 105.035C146.637 104.974 146.479 104.944 146.32 104.945H145.002V107.394ZM145.002 112.26H146.916C147.323 112.24 147.706 112.065 147.987 111.77C148.268 111.475 148.425 111.083 148.425 110.676C148.425 110.269 148.268 109.877 147.987 109.582C147.706 109.287 147.323 109.112 146.916 109.092H145.002V112.26Z" fill="#455A64"/>
<path d="M120.674 123.331H132.836V95.0084H120.674V123.331Z" fill="#37474F"/>
<path d="M130.223 98.0723H122.923V120.271H130.223V98.0723Z" fill="white"/>
<path d="M124.029 98.0723H122.923V120.271H124.029V98.0723Z" fill="#455A64"/>
<path d="M132.612 65.6365C131.071 63.0715 129.307 60.2385 129.805 57.1337C130.263 54.2672 131.607 51.1773 134.433 49.9712C135.237 49.6249 135.806 49.5393 135.922 50.537C136.115 52.0596 135.274 53.7833 134.786 55.183C134.14 56.9806 133.665 58.8354 133.368 60.7225C133.167 62.0478 133.107 63.3917 132.944 64.7244C132.926 64.8932 132.904 65.0607 132.877 65.227C132.877 65.2903 132.877 65.3536 132.847 65.4169L132.888 65.4951C132.899 65.5163 132.905 65.5399 132.905 65.5639C132.905 65.5879 132.899 65.6115 132.888 65.6328C132.879 65.6494 132.868 65.6645 132.854 65.6775C132.837 65.6933 132.816 65.705 132.793 65.7116C132.771 65.7182 132.747 65.7196 132.723 65.7156C132.7 65.7117 132.678 65.7025 132.659 65.6888C132.64 65.6751 132.624 65.6572 132.612 65.6365Z" fill="#86C240"/>
<path d="M132.858 65.6703C131.622 63.351 130.144 60.9275 130.688 58.2248C130.966 56.9664 131.442 55.7601 132.099 54.651C132.385 54.1484 133.215 52.637 133.926 52.6816C135.188 52.7635 132.918 57.5994 132.765 58.1801C132.259 60.3381 132.321 62.5902 132.944 64.7173C132.926 64.8861 132.904 65.0536 132.877 65.2199C132.409 63.7244 132.19 62.1625 132.229 60.5962C132.296 58.4258 133.234 56.7208 133.871 54.6994C134.008 54.2638 134.526 52.8901 133.744 52.9124C133.227 52.9124 132.389 54.4015 132.21 54.7143C131.595 55.7687 131.142 56.9094 130.866 58.0982C130.278 60.8159 131.704 63.2543 132.891 65.6256C132.883 65.6422 132.871 65.6573 132.858 65.6703Z" fill="white"/>
<path d="M131.816 67.9631C131.705 67.9929 131.593 68.0301 131.481 68.0673C131.469 68.0749 131.455 68.0789 131.44 68.0789C131.426 68.0789 131.412 68.0749 131.399 68.0673C131.376 68.0471 131.36 68.0188 131.356 67.9879C131.352 67.9569 131.359 67.9256 131.377 67.8998C131.392 67.8796 131.415 67.8662 131.44 67.8626H131.489L131.593 67.8403L131.619 67.8179C133.108 66.3958 134.791 65.212 136.254 63.7713C137.646 62.3901 138.945 60.9122 140.446 59.6428C141.391 58.8424 146.32 55.1494 146.957 57.867C147.24 59.0732 146.127 60.6218 145.442 61.519C144.513 62.705 143.378 63.7138 142.091 64.4972C138.923 66.4479 135.301 66.8947 131.816 67.9631Z" fill="#86C240"/>
<path d="M138.878 65.0339C140.122 64.4072 141.27 63.6062 142.288 62.6551C142.642 62.32 144.321 60.723 143.904 60.0864C143.636 59.6732 142.75 60.0864 142.448 60.1869C141.179 60.6932 140.177 61.7505 139.15 62.6216C137.055 64.3828 134.834 65.9879 132.505 67.4239C132.341 67.4872 132.173 67.5505 132.017 67.6175C131.861 67.6845 131.745 67.7218 131.611 67.7776L131.474 67.8334L131.366 67.8744C131.349 67.9004 131.342 67.9316 131.346 67.9623C131.35 67.993 131.365 68.0212 131.388 68.0419L131.704 67.9228L131.47 68.0605L131.745 67.9749L131.809 67.9526C131.943 67.8818 132.073 67.8037 132.203 67.7255C134.455 66.8804 136.749 66.147 138.878 65.0339ZM133.052 67.2266C134.414 66.3853 135.734 65.4794 137.009 64.509C138.04 63.731 139.027 62.9082 139.987 62.0595C140.523 61.5678 141.099 61.1209 141.707 60.723C142.184 60.4326 144.023 59.5056 143.424 61.0506C142.981 62.1674 141.35 63.2842 140.401 63.9171C139.34 64.6072 138.218 65.1991 137.05 65.6854C135.751 66.2438 134.396 66.7241 133.052 67.2266Z" fill="white"/>
<path d="M125.42 73.3459C125.395 73.3194 125.374 73.2893 125.357 73.2566C124.151 70.7995 122.163 67.7394 122.643 64.8729C122.997 62.7547 124.505 60.0333 126.738 59.4116C129.24 58.7192 128.227 63.1679 128.041 64.3108C127.392 67.36 126.572 70.3703 125.584 73.3273C125.577 73.3466 125.568 73.3653 125.558 73.3831C125.513 73.4315 125.465 73.3794 125.42 73.3459Z" fill="#86C240"/>
<path d="M125.536 73.3802C125.536 73.1978 125.554 73.008 125.566 72.8255C125.685 70.7036 125.893 68.5853 126.21 66.4969C126.288 65.9645 127.192 61.9477 126.113 62.0296C125.458 62.0742 124.895 63.5447 124.698 64.0287C124.343 64.8926 124.134 65.8098 124.08 66.7426C123.972 68.8831 124.825 70.9381 125.35 73.0042C125.379 73.101 125.402 73.1978 125.424 73.2983C125.422 73.3181 125.422 73.3381 125.424 73.3579C125.465 73.3802 125.513 73.4286 125.536 73.3802ZM124.277 67.8966C124.201 66.9435 124.287 65.9844 124.531 65.0599C124.691 64.4493 125.335 62.2418 126.131 62.2939C126.556 62.3199 126.481 62.5768 126.504 63.0608C126.52 63.2838 126.52 63.5078 126.504 63.7309C126.463 64.2781 126.362 64.8179 126.273 65.354C126.109 66.3033 125.968 67.2489 125.852 68.2019C125.655 69.7617 125.528 71.3253 125.45 72.8963C125.085 71.2248 124.419 69.6128 124.277 67.9041V67.8966Z" fill="white"/>
<path d="M132.773 74.984C129.687 75.8767 126.406 75.83 123.347 74.85C123.328 74.8432 123.31 74.8331 123.295 74.8202C123.276 74.8008 123.264 74.776 123.26 74.7493C123.256 74.7227 123.26 74.6954 123.272 74.6713C123.285 74.6448 123.306 74.6237 123.333 74.612C123.36 74.6004 123.39 74.5989 123.417 74.608L123.607 74.6601C127.077 73.2567 130.55 71.9053 133.998 70.4311C134.805 70.0849 140.028 67.9778 140.066 69.9211C140.088 71.1235 138.119 72.2925 137.262 72.8732C135.882 73.8018 134.368 74.5136 132.773 74.984Z" fill="#86C240"/>
<path d="M136.644 71.7014C136.871 71.4706 137.072 71.1728 136.711 70.9569C136.023 70.5846 133.599 71.6195 132.907 71.8727C130.062 72.9262 127.196 73.7005 124.281 74.4786L123.537 74.6834L123.261 74.6424C123.249 74.6665 123.245 74.6937 123.249 74.7204C123.253 74.7471 123.265 74.7719 123.283 74.7913C123.309 74.7895 123.336 74.7895 123.362 74.7913C123.481 74.7913 123.611 74.8285 123.734 74.8397C125.706 75.0862 127.704 75.0221 129.657 74.6498C130.891 74.4156 132.097 74.0538 133.257 73.5702C134.332 73.1347 135.825 72.5539 136.644 71.7014ZM123.909 74.7466H123.73C123.834 74.728 123.935 74.7094 124.039 74.6834C126.336 74.2166 128.601 73.601 130.818 72.8406C131.935 72.446 133.033 71.9844 134.169 71.6307C134.645 71.4818 135.993 71.0127 136.402 71.2584C136.812 71.5041 136.317 71.7647 136.06 71.9509C135.874 72.0849 135.513 72.2859 135.315 72.3939C131.857 74.3633 127.864 75.187 123.909 74.7466Z" fill="white"/>
<path d="M116.549 79.1312L116.285 78.651L117.528 77.9251C119.196 76.9274 120.856 75.9185 122.498 74.8761C123.436 74.2805 124.359 73.6811 125.257 73.052C125.286 73.0288 125.317 73.0076 125.35 72.9887L125.566 72.8324C125.644 72.7802 125.722 72.7207 125.8 72.6611C127.836 71.2528 129.636 69.5315 131.135 67.5609C131.626 66.8908 132.088 66.2021 132.534 65.4985C132.575 65.4315 132.616 65.3608 132.661 65.2938C132.674 65.2762 132.685 65.2575 132.695 65.2379C132.739 65.1709 132.78 65.1002 132.825 65.0295L132.922 64.8694C134.254 62.6841 135.416 60.4021 136.622 58.1684C136.968 57.5244 137.315 56.8841 137.668 56.2475C137.686 56.2074 137.707 56.1688 137.731 56.1321C137.754 56.0837 137.78 56.039 137.806 55.9906C139.351 53.165 140.929 50.3506 142.396 47.4953C142.448 47.3873 142.605 47.4953 142.552 47.5884C141.588 49.5056 140.669 51.4451 139.738 53.3772C139.619 53.6378 139.489 53.8947 139.366 54.1516C139.12 54.6653 138.874 55.1716 138.621 55.6779C138.125 56.693 137.62 57.7031 137.106 58.7082C135.65 61.5226 134.217 64.4227 132.423 67.0546L132.028 67.6242C131.943 67.7433 131.853 67.8662 131.764 67.9965C131.675 68.1268 131.563 68.272 131.459 68.4097C129.597 70.8183 127.311 72.5866 124.817 74.1912C124.646 74.2991 124.471 74.4145 124.292 74.5225L124.05 74.6788C124.005 74.7034 123.962 74.7308 123.92 74.7607C123.864 74.7905 123.808 74.8277 123.753 74.865L123.622 74.9394L123.168 75.2186C121.508 76.2287 119.839 77.2215 118.161 78.1968C117.614 78.4872 117.081 78.8074 116.549 79.1312Z" fill="#86C240"/>
<path d="M139.41 47.8153C140.449 45.5295 143.133 41.8402 146.111 42.7225C146.666 42.8722 147.147 43.22 147.464 43.7001C147.78 44.1802 147.909 44.7594 147.828 45.3285C147.656 46.7543 146.513 47.9865 145.546 48.9544C142.94 51.5603 140.14 53.8685 137.728 56.6456C137.728 56.6754 137.519 56.8802 137.467 56.9434C137.415 57.0067 137.337 56.9137 137.385 56.8578L137.62 56.5861C137.985 53.6823 138.182 50.5217 139.41 47.8153Z" fill="#86C240"/>
<path d="M137.731 56.6834C137.731 56.6648 137.757 56.6461 137.768 56.6238C138.251 55.7632 138.786 54.9328 139.369 54.137C140.606 52.4988 141.941 50.9373 143.367 49.4612C143.911 48.8879 146.625 46.1554 144.696 45.7124C143.885 45.5263 142.962 46.1294 142.34 46.5724C141.346 47.2964 140.504 48.2098 139.864 49.2602C138.573 51.33 138.051 53.7275 137.731 56.1175C137.713 56.2292 137.701 56.3371 137.687 56.4451L137.631 56.5382C137.617 56.558 137.606 56.5792 137.597 56.6015C137.592 56.6146 137.592 56.6293 137.597 56.6424C137.597 56.6546 137.6 56.6666 137.606 56.6775C137.611 56.6884 137.619 56.698 137.629 56.7055C137.638 56.713 137.65 56.7182 137.661 56.7208C137.673 56.7235 137.686 56.7234 137.698 56.7206C137.706 56.7172 137.713 56.7121 137.719 56.7057C137.724 56.6992 137.729 56.6916 137.731 56.6834ZM137.806 55.976C138.13 54.0142 138.55 52.0299 139.462 50.243C139.926 49.3078 140.527 48.447 141.245 47.6892C141.568 47.3545 141.918 47.047 142.292 46.7697C142.567 46.5581 142.861 46.3725 143.17 46.215C143.844 45.8688 144.723 45.7422 145.009 46.0959C145.381 46.5314 145.177 46.8404 144.793 47.4807C144.665 47.6944 144.523 47.8995 144.369 48.095C143.997 48.5827 143.561 49.0368 143.137 49.4836C142.433 50.2281 141.733 50.9727 141.059 51.7544C140.605 52.2756 140.158 52.8154 139.738 53.3627C139.008 54.3096 138.342 55.3046 137.746 56.3409C137.765 56.2217 137.783 56.0989 137.806 55.976Z" fill="white"/>
<g opacity="0.4">
<path d="M132.613 65.6355C131.072 63.0706 129.307 60.2375 129.806 57.1328C130.264 54.2662 131.608 51.1764 134.433 49.9702C135.237 49.624 135.807 49.5384 135.922 50.536C136.116 52.0587 135.275 53.7823 134.787 55.182C134.14 56.9796 133.666 58.8344 133.369 60.7215C133.168 62.0468 133.108 63.3907 132.944 64.7235C132.927 64.8922 132.904 65.0598 132.877 65.226C132.877 65.2893 132.877 65.3526 132.847 65.4159L132.888 65.4941C132.899 65.5153 132.905 65.539 132.905 65.5629C132.905 65.5869 132.899 65.6106 132.888 65.6318C132.88 65.6484 132.868 65.6635 132.855 65.6765C132.837 65.6923 132.816 65.704 132.794 65.7106C132.771 65.7172 132.747 65.7186 132.724 65.7146C132.701 65.7107 132.679 65.7015 132.659 65.6878C132.64 65.6741 132.624 65.6563 132.613 65.6355Z" fill="white"/>
<path d="M132.858 65.6703C131.623 63.351 130.145 60.9275 130.688 58.2248C130.966 56.9664 131.443 55.7601 132.099 54.651C132.386 54.1484 133.216 52.637 133.927 52.6816C135.189 52.7635 132.918 57.5994 132.765 58.1801C132.26 60.3381 132.321 62.5902 132.944 64.7173C132.927 64.8861 132.904 65.0536 132.877 65.2199C132.41 63.7244 132.191 62.1625 132.229 60.5962C132.296 58.4258 133.234 56.7208 133.871 54.6994C134.009 54.2638 134.526 52.8901 133.744 52.9124C133.227 52.9124 132.389 54.4015 132.211 54.7143C131.596 55.7687 131.143 56.9094 130.867 58.0982C130.279 60.8159 131.704 63.2543 132.892 65.6256C132.883 65.6422 132.872 65.6573 132.858 65.6703Z" fill="white"/>
<path d="M131.816 67.9631C131.704 67.9929 131.592 68.0301 131.481 68.0673C131.468 68.0749 131.454 68.0789 131.44 68.0789C131.425 68.0789 131.411 68.0749 131.399 68.0673C131.375 68.0471 131.36 68.0188 131.356 67.9879C131.351 67.9569 131.359 67.9256 131.376 67.8998C131.392 67.8796 131.415 67.8662 131.44 67.8626H131.488L131.592 67.8403L131.618 67.8179C133.108 66.3958 134.79 65.212 136.253 63.7713C137.646 62.3901 138.945 60.9122 140.445 59.6428C141.391 58.8424 146.32 55.1494 146.956 57.867C147.239 59.0732 146.126 60.6218 145.441 61.519C144.512 62.705 143.377 63.7138 142.091 64.4972C138.923 66.4479 135.3 66.8947 131.816 67.9631Z" fill="white"/>
<path d="M138.878 65.033C140.122 64.4063 141.27 63.6052 142.288 62.6541C142.642 62.3191 144.321 60.722 143.904 60.0854C143.636 59.6722 142.75 60.0854 142.448 60.1859C141.179 60.6922 140.177 61.7495 139.15 62.6206C137.055 64.3818 134.834 65.9869 132.505 67.423C132.341 67.4862 132.173 67.5495 132.017 67.6165C131.861 67.6836 131.745 67.7208 131.611 67.7766L131.474 67.8325L131.366 67.8734C131.349 67.8994 131.342 67.9306 131.346 67.9613C131.35 67.992 131.365 68.0202 131.388 68.0409L131.704 67.9218L131.47 68.0596L131.745 67.9739L131.809 67.9516C131.943 67.8809 132.073 67.8027 132.203 67.7245C134.455 66.8794 136.749 66.1461 138.878 65.033ZM133.052 67.2257C134.414 66.3843 135.734 65.4784 137.009 64.508C138.04 63.73 139.027 62.9073 139.987 62.0585C140.523 61.5669 141.099 61.1199 141.707 60.722C142.184 60.4316 144.023 59.5047 143.424 61.0496C142.981 62.1664 141.35 63.2833 140.401 63.9161C139.34 64.6062 138.218 65.1981 137.05 65.6844C135.751 66.2428 134.396 66.7231 133.052 67.2257Z" fill="white"/>
<path d="M125.42 73.3459C125.395 73.3194 125.374 73.2893 125.357 73.2566C124.151 70.7995 122.163 67.7394 122.643 64.8729C122.997 62.7547 124.505 60.0333 126.738 59.4116C129.24 58.7192 128.227 63.1679 128.041 64.3108C127.392 67.36 126.572 70.3703 125.584 73.3273C125.577 73.3466 125.568 73.3653 125.558 73.3831C125.513 73.4315 125.465 73.3794 125.42 73.3459Z" fill="white"/>
<path d="M125.536 73.3793C125.536 73.1968 125.554 73.007 125.566 72.8246C125.685 70.7026 125.893 68.5843 126.21 66.4959C126.288 65.9635 127.192 61.9467 126.113 62.0286C125.458 62.0733 124.895 63.5437 124.698 64.0277C124.343 64.8916 124.134 65.8089 124.08 66.7416C123.972 68.8822 124.825 70.9371 125.35 73.0033C125.379 73.1001 125.402 73.1968 125.424 73.2974C125.422 73.3172 125.422 73.3371 125.424 73.3569C125.465 73.3793 125.513 73.4277 125.536 73.3793ZM124.277 67.8956C124.201 66.9426 124.287 65.9835 124.531 65.0589C124.691 64.4484 125.335 62.2408 126.131 62.2929C126.556 62.319 126.481 62.5758 126.504 63.0598C126.52 63.2828 126.52 63.5068 126.504 63.7299C126.463 64.2771 126.362 64.8169 126.273 65.353C126.109 66.3023 125.968 67.2479 125.852 68.2009C125.655 69.7607 125.528 71.3243 125.45 72.8953C125.085 71.2238 124.419 69.6118 124.277 67.9031V67.8956Z" fill="white"/>
<path d="M132.773 74.984C129.687 75.8767 126.406 75.83 123.347 74.85C123.328 74.8432 123.31 74.8331 123.295 74.8202C123.276 74.8008 123.264 74.776 123.26 74.7493C123.256 74.7227 123.26 74.6954 123.272 74.6713C123.285 74.6448 123.306 74.6237 123.333 74.612C123.36 74.6004 123.39 74.5989 123.417 74.608L123.607 74.6601C127.077 73.2567 130.55 71.9053 133.998 70.4311C134.805 70.0849 140.028 67.9778 140.066 69.9211C140.088 71.1235 138.119 72.2925 137.262 72.8732C135.882 73.8018 134.368 74.5136 132.773 74.984Z" fill="white"/>
<path d="M136.645 71.7005C136.872 71.4696 137.073 71.1718 136.712 70.9559C136.023 70.5836 133.6 71.6185 132.907 71.8717C130.063 72.9252 127.196 73.6996 124.282 74.4776L123.537 74.6824L123.262 74.6414C123.249 74.6655 123.245 74.6928 123.249 74.7194C123.253 74.7461 123.265 74.7709 123.284 74.7903C123.31 74.7886 123.336 74.7886 123.362 74.7903C123.481 74.7903 123.611 74.8276 123.734 74.8387C125.706 75.0852 127.705 75.0212 129.657 74.6489C130.891 74.4146 132.098 74.0528 133.257 73.5693C134.333 73.1337 135.826 72.553 136.645 71.7005ZM123.909 74.7457H123.731C123.835 74.727 123.935 74.7084 124.04 74.6824C126.337 74.2156 128.601 73.6 130.819 72.8396C131.936 72.445 133.034 71.9834 134.169 71.6297C134.646 71.4808 135.993 71.0117 136.403 71.2574C136.812 71.5031 136.317 71.7637 136.06 71.9499C135.874 72.0839 135.513 72.2849 135.316 72.3929C131.858 74.3624 127.865 75.186 123.909 74.7457Z" fill="white"/>
<path d="M116.549 79.1312L116.285 78.651L117.528 77.9251C119.196 76.9274 120.856 75.9185 122.498 74.8761C123.436 74.2805 124.359 73.6811 125.257 73.052C125.286 73.0288 125.317 73.0076 125.35 72.9887L125.566 72.8324C125.644 72.7802 125.722 72.7207 125.8 72.6611C127.836 71.2528 129.636 69.5315 131.135 67.5609C131.626 66.8908 132.088 66.2021 132.534 65.4985C132.575 65.4315 132.616 65.3608 132.661 65.2938C132.674 65.2762 132.685 65.2575 132.695 65.2379C132.739 65.1709 132.78 65.1002 132.825 65.0295L132.922 64.8694C134.254 62.6841 135.416 60.4021 136.622 58.1684C136.968 57.5244 137.315 56.8841 137.668 56.2475C137.686 56.2074 137.707 56.1688 137.731 56.1321C137.754 56.0837 137.78 56.039 137.806 55.9906C139.351 53.165 140.929 50.3506 142.396 47.4953C142.448 47.3873 142.605 47.4953 142.552 47.5884C141.588 49.5056 140.669 51.4451 139.738 53.3772C139.619 53.6378 139.489 53.8947 139.366 54.1516C139.12 54.6653 138.874 55.1716 138.621 55.6779C138.125 56.693 137.62 57.7031 137.106 58.7082C135.65 61.5226 134.217 64.4227 132.423 67.0546L132.028 67.6242C131.943 67.7433 131.853 67.8662 131.764 67.9965C131.675 68.1268 131.563 68.272 131.459 68.4097C129.597 70.8183 127.311 72.5866 124.817 74.1912C124.646 74.2991 124.471 74.4145 124.292 74.5225L124.05 74.6788C124.005 74.7034 123.962 74.7308 123.92 74.7607C123.864 74.7905 123.808 74.8277 123.753 74.865L123.622 74.9394L123.168 75.2186C121.508 76.2287 119.839 77.2215 118.161 78.1968C117.614 78.4872 117.081 78.8074 116.549 79.1312Z" fill="white"/>
<path d="M139.41 47.8153C140.449 45.5295 143.133 41.8402 146.111 42.7225C146.666 42.8722 147.147 43.22 147.464 43.7001C147.78 44.1802 147.909 44.7594 147.828 45.3285C147.656 46.7543 146.513 47.9865 145.546 48.9544C142.94 51.5603 140.14 53.8685 137.728 56.6456C137.728 56.6754 137.519 56.8802 137.467 56.9434C137.415 57.0067 137.337 56.9137 137.385 56.8578L137.62 56.5861C137.985 53.6823 138.182 50.5217 139.41 47.8153Z" fill="white"/>
<path d="M137.732 56.6834C137.732 56.6648 137.758 56.6461 137.769 56.6238C138.252 55.7632 138.786 54.9328 139.37 54.137C140.606 52.4988 141.942 50.9373 143.368 49.4612C143.911 48.8879 146.625 46.1554 144.697 45.7124C143.885 45.5263 142.962 46.1294 142.34 46.5724C141.346 47.2964 140.505 48.2098 139.865 49.2602C138.573 51.33 138.052 53.7275 137.732 56.1175C137.713 56.2292 137.702 56.3371 137.687 56.4451L137.631 56.5382C137.618 56.558 137.607 56.5792 137.598 56.6015C137.592 56.6146 137.592 56.6293 137.598 56.6424C137.598 56.6546 137.601 56.6666 137.606 56.6775C137.612 56.6884 137.62 56.698 137.629 56.7055C137.639 56.713 137.65 56.7182 137.662 56.7208C137.674 56.7235 137.686 56.7234 137.698 56.7206C137.706 56.7172 137.713 56.7121 137.719 56.7057C137.725 56.6992 137.729 56.6916 137.732 56.6834ZM137.806 55.976C138.13 54.0142 138.551 52.0299 139.463 50.243C139.927 49.3078 140.528 48.447 141.246 47.6892C141.569 47.3545 141.919 47.047 142.292 46.7697C142.567 46.5581 142.861 46.3725 143.171 46.215C143.844 45.8688 144.723 45.7422 145.01 46.0959C145.382 46.5314 145.177 46.8404 144.794 47.4807C144.666 47.6944 144.524 47.8995 144.369 48.095C143.997 48.5827 143.561 49.0368 143.137 49.4836C142.433 50.2281 141.734 50.9727 141.06 51.7544C140.606 52.2756 140.159 52.8154 139.738 53.3627C139.008 54.3096 138.343 55.3046 137.747 56.3409C137.765 56.2217 137.784 56.0989 137.806 55.976Z" fill="white"/>
</g>
<path d="M49.2788 60.0264C50.7679 61.3852 52.1416 62.8445 53.5078 64.3187C54.2822 65.1526 55.049 65.994 55.8271 66.8316C56.6871 67.7474 57.4912 68.7749 58.6973 69.2253C58.7485 69.2504 58.7971 69.2803 58.8425 69.3147C58.8434 69.3233 58.8434 69.3321 58.8425 69.3407C58.8487 69.3666 58.848 69.3937 58.8406 69.4192C58.8331 69.4447 58.819 69.4679 58.7998 69.4863C58.7806 69.5047 58.757 69.5178 58.7312 69.5243C58.7053 69.5308 58.6783 69.5304 58.6527 69.5231L58.5745 69.4934H58.541C58.1691 69.4518 57.8032 69.3682 57.4502 69.2439C56.4603 69.0097 55.4845 68.7188 54.5279 68.3728C52.5572 67.6791 50.6812 66.7411 48.9437 65.5808C47.3958 64.5407 45.9936 63.2988 44.7743 61.8878C43.7989 60.771 42.3358 59.0883 42.0641 57.5657C41.8184 56.1845 43.5979 56.4488 44.4243 56.6983C46.3266 57.253 47.8939 58.7383 49.2788 60.0264Z" fill="#86C240"/>
<path d="M44.7965 59.0175C44.3721 59.6094 45.9766 61.4038 46.6579 62.2042C47.7225 63.4647 48.9378 64.59 50.2764 65.5547C52.6893 67.2731 55.377 68.5685 58.2245 69.3854C58.3361 69.4226 58.4553 69.4598 58.567 69.4896H58.6005L58.6786 69.5194C58.7046 69.5269 58.7321 69.5274 58.7584 69.5208C58.7846 69.5142 58.8086 69.5007 58.8279 69.4818C58.8472 69.4628 58.8612 69.4391 58.8683 69.413C58.8754 69.3869 58.8755 69.3594 58.8685 69.3333C58.6414 69.229 58.4218 69.1173 58.2058 68.9982C57.9899 68.8791 57.8336 68.7823 57.6363 68.6669C55.5776 67.4421 53.7907 65.7445 52.0521 64.1214C49.9748 62.2116 45.3586 58.2357 44.7965 59.0175ZM57.9304 69.0689C58.217 69.2253 58.5037 69.3705 58.7978 69.5045L58.1053 69.2774C55.6193 68.4839 53.2524 67.3568 51.0693 65.9269C49.8452 65.1137 48.712 64.1714 47.6891 63.1163C47.1398 62.5506 46.6263 61.9514 46.1516 61.3219C45.9543 61.0576 44.6625 59.4828 45.0012 59.1739C45.2432 58.9579 46.7249 59.9184 46.7584 59.9482C47.0562 60.1381 47.3466 60.3428 47.6332 60.555C48.2251 60.9868 48.791 61.4559 49.3457 61.9287C50.5519 62.9599 51.7022 64.0618 52.8711 65.1303C54.431 66.5486 56.0839 68.0191 57.9453 69.0503L57.9304 69.0689Z" fill="white"/>
<path d="M60.4206 53.91C61.7645 56.516 62.0772 59.4942 62.1182 62.3867C62.1182 63.9317 62.0847 65.4766 62.0698 67.0216C62.0698 68.3134 61.9507 69.8136 62.215 71.1576C62.215 71.2171 62.2373 71.2767 62.2522 71.3362C62.3364 71.7207 62.4612 72.095 62.6245 72.4531C62.6311 72.4637 62.6346 72.4759 62.6346 72.4884C62.6346 72.5009 62.6311 72.5132 62.6245 72.5238C62.6494 72.5568 62.6718 72.5917 62.6915 72.628C62.6964 72.633 62.6992 72.6397 62.6992 72.6467C62.6992 72.6536 62.6964 72.6603 62.6915 72.6653C62.6866 72.6702 62.6799 72.673 62.6729 72.673C62.6659 72.673 62.6592 72.6702 62.6543 72.6653L62.5575 72.5759C62.5394 72.5786 62.5209 72.5749 62.5052 72.5654C62.4896 72.5559 62.4778 72.5411 62.4719 72.5238L62.4495 72.4829L62.3564 72.3935C60.1005 70.3125 58.8347 66.8094 57.9785 63.9615C57.1223 61.1136 56.7239 58.1205 57.4685 55.2353C57.6583 54.5094 57.9785 52.7858 58.8533 52.5401C59.6388 52.2906 60.1377 53.3591 60.4206 53.91Z" fill="#86C240"/>
<path d="M59.2298 55.5966C58.3437 55.7455 58.5336 58.1727 58.5597 58.7684C58.6757 60.564 58.9459 62.3463 59.3675 64.0956C60.0041 66.9771 60.8343 69.7356 62.3085 72.2634C62.3162 72.2975 62.3261 72.3311 62.3383 72.3639L62.4313 72.457C62.4365 72.4717 62.4441 72.4855 62.4537 72.4979C62.4603 72.5155 62.4728 72.5304 62.4891 72.5398C62.5054 72.5493 62.5244 72.5529 62.543 72.55C62.5288 72.5049 62.5176 72.4589 62.5095 72.4123C62.409 72.0586 62.3271 71.6975 62.2489 71.3327C62.2489 71.2731 62.2229 71.2136 62.2117 71.154C61.698 68.6449 61.6086 66.0538 61.4225 63.4851C61.3193 61.6969 61.0501 59.9222 60.6183 58.1839C60.5029 57.7446 59.9743 55.4737 59.2298 55.5966ZM60.0264 56.8847C61.2363 59.6842 61.2028 63.016 61.4038 66.0091C61.4892 68.033 61.7698 70.0439 62.2415 72.0139C61.0018 69.6947 60.2461 67.0999 59.6728 64.5684C59.3198 63.1084 59.0513 61.6293 58.8687 60.1384C58.7637 59.3313 58.7202 58.5174 58.7384 57.7037C58.7419 57.2142 58.8031 56.7269 58.9208 56.2518C59.226 55.377 59.8068 56.4044 60.0264 56.8847Z" fill="white"/>
<path d="M67.4196 76.3873C67.433 76.4112 67.44 76.4381 67.44 76.4655C67.44 76.4929 67.433 76.5198 67.4196 76.5437H67.4792C67.491 76.5437 67.5024 76.5484 67.5107 76.5568C67.5191 76.5651 67.5238 76.5765 67.5238 76.5883C67.5255 76.5943 67.5259 76.6005 67.5248 76.6066C67.5238 76.6126 67.5214 76.6184 67.5178 76.6234C67.5142 76.6284 67.5095 76.6325 67.5041 76.6355C67.4987 76.6384 67.4928 76.6401 67.4866 76.6405C64.0096 77.1877 60.1416 77.3478 56.7204 76.4134C55.271 76.0288 53.894 75.4101 52.644 74.5818C51.7952 74.0085 50.0865 72.8507 49.9859 71.7041C49.7924 69.396 55.9088 71.7934 56.8284 72.1545C58.5073 72.8172 60.123 73.6213 61.7871 74.3137C63.6112 75.0583 65.4838 75.6986 67.3712 76.324C67.3932 76.3399 67.41 76.3619 67.4196 76.3873Z" fill="#86C240"/>
<path d="M67.4199 76.3873C67.2338 76.3873 67.0476 76.3538 66.8578 76.3278C63.8176 75.9884 60.8479 75.1823 58.0535 73.9378C56.666 73.2734 55.2252 72.7267 53.7462 72.3035C53.374 72.2141 52.0152 71.7823 52.2348 72.6571C52.3502 73.1076 54.5876 74.4031 55.213 74.6898C56.6139 75.3275 58.0881 75.7901 59.6021 76.0672C62.1362 76.5645 64.7224 76.7433 67.3008 76.5995H67.5241C67.5247 76.5935 67.524 76.5875 67.5219 76.5818C67.5199 76.5761 67.5166 76.5709 67.5123 76.5667C67.5081 76.5624 67.5029 76.5591 67.4972 76.5571C67.4916 76.5551 67.4855 76.5543 67.4795 76.5549H67.4199C67.4354 76.5297 67.4436 76.5007 67.4436 76.4711C67.4436 76.4415 67.4354 76.4125 67.4199 76.3873ZM60.8865 76.1193C59.3759 75.9107 57.8912 75.5451 56.4564 75.0285C55.8866 74.8128 55.3297 74.5642 54.7886 74.284C54.3633 74.072 53.954 73.8294 53.5638 73.5581C52.622 72.8731 52.447 72.6199 52.5103 72.4412C52.5624 72.3295 52.7597 72.27 53.5266 72.3928C54.0185 72.4846 54.4999 72.6255 54.9636 72.8135C55.6262 73.0629 56.2814 73.3384 56.9329 73.6213C58.2322 74.1835 59.5388 74.7642 60.8716 75.2259C62.7933 75.9019 64.7963 76.32 66.828 76.4692C64.8412 76.5171 62.8539 76.4 60.8865 76.1193Z" fill="white"/>
<path d="M67.0589 66.3963C67.888 67.3455 68.5014 68.4632 68.857 69.6723C69.6499 72.04 69.9291 74.5416 70.5546 76.9577C70.6476 77.33 70.7481 77.6762 70.8598 78.0336C70.8598 78.0708 71.1092 78.4692 71.0832 78.4468L70.7705 78.1229C69.8286 77.1364 67.0477 74.0986 65.957 72.04C65.2547 70.7685 64.7108 69.4157 64.3376 68.0119C64.1849 67.3418 63.902 65.8304 64.5646 65.3204C65.2273 64.8104 66.6084 65.9346 67.0589 66.3963Z" fill="#86C240"/>
<path d="M65.6328 66.9804C64.7021 67.3527 66.6267 71.4477 66.8724 72.0024C67.7687 73.994 68.9214 75.86 70.3011 77.553C70.4537 77.7466 70.6101 77.9253 70.7702 78.1226L71.0792 78.4465C71.0792 78.4465 70.8744 78.0742 70.8595 78.0295L70.8037 77.8471C70.7143 77.5493 70.6287 77.2515 70.5542 76.9574C69.9437 75.3417 69.3592 73.7148 68.7152 72.1178C68.262 70.9592 67.7168 69.8388 67.0846 68.7673C66.9357 68.5067 66.0423 66.8129 65.6328 66.9804ZM66.3773 67.8292C68.4621 70.8074 69.2178 74.4147 70.5915 77.7354L70.6585 77.8955L70.4872 77.6758C69.3757 76.2526 68.4022 74.7269 67.5798 73.1192C67.0818 72.1387 66.643 71.1293 66.2656 70.0963C66.0349 69.5375 65.8409 68.9642 65.6849 68.3801C65.629 68.127 65.5062 67.4159 65.6849 67.3266C65.9343 67.1963 66.2582 67.6319 66.3959 67.8292H66.3773Z" fill="white"/>
<path d="M49.0106 42.9126C52.2866 48.3888 50.6188 55.4099 53.5225 61.0499V61.0759C53.6119 61.2472 53.7049 61.4184 53.8017 61.5897C53.811 61.6061 53.8162 61.6246 53.8167 61.6435C53.8171 61.6624 53.813 61.6812 53.8045 61.6981C53.796 61.715 53.7836 61.7296 53.7682 61.7405C53.7527 61.7515 53.7349 61.7585 53.7161 61.7609C53.699 61.7635 53.6814 61.7606 53.666 61.7525C53.6506 61.7445 53.6382 61.7318 53.6305 61.7162C53.6044 61.6753 53.5821 61.6343 53.5598 61.5934C50.9538 59.1773 48.8542 55.8976 47.3093 52.7258C45.9653 49.9635 45.0756 46.8662 45.5372 43.7912C45.6489 43.028 45.8202 41.5129 46.7397 41.2262C47.6592 40.9396 48.6048 42.2388 49.0106 42.9126Z" fill="#86C240"/>
<path d="M47.8938 44.9228C47.5215 45.0494 47.4619 45.6152 47.4173 45.9279C47.3063 46.7024 47.29 47.4875 47.3689 48.2658C47.5273 49.8617 47.9225 51.425 48.5415 52.9044C49.5313 55.4674 50.8342 57.8982 52.4206 60.1414C52.7929 60.644 53.1652 61.1279 53.5784 61.5933L53.7273 61.7608C53.7463 61.7586 53.7645 61.7519 53.7803 61.7412C53.7962 61.7305 53.8092 61.7162 53.8183 61.6994C53.8274 61.6826 53.8324 61.6638 53.8328 61.6447C53.8331 61.6256 53.8289 61.6067 53.8204 61.5896C53.7199 61.4258 53.6342 61.262 53.5449 61.0944C53.536 61.0803 53.5285 61.0654 53.5226 61.0498C52.8582 59.9679 52.3021 58.8232 51.8622 57.6323C51.1884 55.7709 50.831 53.8165 50.4029 51.8992C50.2354 51.1435 49.2005 44.4872 47.8938 44.9228ZM48.7574 46.0396C49.4275 47.4692 49.6435 49.096 49.9822 50.6298C50.321 52.1636 50.656 53.7234 51.0283 55.2646C51.3186 56.4911 51.7134 57.6905 52.2084 58.8496C52.6199 59.8173 53.1183 60.7456 53.6975 61.6231C53.0446 60.823 52.4428 59.9824 51.8957 59.1065C51.8923 59.0956 51.8923 59.0839 51.8957 59.073C50.9381 57.5054 50.0802 55.8791 49.327 54.2036C49.3186 54.1818 49.3087 54.1607 49.2972 54.1403C48.5953 52.6822 48.0716 51.1448 47.7374 49.5614C47.564 48.6978 47.4903 47.8172 47.5178 46.9368C47.5624 45.9391 47.7039 45.1387 48.0427 45.1276C48.2325 45.1238 48.5527 45.619 48.7426 46.0434L48.7574 46.0396Z" fill="white"/>
<path d="M49.4165 54.1411C50.3137 55.7195 51.2481 57.2905 52.1937 58.8541C52.6329 59.5986 53.0797 60.3432 53.5227 61.0505C53.5286 61.0661 53.5361 61.0811 53.545 61.0952C53.7051 61.3595 53.8652 61.6276 54.0252 61.8881C55.4734 64.2819 56.9029 66.7947 58.7271 68.9241C59.7042 70.0398 60.7822 71.0629 61.9473 71.9805L62.3195 72.2635C62.3866 72.3119 62.4498 72.364 62.5206 72.4124C62.554 72.444 62.5901 72.4727 62.6285 72.498C63.6486 73.2835 64.7058 74.0169 65.737 74.7316C67.1777 75.7219 68.6743 76.593 70.1746 77.479C70.2171 77.5086 70.2619 77.5348 70.3086 77.5572C70.3756 77.5982 70.4463 77.6354 70.5133 77.6801L70.6176 77.7396L70.8111 77.8513C71.2951 78.1305 71.7753 78.4134 72.2593 78.7001L71.9503 79.1357C70.3677 78.4263 68.8408 77.5988 67.3825 76.66C67.3506 76.645 67.3206 76.6263 67.2931 76.6042C67.1517 76.5186 67.0065 76.4255 66.865 76.3324C66.7236 76.2394 66.5188 76.1128 66.3438 75.9937C65.9269 75.7182 65.5174 75.439 65.1116 75.1635C62.7588 73.5441 60.3577 71.7869 58.4479 69.6464L58.2915 69.4677L58.2245 69.3895C58.1873 69.3523 58.1501 69.3076 58.1128 69.2629L57.9379 69.0544C57.8336 68.9279 57.7331 68.7976 57.6363 68.6822L57.547 68.5705C55.9834 66.5528 54.7326 64.2335 53.478 62.0445C53.2472 61.6387 53.0238 61.2404 52.8005 60.8346L52.4282 60.1571L51.8772 59.1259C51.8738 59.115 51.8738 59.1033 51.8772 59.0924C51.0135 57.473 50.1834 55.8387 49.3085 54.223C49.249 54.1336 49.383 54.0629 49.4165 54.1411Z" fill="#86C240"/>
<g opacity="0.4">
<path d="M49.2788 60.0264C50.7679 61.3852 52.1416 62.8445 53.5078 64.3187C54.2822 65.1526 55.049 65.994 55.8271 66.8316C56.6871 67.7474 57.4912 68.7749 58.6973 69.2253C58.7485 69.2504 58.7971 69.2803 58.8425 69.3147C58.8434 69.3233 58.8434 69.3321 58.8425 69.3407C58.8487 69.3666 58.848 69.3937 58.8406 69.4192C58.8331 69.4447 58.819 69.4679 58.7998 69.4863C58.7806 69.5047 58.757 69.5178 58.7312 69.5243C58.7053 69.5308 58.6783 69.5304 58.6527 69.5231L58.5745 69.4934H58.541C58.1691 69.4518 57.8032 69.3682 57.4502 69.2439C56.4603 69.0097 55.4845 68.7188 54.5279 68.3728C52.5572 67.6791 50.6812 66.7411 48.9437 65.5808C47.3958 64.5407 45.9936 63.2988 44.7743 61.8878C43.7989 60.771 42.3358 59.0883 42.0641 57.5657C41.8184 56.1845 43.5979 56.4488 44.4243 56.6983C46.3266 57.253 47.8939 58.7383 49.2788 60.0264Z" fill="white"/>
<path d="M44.7965 59.0175C44.3721 59.6094 45.9766 61.4038 46.6579 62.2042C47.7225 63.4647 48.9378 64.59 50.2764 65.5547C52.6893 67.2731 55.377 68.5685 58.2245 69.3854C58.3361 69.4226 58.4553 69.4598 58.567 69.4896H58.6005L58.6786 69.5194C58.7046 69.5269 58.7321 69.5274 58.7584 69.5208C58.7846 69.5142 58.8086 69.5007 58.8279 69.4818C58.8472 69.4628 58.8612 69.4391 58.8683 69.413C58.8754 69.3869 58.8755 69.3594 58.8685 69.3333C58.6414 69.229 58.4218 69.1173 58.2058 68.9982C57.9899 68.8791 57.8336 68.7823 57.6363 68.6669C55.5776 67.4421 53.7907 65.7445 52.0521 64.1214C49.9748 62.2116 45.3586 58.2357 44.7965 59.0175ZM57.9304 69.0689C58.217 69.2253 58.5037 69.3705 58.7978 69.5045L58.1053 69.2774C55.6193 68.4839 53.2524 67.3568 51.0693 65.9269C49.8452 65.1137 48.712 64.1714 47.6891 63.1163C47.1398 62.5506 46.6263 61.9514 46.1516 61.3219C45.9543 61.0576 44.6625 59.4828 45.0012 59.1739C45.2432 58.9579 46.7249 59.9184 46.7584 59.9482C47.0562 60.1381 47.3466 60.3428 47.6332 60.555C48.2251 60.9868 48.791 61.4559 49.3457 61.9287C50.5519 62.9599 51.7022 64.0618 52.8711 65.1303C54.431 66.5486 56.0839 68.0191 57.9453 69.0503L57.9304 69.0689Z" fill="white"/>
<path d="M60.4206 53.91C61.7645 56.516 62.0772 59.4942 62.1182 62.3867C62.1182 63.9317 62.0847 65.4766 62.0698 67.0216C62.0698 68.3134 61.9507 69.8136 62.215 71.1576C62.215 71.2171 62.2373 71.2767 62.2522 71.3362C62.3364 71.7207 62.4612 72.095 62.6245 72.4531C62.6311 72.4637 62.6346 72.4759 62.6346 72.4884C62.6346 72.5009 62.6311 72.5132 62.6245 72.5238C62.6494 72.5568 62.6718 72.5917 62.6915 72.628C62.6964 72.633 62.6992 72.6397 62.6992 72.6467C62.6992 72.6536 62.6964 72.6603 62.6915 72.6653C62.6866 72.6702 62.6799 72.673 62.6729 72.673C62.6659 72.673 62.6592 72.6702 62.6543 72.6653L62.5575 72.5759C62.5394 72.5786 62.5209 72.5749 62.5052 72.5654C62.4896 72.5559 62.4778 72.5411 62.4719 72.5238L62.4495 72.4829L62.3564 72.3935C60.1005 70.3125 58.8347 66.8094 57.9785 63.9615C57.1223 61.1136 56.7239 58.1205 57.4685 55.2353C57.6583 54.5094 57.9785 52.7858 58.8533 52.5401C59.6388 52.2906 60.1377 53.3591 60.4206 53.91Z" fill="white"/>
<path d="M59.2298 55.5966C58.3437 55.7455 58.5336 58.1727 58.5597 58.7684C58.6757 60.564 58.9459 62.3463 59.3675 64.0956C60.0041 66.9771 60.8343 69.7356 62.3085 72.2634C62.3162 72.2975 62.3261 72.3311 62.3383 72.3639L62.4313 72.457C62.4365 72.4717 62.4441 72.4855 62.4537 72.4979C62.4603 72.5155 62.4728 72.5304 62.4891 72.5398C62.5054 72.5493 62.5244 72.5529 62.543 72.55C62.5288 72.5049 62.5176 72.4589 62.5095 72.4123C62.409 72.0586 62.3271 71.6975 62.2489 71.3327C62.2489 71.2731 62.2229 71.2136 62.2117 71.154C61.698 68.6449 61.6086 66.0538 61.4225 63.4851C61.3193 61.6969 61.0501 59.9222 60.6183 58.1839C60.5029 57.7446 59.9743 55.4737 59.2298 55.5966ZM60.0264 56.8847C61.2363 59.6842 61.2028 63.016 61.4038 66.0091C61.4892 68.033 61.7698 70.0439 62.2415 72.0139C61.0018 69.6947 60.2461 67.0999 59.6728 64.5684C59.3198 63.1084 59.0513 61.6293 58.8687 60.1384C58.7637 59.3313 58.7202 58.5174 58.7384 57.7037C58.7419 57.2142 58.8031 56.7269 58.9208 56.2518C59.226 55.377 59.8068 56.4044 60.0264 56.8847Z" fill="white"/>
<path d="M67.4196 76.3873C67.433 76.4112 67.44 76.4381 67.44 76.4655C67.44 76.4929 67.433 76.5198 67.4196 76.5437H67.4792C67.491 76.5437 67.5024 76.5484 67.5107 76.5568C67.5191 76.5651 67.5238 76.5765 67.5238 76.5883C67.5255 76.5943 67.5259 76.6005 67.5248 76.6066C67.5238 76.6126 67.5214 76.6184 67.5178 76.6234C67.5142 76.6284 67.5095 76.6325 67.5041 76.6355C67.4987 76.6384 67.4928 76.6401 67.4866 76.6405C64.0096 77.1877 60.1416 77.3478 56.7204 76.4134C55.271 76.0288 53.894 75.4101 52.644 74.5818C51.7952 74.0085 50.0865 72.8507 49.9859 71.7041C49.7924 69.396 55.9088 71.7934 56.8284 72.1545C58.5073 72.8172 60.123 73.6213 61.7871 74.3137C63.6112 75.0583 65.4838 75.6986 67.3712 76.324C67.3932 76.3399 67.41 76.3619 67.4196 76.3873Z" fill="white"/>
<path d="M67.4199 76.3873C67.2338 76.3873 67.0476 76.3538 66.8578 76.3278C63.8176 75.9884 60.8479 75.1823 58.0535 73.9378C56.666 73.2734 55.2252 72.7267 53.7462 72.3035C53.374 72.2141 52.0152 71.7823 52.2348 72.6571C52.3502 73.1076 54.5876 74.4031 55.213 74.6898C56.6139 75.3275 58.0881 75.7901 59.6021 76.0672C62.1362 76.5645 64.7224 76.7433 67.3008 76.5995H67.5241C67.5247 76.5935 67.524 76.5875 67.5219 76.5818C67.5199 76.5761 67.5166 76.5709 67.5123 76.5667C67.5081 76.5624 67.5029 76.5591 67.4972 76.5571C67.4916 76.5551 67.4855 76.5543 67.4795 76.5549H67.4199C67.4354 76.5297 67.4436 76.5007 67.4436 76.4711C67.4436 76.4415 67.4354 76.4125 67.4199 76.3873ZM60.8865 76.1193C59.3759 75.9107 57.8912 75.5451 56.4564 75.0285C55.8866 74.8128 55.3297 74.5642 54.7886 74.284C54.3633 74.072 53.954 73.8294 53.5638 73.5581C52.622 72.8731 52.447 72.6199 52.5103 72.4412C52.5624 72.3295 52.7597 72.27 53.5266 72.3928C54.0185 72.4846 54.4999 72.6255 54.9636 72.8135C55.6262 73.0629 56.2814 73.3384 56.9329 73.6213C58.2322 74.1835 59.5388 74.7642 60.8716 75.2259C62.7933 75.9019 64.7963 76.32 66.828 76.4692C64.8412 76.5171 62.8539 76.4 60.8865 76.1193Z" fill="white"/>
<path d="M67.0589 66.3963C67.888 67.3455 68.5014 68.4632 68.857 69.6723C69.6499 72.04 69.9291 74.5416 70.5546 76.9577C70.6476 77.33 70.7481 77.6762 70.8598 78.0336C70.8598 78.0708 71.1092 78.4692 71.0832 78.4468L70.7705 78.1229C69.8286 77.1364 67.0477 74.0986 65.957 72.04C65.2547 70.7685 64.7108 69.4157 64.3376 68.0119C64.1849 67.3418 63.902 65.8304 64.5646 65.3204C65.2273 64.8104 66.6084 65.9346 67.0589 66.3963Z" fill="white"/>
<path d="M65.6328 66.9804C64.7021 67.3527 66.6267 71.4477 66.8724 72.0024C67.7687 73.994 68.9214 75.86 70.3011 77.553C70.4537 77.7466 70.6101 77.9253 70.7702 78.1226L71.0792 78.4465C71.0792 78.4465 70.8744 78.0742 70.8595 78.0295L70.8037 77.8471C70.7143 77.5493 70.6287 77.2515 70.5542 76.9574C69.9437 75.3417 69.3592 73.7148 68.7152 72.1178C68.262 70.9592 67.7168 69.8388 67.0846 68.7673C66.9357 68.5067 66.0423 66.8129 65.6328 66.9804ZM66.3773 67.8292C68.4621 70.8074 69.2178 74.4147 70.5915 77.7354L70.6585 77.8955L70.4872 77.6758C69.3757 76.2526 68.4022 74.7269 67.5798 73.1192C67.0818 72.1387 66.643 71.1293 66.2656 70.0963C66.0349 69.5375 65.8409 68.9642 65.6849 68.3801C65.629 68.127 65.5062 67.4159 65.6849 67.3266C65.9343 67.1963 66.2582 67.6319 66.3959 67.8292H66.3773Z" fill="white"/>
<path d="M49.0106 42.9126C52.2866 48.3888 50.6188 55.4099 53.5225 61.0499V61.0759C53.6119 61.2472 53.7049 61.4184 53.8017 61.5897C53.811 61.6061 53.8162 61.6246 53.8167 61.6435C53.8171 61.6624 53.813 61.6812 53.8045 61.6981C53.796 61.715 53.7836 61.7296 53.7682 61.7405C53.7527 61.7515 53.7349 61.7585 53.7161 61.7609C53.699 61.7635 53.6814 61.7606 53.666 61.7525C53.6506 61.7445 53.6382 61.7318 53.6305 61.7162C53.6044 61.6753 53.5821 61.6343 53.5598 61.5934C50.9538 59.1773 48.8542 55.8976 47.3093 52.7258C45.9653 49.9635 45.0756 46.8662 45.5372 43.7912C45.6489 43.028 45.8202 41.5129 46.7397 41.2262C47.6592 40.9396 48.6048 42.2388 49.0106 42.9126Z" fill="white"/>
<path d="M47.8938 44.9228C47.5215 45.0494 47.4619 45.6152 47.4173 45.9279C47.3063 46.7024 47.29 47.4875 47.3689 48.2658C47.5273 49.8617 47.9225 51.425 48.5415 52.9044C49.5313 55.4674 50.8342 57.8982 52.4206 60.1414C52.7929 60.644 53.1652 61.1279 53.5784 61.5933L53.7273 61.7608C53.7463 61.7586 53.7645 61.7519 53.7803 61.7412C53.7962 61.7305 53.8092 61.7162 53.8183 61.6994C53.8274 61.6826 53.8324 61.6638 53.8328 61.6447C53.8331 61.6256 53.8289 61.6067 53.8204 61.5896C53.7199 61.4258 53.6342 61.262 53.5449 61.0944C53.536 61.0803 53.5285 61.0654 53.5226 61.0498C52.8582 59.9679 52.3021 58.8232 51.8622 57.6323C51.1884 55.7709 50.831 53.8165 50.4029 51.8992C50.2354 51.1435 49.2005 44.4872 47.8938 44.9228ZM48.7574 46.0396C49.4275 47.4692 49.6435 49.096 49.9822 50.6298C50.321 52.1636 50.656 53.7234 51.0283 55.2646C51.3186 56.4911 51.7134 57.6905 52.2084 58.8496C52.6199 59.8173 53.1183 60.7456 53.6975 61.6231C53.0446 60.823 52.4428 59.9824 51.8957 59.1065C51.8923 59.0956 51.8923 59.0839 51.8957 59.073C50.9381 57.5054 50.0802 55.8791 49.327 54.2036C49.3186 54.1818 49.3087 54.1607 49.2972 54.1403C48.5953 52.6822 48.0716 51.1448 47.7374 49.5614C47.564 48.6978 47.4903 47.8172 47.5178 46.9368C47.5624 45.9391 47.7039 45.1387 48.0427 45.1276C48.2325 45.1238 48.5527 45.619 48.7426 46.0434L48.7574 46.0396Z" fill="white"/>
<path d="M49.4165 54.1411C50.3137 55.7195 51.2481 57.2905 52.1937 58.8541C52.6329 59.5986 53.0797 60.3432 53.5227 61.0505C53.5286 61.0661 53.5361 61.0811 53.545 61.0952C53.7051 61.3595 53.8652 61.6276 54.0252 61.8881C55.4734 64.2819 56.9029 66.7947 58.7271 68.9241C59.7042 70.0398 60.7822 71.0629 61.9473 71.9805L62.3195 72.2635C62.3866 72.3119 62.4498 72.364 62.5206 72.4124C62.554 72.444 62.5901 72.4727 62.6285 72.498C63.6486 73.2835 64.7058 74.0169 65.737 74.7316C67.1777 75.7219 68.6743 76.593 70.1746 77.479C70.2171 77.5086 70.2619 77.5348 70.3086 77.5572C70.3756 77.5982 70.4463 77.6354 70.5133 77.6801L70.6176 77.7396L70.8111 77.8513C71.2951 78.1305 71.7753 78.4134 72.2593 78.7001L71.9503 79.1357C70.3677 78.4263 68.8408 77.5988 67.3825 76.66C67.3506 76.645 67.3206 76.6263 67.2931 76.6042C67.1517 76.5186 67.0065 76.4255 66.865 76.3324C66.7236 76.2394 66.5188 76.1128 66.3438 75.9937C65.9269 75.7182 65.5174 75.439 65.1116 75.1635C62.7588 73.5441 60.3577 71.7869 58.4479 69.6464L58.2915 69.4677L58.2245 69.3895C58.1873 69.3523 58.1501 69.3076 58.1128 69.2629L57.9379 69.0544C57.8336 68.9279 57.7331 68.7976 57.6363 68.6822L57.547 68.5705C55.9834 66.5528 54.7326 64.2335 53.478 62.0445C53.2472 61.6387 53.0238 61.2404 52.8005 60.8346L52.4282 60.1571L51.8772 59.1259C51.8738 59.115 51.8738 59.1033 51.8772 59.0924C51.0135 57.473 50.1834 55.8387 49.3085 54.223C49.249 54.1336 49.383 54.0629 49.4165 54.1411Z" fill="white"/>
</g>
<path d="M49.8263 86.4883C51.4738 88.2109 59.7607 99.4373 67.891 101.887C76.5498 104.498 84.145 105.189 87.525 103.555C96.7809 99.0752 92.8822 89.1244 86.99 87.4181C79.5807 85.2713 75.4406 86.6481 71.2286 85.4606C70.7425 85.3235 61.7672 79.0496 57.2877 77.7707C54.4297 76.9681 47.7708 84.3448 49.8263 86.4883Z" fill="#F7A9A0"/>
<path d="M58.8862 78.5732C59.1244 77.4182 58.4849 75.2225 58.7753 74.3123C59.0656 73.402 59.604 70.5897 58.5077 70.7561C57.4115 70.9225 56.0021 74.4265 55.6889 75.2258C55.3757 76.0251 52.5536 71.0563 51.0039 72.5538C49.4542 74.0513 51.8228 77.0104 51.5096 77.3171C51.1964 77.6238 48.2731 75.0561 47.0105 76.4558C45.7479 77.8554 49.2943 80.0772 49.2127 80.1914C49.1312 80.3056 47.5815 77.3236 46.3417 78.3872C45.1019 79.4508 48.0186 82.6807 47.8229 82.9385C47.6271 83.1962 45.1411 82.4524 44.3646 83.9172C43.5881 85.3821 47.7903 85.8226 48.123 85.9368C48.4558 86.0509 50.5895 87.617 51.3464 87.2418C52.1033 86.8666 58.7198 79.3921 58.8862 78.5732Z" fill="#F7A9A0"/>
<path d="M67.1211 82.9062C68.6736 83.4511 70.102 84.2996 71.3233 85.4021C71.6495 85.6729 71.9203 85.9698 72.2107 86.2602C72.501 86.5505 72.7653 86.8703 72.997 87.2096C73.4941 87.8628 73.9083 88.5751 74.2302 89.3302C73.7729 88.6635 73.2784 88.023 72.749 87.4118C72.2222 86.8068 71.6543 86.2388 71.0492 85.712C70.4503 85.1769 69.8218 84.6759 69.1667 84.2113C68.5077 83.7513 67.8323 83.3075 67.1211 82.9062Z" fill="#263238"/>
<path d="M53.1541 86.251C54.1914 85.619 55.1395 84.851 55.9729 83.9672C56.7869 83.0313 57.4656 81.9858 57.9892 80.8613C58.0348 80.7765 57.9076 80.6851 57.8652 80.7732C57.2857 81.8439 56.5791 82.8407 55.7608 83.7421C54.9791 84.6591 54.0795 85.4687 53.0855 86.1499C53.0333 86.1858 53.0953 86.2739 53.1541 86.251Z" fill="#263238"/>
<path d="M48.9126 143.424C44.456 143.577 32.7532 127.692 36.864 124.7C40.1722 122.292 53.8293 129.117 54.6155 135.238C55.1376 139.306 52.0349 143.316 48.9126 143.424Z" fill="#F7A9A0"/>
<path d="M97.1694 130.089C98.6408 137.619 91.2217 144.467 81.6885 143.185C74.2565 142.183 64.7233 135.335 64.7233 135.335C64.7233 135.335 56.2896 142.288 54.3255 143.736C51.262 145.994 42.2117 141.916 42.8413 136.268C43.2948 132.21 46.8673 120.872 59.0008 113.199C71.2353 105.457 95.1759 119.949 97.1694 130.089Z" fill="#F7A9A0"/>
<g opacity="0.1">
<path d="M48.9126 143.424C44.456 143.577 32.7532 127.692 36.864 124.7C40.1722 122.292 53.8293 129.117 54.6155 135.238C55.1376 139.306 52.0349 143.316 48.9126 143.424Z" fill="#050400"/>
<path d="M97.1689 130.089C98.6403 137.619 91.2212 144.467 81.6881 143.185C74.256 142.183 64.7228 135.335 64.7228 135.335C64.7228 135.335 56.2891 142.288 54.325 143.736C51.2615 145.994 42.2112 141.916 42.8409 136.268C43.2943 132.21 46.8668 120.872 59.0003 113.199C71.2348 105.457 95.1754 119.949 97.1689 130.089Z" fill="#050400"/>
</g>
<path d="M68.6676 137.955C66.9315 136.88 65.3877 135.521 64.1 133.936C63.4801 133.176 62.9059 132.389 62.3578 131.577C61.7364 130.712 61.1989 129.79 60.7526 128.823C60.744 128.801 60.7269 128.784 60.7052 128.774C60.6835 128.765 60.6589 128.764 60.6368 128.773C60.6148 128.781 60.597 128.798 60.5875 128.82C60.5781 128.842 60.5776 128.867 60.5862 128.889C60.7787 129.398 60.9125 129.923 61.1213 130.422C61.3427 130.914 61.5899 131.395 61.8619 131.861C62.3757 132.755 62.9934 133.585 63.702 134.334C65.1231 135.836 66.7889 137.086 68.6284 138.03C68.6676 138.053 68.71 137.981 68.6676 137.955Z" fill="#263238"/>
<path d="M44.4073 135.237C44.2743 133.727 44.3957 132.205 44.7662 130.735C44.9391 130.05 45.1512 129.384 45.3861 128.732C45.6165 128.02 45.9216 127.334 46.2964 126.686C46.3388 126.621 46.2311 126.533 46.1854 126.598C45.9734 126.905 45.7189 127.169 45.5329 127.492C45.3407 127.814 45.1675 128.148 45.0142 128.49C44.7114 129.164 44.4923 129.871 44.3617 130.598C44.1086 132.132 44.1086 133.697 44.3617 135.231C44.3486 135.27 44.4106 135.277 44.4073 135.237Z" fill="#263238"/>
<path d="M75.8874 112.546C76.0766 112.04 86.0926 115.981 95.3322 115.525C106.542 114.973 113.172 112.223 113.818 112.588C115.123 113.309 118.385 126.291 115.775 133.733C113.165 141.175 103.41 146.64 95.1006 145.755C86.7908 144.871 65.6136 140.222 75.8874 112.546Z" fill="#86C240"/>
<g opacity="0.6">
<path d="M75.8874 112.546C76.0766 112.04 86.0926 115.981 95.3322 115.525C106.542 114.973 113.172 112.223 113.818 112.588C115.123 113.309 118.385 126.291 115.775 133.733C113.165 141.175 103.41 146.64 95.1006 145.755C86.7908 144.871 65.6136 140.222 75.8874 112.546Z" fill="white"/>
</g>
<path d="M113.808 112.576C100.105 119.372 76.8337 113.881 75.8777 112.546C75.8777 112.546 74.7978 104.432 86.1417 88.4621C89.3096 83.999 101.022 84.1817 104.288 87.5747C113.061 96.6675 114.04 112.465 113.808 112.576Z" fill="#86C240"/>
<g opacity="0.6">
<path d="M113.808 112.576C100.105 119.372 76.8337 113.881 75.8777 112.546C75.8777 112.546 74.7978 104.432 86.1417 88.4621C89.3096 83.999 101.022 84.1817 104.288 87.5747C113.061 96.6675 114.04 112.465 113.808 112.576Z" fill="white"/>
</g>
<path d="M89.179 97.2614C89.6391 99.8257 91.9033 101.93 91.9033 101.93C91.9033 101.93 94.9472 101.372 96.7188 99.4538C98.1967 97.8552 98.2033 95.6627 96.8656 94.7949C94.9472 93.5486 93.3388 97.0395 93.3388 97.0395C93.3388 97.0395 93.8673 93.2354 91.577 93.255C89.9914 93.2713 88.7973 95.1211 89.179 97.2614Z" fill="#86C240"/>
<path d="M83.8871 105.144C84.7419 106.544 86.5461 107.262 86.5461 107.262C86.5461 107.262 88.2068 106.237 88.8071 104.707C89.3095 103.428 88.8071 102.143 87.8283 101.937C86.4189 101.647 86.2721 104.061 86.2721 104.061C86.2721 104.061 85.7174 101.709 84.3765 102.244C83.4663 102.619 83.1759 103.976 83.8871 105.144Z" fill="#86C240"/>
<path d="M83.3228 97.6658C83.9675 98.0811 84.7158 98.3071 85.4826 98.3183C85.9311 97.6958 86.1956 96.9599 86.2461 96.1943C86.2461 95.2873 85.6164 94.6153 84.9606 94.7295C84.021 94.8926 84.5267 96.4162 84.5267 96.4162C84.5267 96.4162 83.6034 95.1112 82.9117 95.7637C82.4289 96.2204 82.5953 97.1209 83.3228 97.6658Z" fill="#86C240"/>
<path d="M105.475 86.243C99.766 87.6851 96.2979 94.4908 100.171 100.559C104.043 106.627 112.242 105.378 114.552 100.663C117.818 93.9981 112.806 84.3932 105.475 86.243Z" fill="#86C240"/>
<path d="M134.855 70.871C134.219 73.1548 132.229 86.9815 126.222 92.9846C119.828 99.3792 113.462 103.581 109.714 103.751C99.4367 104.185 98.1675 93.5719 102.552 89.2816C108.063 83.8886 112.363 83.1415 115.518 80.1138C115.883 79.7648 120.81 69.9999 124.164 66.7374C126.307 64.6559 135.667 68.0033 134.855 70.871Z" fill="#F7A9A0"/>
<path d="M123.126 68.1823C122.372 67.2786 121.896 65.0405 121.211 64.3782C120.526 63.7159 118.718 61.4875 119.765 61.1156C120.813 60.7437 123.707 63.1645 124.362 63.7256C125.018 64.2868 125.152 58.5676 127.227 59.1581C129.302 59.7486 128.613 63.4712 129.031 63.5951C129.449 63.7191 130.816 60.0716 132.591 60.7045C134.365 61.3375 132.287 64.9785 132.418 65.0405C132.548 65.1024 132.512 61.7322 134.095 62.1042C135.677 62.4761 134.646 66.6717 134.94 66.8153C135.233 66.9588 137.073 65.1155 138.444 66.0257C139.814 66.936 136.32 69.3079 136.088 69.5656C135.856 69.8234 134.708 72.2115 133.863 72.2376C133.018 72.2637 123.664 68.8283 123.126 68.1823Z" fill="#F7A9A0"/>
<path d="M117.922 75.8945C116.813 77.1067 115.956 78.5274 115.4 80.0739C115.253 80.4588 115.142 80.8536 115.025 81.2484C114.922 81.6473 114.841 82.0513 114.78 82.4588C114.652 83.269 114.625 84.092 114.699 84.909C114.786 84.1049 114.919 83.3065 115.097 82.5175C115.273 81.741 115.505 80.9778 115.788 80.2337C116.063 79.4791 116.38 78.7406 116.738 78.0217C117.097 77.2932 117.492 76.5832 117.922 75.8945Z" fill="#263238"/>
<path d="M131.811 72.2437C130.598 72.1789 129.4 71.9507 128.248 71.5651C127.082 71.1286 125.984 70.5289 124.986 69.7838C124.908 69.7283 124.986 69.5913 125.054 69.6468C126.072 70.3202 127.167 70.868 128.317 71.278C129.439 71.7166 130.614 72.0041 131.811 72.1328C131.886 72.1198 131.876 72.2437 131.811 72.2437Z" fill="#263238"/>
<path d="M88.0051 87.7476C87.1144 88.8372 87.8354 91.0721 92.7554 91.0101C95.6917 90.9775 100.09 90.0313 100.501 87.3039C100.811 85.2615 89.6886 85.6921 88.0051 87.7476Z" fill="#86C240"/>
<path d="M86.3213 85.6854C87.9689 86.2042 88.5007 86.9154 88.8857 88.7555C89.2706 90.5956 97.29 90.6347 99.3258 87.7473C101.009 85.3494 102.171 84.674 103.515 83.9922C104.859 83.3103 86.3213 85.6854 86.3213 85.6854Z" fill="#F7A9A0"/>
<path d="M114.992 73.8363C110.989 82.2536 101.926 85.017 97.1298 85.6793C89.6912 86.7103 69.4862 85.9338 65.9104 72.5345C65.0817 69.4253 65.1405 65.0078 65.7701 60.3293C66.9773 51.3801 70.2888 41.488 73.522 38.0656C80.3733 30.8097 96.2946 28.2454 108.477 35.7818C118.284 41.8241 119.103 65.2003 114.992 73.8363Z" fill="#F7A9A0"/>
<path d="M86.9248 69.4971C86.9802 69.7464 87.0184 69.9993 87.039 70.254C87.1401 71.2654 87.0618 73.0108 85.4925 73.448C84.8956 73.598 84.2659 73.5464 83.7014 73.3012C82.1419 72.7074 80.8564 70.8184 80.8564 70.8184C84.2364 71.8396 86.9248 69.4971 86.9248 69.4971Z" fill="#263238"/>
<path d="M87.0554 70.2539C87.1565 71.2653 87.0782 73.0108 85.5089 73.4479C84.912 73.5979 84.2823 73.5463 83.7178 73.3011C83.9566 72.4514 84.4579 71.6988 85.15 71.1511C85.7005 70.698 86.3554 70.3896 87.0554 70.2539Z" fill="#FF99BA"/>
<path d="M80.4484 56.5519C79.6426 60.1994 80.0569 58.9107 79.0944 62.5224C78.2755 62.5224 74.553 62.2353 74.7977 62.5876C75.6688 63.8535 78.4224 66.1764 78.406 66.1764C77.8873 67.1324 76.1223 68.0491 76.181 68.134C80.3473 73.1876 85.1595 71.0246 86.8463 69.6576C87.1725 69.3835 87.0583 69.377 86.8463 69.4912C85.1856 70.4308 80.4321 71.6575 77.4795 68.1862C78.1861 67.6698 78.7534 66.9859 79.1303 66.196C79.176 66.0981 77.0293 64.1602 76.194 63.139C77.3261 63.1781 78.7062 63.325 79.5414 63.3641C79.7404 63.3641 80.5789 60.5355 80.7616 56.5682C80.7518 56.5353 80.7321 56.5061 80.705 56.4849C80.678 56.4636 80.6451 56.4512 80.6108 56.4494C80.5764 56.4477 80.5424 56.4565 80.5133 56.4749C80.4842 56.4932 80.4616 56.5201 80.4484 56.5519Z" fill="#263238"/>
<path d="M76.2496 59.3018C76.3995 58.8728 76.6621 58.4919 77.0098 58.1991C77.2104 58.051 77.4393 57.9457 77.6823 57.8895C77.9253 57.8334 78.1772 57.8277 78.4225 57.8728C78.6727 57.9224 78.9079 58.03 79.109 58.1869C79.3102 58.3439 79.4717 58.5458 79.5807 58.7766C79.7683 59.1851 79.8556 59.6325 79.8351 60.0816C79.8246 60.3478 79.7941 60.6128 79.7438 60.8744C79.6476 61.4211 79.4241 61.9374 79.0913 62.3817C79.189 61.9942 79.2427 61.5969 79.2511 61.1974C79.2625 60.8368 79.2472 60.4758 79.2055 60.1175C79.1141 59.3867 78.814 58.7374 78.2561 58.6689C77.6786 58.5482 77.1631 58.9397 76.8042 59.5922C76.454 60.2755 76.171 60.9912 75.9592 61.7292C75.8599 60.9085 75.9595 60.0759 76.2496 59.3018Z" fill="#263238"/>
<path d="M77.3168 57.9968C76.8209 58.2252 76.3054 58.6819 75.7507 58.6493C75.0982 58.6232 74.71 57.9968 74.3707 57.4324C74.3348 57.3704 74.2859 57.4095 74.2728 57.478C74.1195 58.4568 74.3576 59.5432 75.4016 59.8401C76.3543 60.1142 77.1765 59.3312 77.5647 58.3687C77.6365 58.2154 77.5158 57.8891 77.3168 57.9968Z" fill="#263238"/>
<path d="M103.342 43.9813C100.99 44.9079 98.8005 45.7953 96.2426 46.0661C93.5839 46.3462 90.8961 46.1148 88.3244 45.3842C84.2234 44.2325 79.8418 42.0662 75.6396 43.89C75.6331 43.893 75.6281 43.8985 75.6256 43.9052C75.6232 43.912 75.6235 43.9194 75.6266 43.9259C75.6296 43.9324 75.6351 43.9374 75.6418 43.9398C75.6485 43.9423 75.656 43.9419 75.6624 43.9389C81.1174 42.2196 86.0471 46.4185 91.3227 47.1297C95.3911 47.6713 100.304 46.8883 103.521 44.288C103.694 44.1542 103.531 43.9063 103.342 43.9813Z" fill="#263238"/>
<path d="M109.541 67.5196C108.978 65.7647 107.984 64.1788 106.65 62.9064C105.019 61.3175 103.345 59.9896 102.298 57.9179C100.044 53.4613 100.595 48.1498 102.602 43.7682C102.657 43.6443 102.445 43.5301 102.377 43.654C100.207 47.4973 99.114 51.843 100.605 56.1888C101.288 58.1355 102.437 59.8852 103.952 61.2849C106.102 63.2946 108.164 64.7888 109.313 67.5881C109.362 67.7121 109.583 67.6468 109.541 67.5196Z" fill="#263238"/>
<path d="M113.133 75.076C111.443 74.5083 107.834 71.1609 107.912 67.8984C107.991 64.6358 106.35 62.7794 106.056 61.9638C105.762 61.1482 99.3418 57.8465 101.58 45.3541C101.58 45.3541 94.7057 46.9332 87.5215 43.9806C79.3652 40.6202 72.6737 43.3281 69.2088 46.173C67.4862 47.5857 69.9788 35.9808 80.3407 31.7167C84.794 29.8831 88.4971 29.8016 91.2604 29.2078C92.4577 28.9698 93.6053 28.5284 94.6535 27.9028C97.1526 25.8506 98.0563 22.4315 96.1314 19.6387C92.3501 14.1674 84.3406 14.2947 80.1449 18.9503C80.1156 18.9862 80.047 18.9503 80.0764 18.9112C81.0788 17.6773 82.3498 16.6886 83.7924 16.0205C83.7924 16.001 83.7924 15.9879 83.7924 15.9781C85.1921 15.2956 86.6783 14.8071 88.2099 14.5263C85.8738 14.8839 83.6394 15.7299 81.6522 17.0091C81.6 17.045 81.525 16.9634 81.5804 16.921C84.8006 14.5883 89.5247 13.1528 93.74 13.8346C90.6627 12.9958 87.3898 13.2483 84.4776 14.5491C84.4221 14.5752 84.3862 14.4904 84.4384 14.461C88.0044 12.4154 93.4235 12.2425 97.0351 14.461C97.9875 15.0399 98.7883 15.8373 99.3711 16.7872C100.177 17.7601 100.762 18.8968 101.084 20.1183C104.816 15.1494 112.095 12.8657 118.092 16.7416C118.167 16.7938 118.092 16.9047 118.007 16.859C116.02 15.6731 113.729 15.0954 111.417 15.1975C109.105 15.2995 106.874 16.0768 104.999 17.4332C104.031 18.1164 103.167 18.9349 102.431 19.8638C102.775 19.5685 103.138 19.2971 103.518 19.0515C108.278 16.0336 114.535 17.8541 118.421 21.5212C118.427 21.5271 118.429 21.5348 118.43 21.5427C118.43 21.5507 118.427 21.5584 118.422 21.5644C118.416 21.5704 118.409 21.5743 118.401 21.5754C118.393 21.5764 118.385 21.5746 118.379 21.5701C117.47 20.883 116.505 20.273 115.495 19.7464C116.332 20.2212 117.08 20.8397 117.703 21.5734C117.711 21.5795 117.715 21.5882 117.716 21.5977C117.717 21.6072 117.714 21.6166 117.708 21.624C117.702 21.6313 117.694 21.636 117.684 21.6369C117.675 21.6378 117.665 21.6349 117.658 21.6289C116.665 20.7988 115.516 20.1774 114.278 19.8018C115.982 20.522 117.468 21.6761 118.588 23.1492C118.607 23.1747 118.616 23.2071 118.612 23.2393C118.608 23.2714 118.592 23.3006 118.566 23.3205C118.541 23.3404 118.508 23.3493 118.476 23.3454C118.444 23.3414 118.415 23.3248 118.395 23.2993C115.681 20.0106 111.087 18.6567 107.136 20.4119C106.752 20.589 106.382 20.7929 106.027 21.022C105.354 21.492 104.738 22.0395 104.193 22.6533C103.661 23.3482 103.345 24.1846 103.286 25.0578C103.284 25.0904 103.284 25.1231 103.286 25.1557C103.263 25.6178 103.295 26.0811 103.381 26.5357C103.381 26.5618 103.4 26.5912 103.407 26.614C103.439 26.7814 103.481 26.947 103.531 27.11C103.56 27.2307 103.603 27.3546 103.645 27.4819C103.668 27.5439 103.687 27.6059 103.714 27.6646C104.285 29.2404 105.573 31.4231 108.451 33.9026C112.382 37.2793 124.258 43.4521 121.149 61.2069C119.785 68.9815 113.133 75.076 113.133 75.076Z" fill="#263238"/>
<path d="M96.6826 19.6511C94.1639 15.4653 87.815 14.8878 83.8119 17.276C83.7303 17.3249 83.789 17.4587 83.8771 17.413C87.5051 15.4555 93.1917 16.1243 95.606 19.6446C98.3074 23.5792 96.6011 27.9902 92.6012 30.1337C92.5553 30.1549 92.5198 30.1935 92.5023 30.2409C92.4849 30.2883 92.487 30.3407 92.5082 30.3866C92.5294 30.4324 92.5679 30.468 92.6154 30.4854C92.6628 30.5029 92.7152 30.5007 92.761 30.4795C97.1035 28.6166 99.2111 23.8533 96.6826 19.6511Z" fill="#263238"/>
<path d="M113.929 21.5963C113.937 21.5969 113.945 21.5948 113.951 21.5905C113.958 21.5861 113.963 21.5798 113.965 21.5724C113.968 21.565 113.968 21.557 113.965 21.5495C113.963 21.542 113.958 21.5356 113.952 21.5311C110.634 20.275 104.999 19.7367 103.065 23.4886C101.052 27.3809 103.45 32.2029 107.065 34.1604C107.267 34.2714 107.583 34.0234 107.374 33.8342C104.781 31.384 102.337 28.3759 103.489 24.5392C104.768 20.2522 110.51 20.4675 113.929 21.5963Z" fill="#263238"/>
<path d="M122.907 53.3636C122.056 46.2708 117.035 40.8256 111.518 36.7246C116.623 41.0573 121.354 45.912 122.18 52.871C122.617 56.5772 122.672 60.7761 121.015 64.1953C119.357 67.6145 116.398 70.1527 113.619 72.6942C113.568 72.7375 113.537 72.7991 113.531 72.8655C113.526 72.9319 113.548 72.9976 113.591 73.0482C113.634 73.0988 113.696 73.1302 113.762 73.1354C113.829 73.1406 113.894 73.1192 113.945 73.076C116.881 70.7139 119.818 68.1234 121.586 64.7401C123.357 61.3047 123.361 57.1286 122.907 53.3636Z" fill="#263238"/>
<path d="M93.9455 28.5879C91.4594 29.8342 88.6569 29.8505 85.9326 30.0724C83.0812 30.3007 79.7338 30.7249 77.1237 31.932C72.8106 33.9287 69.1794 39.3348 69.7863 44.1144C69.8124 44.3167 70.1582 44.3101 70.1549 44.0981C70.106 41.1618 71.2218 38.4408 73.0292 36.1472C75.0879 33.5372 77.4924 32.2322 80.7321 31.459C83.206 30.9087 85.7123 30.5164 88.236 30.2844C90.3305 30.0691 92.1706 29.72 93.9748 28.6532C94.0074 28.6271 93.9813 28.5716 93.9455 28.5879Z" fill="#263238"/>
<path d="M116.213 79.5518C112.017 75.8325 116.32 70.5047 118.532 66.8931C118.597 66.7919 118.447 66.681 118.379 66.7821C115.968 70.3253 110.395 76.3218 116.01 79.8323C116.047 79.8592 116.094 79.8701 116.139 79.8628C116.184 79.8554 116.225 79.8304 116.252 79.7932C116.279 79.756 116.289 79.7096 116.282 79.6644C116.275 79.6191 116.25 79.5786 116.213 79.5518Z" fill="#263238"/>
<path d="M113.289 80.4915C111.658 77.0854 113.289 73.4378 115.181 70.5342C115.216 70.4787 115.228 70.4122 115.215 70.3481C115.202 70.284 115.166 70.2272 115.113 70.1891C115.06 70.151 114.994 70.1344 114.93 70.1427C114.865 70.1511 114.806 70.1837 114.764 70.234C112.48 73.3432 111.328 76.9516 113.198 80.5306C113.227 80.5861 113.315 80.5469 113.289 80.4915Z" fill="#263238"/>
<path d="M116.32 77.9571C113.117 74.8087 117.107 69.9475 118.855 67.1711C118.993 66.9557 118.676 66.698 118.5 66.8938C116.422 69.2265 112.275 75.4808 116.265 78.0256C116.274 78.0296 116.284 78.0305 116.294 78.0282C116.304 78.0258 116.313 78.0203 116.319 78.0125C116.325 78.0047 116.329 77.9951 116.329 77.9851C116.329 77.975 116.326 77.9652 116.32 77.9571Z" fill="#263238"/>
<path d="M107.169 65.9376C107.169 65.9376 111.867 58.9133 116.223 59.1156C120.829 59.3342 121.048 67.7549 117.606 70.9358C113.564 74.6715 108.03 72.6911 108.03 72.6911L107.169 65.9376Z" fill="#F7A9A0"/>
<path d="M114.405 63.8859C115.113 63.3418 115.885 62.8881 116.705 62.5352C116.725 62.525 116.741 62.5076 116.749 62.4865C116.757 62.4654 116.757 62.442 116.749 62.4209C116.741 62.3997 116.725 62.3824 116.705 62.3722C116.685 62.3619 116.662 62.3596 116.64 62.3655C113.244 63.4161 109.929 66.6068 110.072 70.4305C110.073 70.4589 110.084 70.486 110.102 70.5072C110.121 70.5285 110.147 70.5425 110.175 70.5467C110.203 70.551 110.231 70.5453 110.256 70.5306C110.28 70.5159 110.298 70.4932 110.307 70.4664C110.418 70.1402 110.527 69.8139 110.634 69.4877C111.286 68.6296 111.88 67.8564 112.881 67.305C113.84 66.7909 114.92 66.5463 116.007 66.597C116.134 66.597 116.131 66.4209 116.007 66.4046C115.172 66.2843 114.32 66.3428 113.509 66.5763C112.698 66.8097 111.946 67.2126 111.302 67.7585C111.657 66.9416 112.126 66.1793 112.695 65.4943C113.201 64.8901 113.771 64.3431 114.395 63.863" fill="#263238"/>
<path d="M108.973 72.6094C108.947 72.6094 108.937 72.6453 108.973 72.6518C109.009 72.6583 108.999 72.6159 108.973 72.6094Z" fill="#263238"/>
<path d="M97.544 26.0949C97.544 26.0949 94.213 15.4427 92.4708 18.8227C90.7285 22.2027 91.7301 24.6953 91.7301 24.6953C91.7301 24.6953 89.1201 28.2449 90.1706 29.4032C91.2212 30.5614 96.6207 29.3477 96.9959 28.3754C97.2547 27.6356 97.4383 26.8716 97.544 26.0949Z" fill="#86C240"/>
<path opacity="0.1" d="M97.5445 26.0925C97.4378 26.8697 97.2553 27.6346 96.9996 28.3763C96.8104 28.8429 95.4662 29.3747 93.9915 29.6618C93.886 28.6568 93.8784 27.6439 93.9687 26.6374C94.1286 25.4074 95.8251 24.0273 96.6179 23.4531C97.1693 24.918 97.5445 26.0925 97.5445 26.0925Z" fill="#050400"/>
<path d="M99.3096 26.5679C99.3096 26.5679 109.822 18.5551 110.22 22.692C110.618 26.8289 107.844 28.5972 107.844 28.5972C107.844 28.5972 109.293 33.3899 107.238 33.8728C105.182 34.3556 98.6832 30.1371 98.7386 29.0181C98.815 28.1789 99.0072 27.3544 99.3096 26.5679Z" fill="#86C240"/>
<path opacity="0.1" d="M101.835 28.7845C101.629 29.6173 101.223 30.3876 100.654 31.0291C99.5149 30.2037 98.696 29.4174 98.7254 29.0194C98.8052 28.1805 99.0018 27.3569 99.3094 26.5724C99.3094 26.5724 100.004 26.0472 101.032 25.3359C101.427 26.0765 102.063 27.5121 101.835 28.7845Z" fill="#050400"/>
<path d="M100.739 28.3407C100.601 28.9168 100.296 29.4393 99.862 29.8421C99.4279 30.2449 98.884 30.5099 98.2992 30.6036C97.7145 30.6974 97.115 30.6157 96.5767 30.3688C96.0383 30.122 95.5853 29.721 95.2748 29.2167C94.9642 28.7124 94.8102 28.1274 94.8321 27.5355C94.8541 26.9437 95.051 26.3716 95.3979 25.8917C95.7449 25.4117 96.2264 25.0454 96.7815 24.8391C97.3367 24.6327 97.9405 24.5956 98.5167 24.7323C98.8996 24.8232 99.2609 24.9887 99.5798 25.2192C99.8987 25.4498 100.169 25.741 100.375 26.0761C100.582 26.4112 100.72 26.7837 100.782 27.1722C100.845 27.5608 100.83 27.9579 100.739 28.3407Z" fill="#86C240"/>
<path opacity="0.5" d="M70.6414 66.7524C72.3765 66.7524 73.7832 65.3458 73.7832 63.6106C73.7832 61.8754 72.3765 60.4688 70.6414 60.4688C68.9062 60.4688 67.4995 61.8754 67.4995 63.6106C67.4995 65.3458 68.9062 66.7524 70.6414 66.7524Z" fill="#FF99BA"/>
<path opacity="0.5" d="M99.6359 69.9446C101.548 69.9446 103.097 68.3948 103.097 66.4831C103.097 64.5713 101.548 63.0215 99.6359 63.0215C97.7241 63.0215 96.1743 64.5713 96.1743 66.4831C96.1743 68.3948 97.7241 69.9446 99.6359 69.9446Z" fill="#FF99BA"/>
<path d="M87.7273 117.92C95.0941 114.197 105.998 116.941 111.051 125.274C116.105 133.606 111.234 148.183 93.6684 146.066C76.1028 143.948 77.4829 123.088 87.7273 117.92Z" fill="#86C240"/>
<path d="M66.0706 150.545C61.7281 151.55 47.1935 138.206 50.6485 134.484C53.4511 131.482 68.1521 135.554 70.0901 141.41C71.3951 145.302 69.1113 149.837 66.0706 150.545Z" fill="#F7A9A0"/>
<path d="M91.8609 114.866C98.5557 116.758 110.183 123.12 110.725 130.774C111.267 138.428 105.348 145.377 95.7727 144.477C88.3048 143.769 79.0326 139.358 79.0326 139.358C79.0326 139.358 75.9625 145.283 74.005 147.25C71.3264 149.955 64.4979 152.76 61.1766 148.147C58.8015 144.852 58.733 123.737 70.9056 116.122C77.832 111.783 84.1809 112.7 91.8609 114.866Z" fill="#F7A9A0"/>
<path d="M81.8351 132.004C81.6858 133.493 81.2957 134.947 80.6802 136.311C80.3963 136.927 80.0831 137.511 79.7503 138.079C79.4164 138.695 79.0136 139.27 78.5497 139.795C78.5008 139.847 78.5824 139.968 78.6346 139.919C78.8858 139.687 79.1631 139.505 79.398 139.267C80.1097 138.485 80.6636 137.573 81.0293 136.581C81.5525 135.122 81.8464 133.59 81.9004 132.04C81.8775 131.988 81.8351 131.965 81.8351 132.004Z" fill="#263238"/>
<path d="M61.9568 143.077C61.2774 141.721 60.8286 140.261 60.629 138.758C60.5376 138.059 60.4887 137.364 60.4658 136.669C60.4174 135.923 60.448 135.174 60.5572 134.435C60.5735 134.356 60.4397 134.314 60.4202 134.392C60.3353 134.754 60.1983 135.094 60.1331 135.466C60.0746 135.837 60.0376 136.212 60.0221 136.588C59.9898 137.324 60.0501 138.062 60.2016 138.784C60.5264 140.304 61.0984 141.761 61.8948 143.097C61.934 143.129 61.9764 143.113 61.9568 143.077Z" fill="#263238"/>
<path d="M96.7164 60.6355C96.7165 60.8567 96.621 61.0693 96.45 61.228C96.2791 61.3866 96.0464 61.479 95.8012 61.4853C95.6814 61.493 95.5612 61.479 95.4476 61.4442C95.334 61.4094 95.2292 61.3545 95.1394 61.2826C95.0497 61.2107 94.9768 61.1234 94.925 61.0258C94.8732 60.9281 94.8436 60.8221 94.8379 60.714C94.8369 60.4946 94.93 60.2833 95.0978 60.1244C95.2656 59.9655 95.4951 59.8713 95.7381 59.8615C95.8593 59.8519 95.9814 59.8645 96.0969 59.8987C96.2125 59.9328 96.3193 59.9876 96.4107 60.06C96.5021 60.1323 96.5763 60.2206 96.6289 60.3195C96.6814 60.4184 96.7112 60.5259 96.7164 60.6355Z" fill="#263238"/>
<path d="M96.7463 59.126C96.6263 59.2369 95.9181 58.7552 94.9068 58.7498C93.8955 58.7444 93.1483 59.199 93.0403 59.0854C92.9863 59.0367 93.1063 58.8364 93.4334 58.628C93.8745 58.3551 94.399 58.2132 94.9338 58.2221C95.4598 58.224 95.9716 58.3765 96.3952 58.6578C96.6983 58.877 96.8093 59.0773 96.7463 59.126Z" fill="#263238"/>
<rect x="72.9395" y="56.2773" width="9.72007" height="6.48005" fill="#F7A9A0"/>
<path d="M77.2765 58.0427C77.2766 58.264 77.181 58.4765 77.0101 58.6352C76.8392 58.7939 76.6064 58.8862 76.3612 58.8925C76.2415 58.9002 76.1213 58.8862 76.0077 58.8514C75.894 58.8166 75.7892 58.7617 75.6995 58.6898C75.6097 58.618 75.5368 58.5306 75.485 58.433C75.4333 58.3353 75.4037 58.2293 75.398 58.1212C75.3969 57.9018 75.4901 57.6905 75.6579 57.5316C75.8257 57.3727 76.0551 57.2785 76.2982 57.2687C76.4194 57.2591 76.5414 57.2718 76.657 57.3059C76.7726 57.34 76.8793 57.3949 76.9707 57.4672C77.0622 57.5395 77.1364 57.6278 77.1889 57.7267C77.2415 57.8257 77.2713 57.9332 77.2765 58.0427Z" fill="#263238"/>
<path d="M77.3063 56.5332C77.1863 56.6442 76.4781 56.1624 75.4669 56.157C74.4556 56.1516 73.7084 56.6063 73.6003 56.4926C73.5463 56.4439 73.6664 56.2436 73.9934 56.0352C74.4345 55.7623 74.9591 55.6204 75.4939 55.6293C76.0199 55.6312 76.5316 55.7838 76.9553 56.065C77.2583 56.2842 77.3694 56.4845 77.3063 56.5332Z" fill="#263238"/>
</svg>
