<svg width="221" height="149" viewBox="0 0 221 149" fill="none" xmlns="http://www.w3.org/2000/svg">
<path opacity="0.2" d="M147.111 148.939C163.044 148.939 175.96 145.029 175.96 140.205C175.96 135.381 163.044 131.471 147.111 131.471C131.177 131.471 118.261 135.381 118.261 140.205C118.261 145.029 131.177 148.939 147.111 148.939Z" fill="black"/>
<path d="M169.655 70.1143L169.772 70.4848C170.116 71.6229 171.084 75.0901 170.666 76.5564C170.137 78.3244 167.633 78.7055 165.108 77.5674C162.583 76.4293 161.694 72.3852 161.694 72.3852L169.655 70.1143Z" fill="white" stroke="#263238" stroke-linecap="round" stroke-linejoin="round"/>
<path d="M131.151 142.266C131.136 142.374 131.091 142.475 131.02 142.558C130.948 142.64 130.855 142.7 130.75 142.73C130.645 142.76 130.534 142.759 130.43 142.727C130.326 142.695 130.233 142.634 130.164 142.55C130.094 142.467 130.05 142.364 130.037 142.256C130.025 142.148 130.044 142.038 130.092 141.941C130.141 141.843 130.217 141.762 130.311 141.707C130.405 141.652 130.513 141.625 130.622 141.631C130.774 141.649 130.914 141.725 131.012 141.843C131.11 141.961 131.16 142.112 131.151 142.266Z" fill="white" stroke="#263238" stroke-linecap="round" stroke-linejoin="round"/>
<path d="M136.815 142.354C136.799 142.462 136.753 142.562 136.681 142.644C136.61 142.726 136.516 142.785 136.411 142.814C136.306 142.844 136.196 142.842 136.092 142.81C135.988 142.777 135.896 142.715 135.827 142.631C135.758 142.548 135.714 142.446 135.702 142.338C135.69 142.23 135.709 142.12 135.757 142.023C135.806 141.926 135.882 141.845 135.975 141.79C136.069 141.735 136.177 141.708 136.285 141.713C136.439 141.731 136.581 141.807 136.679 141.927C136.778 142.046 136.827 142.199 136.815 142.354Z" fill="white" stroke="#263238" stroke-linecap="round" stroke-linejoin="round"/>
<path d="M144.141 138.008C144.125 138.116 144.079 138.217 144.007 138.298C143.936 138.38 143.842 138.439 143.737 138.468C143.633 138.498 143.522 138.496 143.418 138.464C143.314 138.431 143.222 138.369 143.153 138.286C143.084 138.202 143.04 138.1 143.028 137.992C143.016 137.884 143.035 137.775 143.084 137.678C143.132 137.58 143.208 137.499 143.302 137.444C143.395 137.389 143.503 137.363 143.612 137.368C143.766 137.385 143.907 137.462 144.006 137.581C144.104 137.701 144.153 137.854 144.141 138.008Z" fill="white" stroke="#263238" stroke-linecap="round" stroke-linejoin="round"/>
<path d="M135.173 133.704C135.173 133.704 132.706 135.748 131.256 137.198C129.805 138.648 127.931 139.495 128.784 140.861C129.636 142.227 131.679 142.735 135.348 142.481C139.016 142.227 140.54 139.157 142.589 138.22C144.638 137.283 146.083 137.69 146.76 135.917C147.438 134.144 146.506 131.83 146.506 131.83C146.506 131.83 147.104 130.38 146.591 129.713C146.232 129.322 145.768 129.042 145.255 128.907C144.742 128.771 144.2 128.787 143.695 128.951C142.483 129.274 137.026 131.402 135.173 133.704Z" fill="#263238" stroke="#263238" stroke-linecap="round" stroke-linejoin="round"/>
<path d="M139.752 139.24C137.794 140.691 137.026 141.284 133.448 141.453C130.605 141.591 129.166 140.225 128.684 139.653C128.581 139.841 128.533 140.053 128.545 140.267C128.557 140.48 128.629 140.686 128.753 140.86C129.605 142.221 131.648 142.734 135.317 142.48C138.985 142.226 140.509 139.156 142.558 138.219C144.607 137.282 146.052 137.689 146.729 135.916C146.913 135.408 146.997 134.868 146.978 134.328C146.703 134.46 146.343 134.64 145.877 134.884C144.612 135.577 141.716 137.79 139.752 139.24Z" fill="white" stroke="#263238" stroke-linecap="round" stroke-linejoin="round"/>
<path d="M135.92 118.963L138.138 131.064C138.138 131.064 138.731 132.853 140.181 133.182C141.632 133.51 144.781 131.567 144.945 130.625C145.109 129.683 144.776 117.762 144.776 117.762C144.776 117.762 139.244 119.477 135.92 118.963Z" fill="#86C240" stroke="#263238" stroke-linecap="round" stroke-linejoin="round"/>
<path d="M144.845 120.132C144.808 118.735 144.781 117.771 144.781 117.771C144.781 117.771 139.244 119.476 135.92 118.963L136.328 121.196C137.725 121.736 139.234 121.922 140.72 121.736C142.206 121.55 143.623 120.999 144.845 120.132Z" fill="#263238" stroke="#263238" stroke-miterlimit="10"/>
<path d="M136.518 130.126C136.917 129.954 137.354 129.887 137.787 129.931C138.22 129.976 138.634 130.13 138.99 130.38C140.35 131.233 141.541 131.746 141.541 132.424C141.541 133.101 140.266 135.917 139.424 136.346C138.582 136.775 136.015 134.896 135.248 134.472C134.48 134.049 136.518 130.126 136.518 130.126Z" fill="white" stroke="#263238" stroke-linecap="round" stroke-linejoin="round"/>
<path d="M165.998 142.058C166.016 142.165 166.065 142.263 166.138 142.343C166.211 142.422 166.306 142.479 166.41 142.506C166.514 142.533 166.624 142.529 166.727 142.495C166.829 142.461 166.92 142.399 166.987 142.315C167.055 142.231 167.097 142.129 167.109 142.022C167.12 141.914 167.1 141.806 167.052 141.71C167.003 141.613 166.928 141.533 166.835 141.479C166.742 141.424 166.635 141.397 166.527 141.402C166.37 141.419 166.226 141.498 166.127 141.621C166.028 141.744 165.982 141.901 165.998 142.058Z" fill="white" stroke="#263238" stroke-linecap="round" stroke-linejoin="round"/>
<path d="M160.339 142.312C160.357 142.418 160.406 142.517 160.479 142.597C160.552 142.676 160.646 142.732 160.751 142.76C160.855 142.787 160.965 142.783 161.068 142.749C161.17 142.715 161.261 142.653 161.328 142.569C161.396 142.485 161.438 142.383 161.449 142.276C161.461 142.168 161.441 142.06 161.393 141.964C161.344 141.867 161.269 141.787 161.176 141.733C161.083 141.678 160.976 141.651 160.868 141.656C160.711 141.673 160.567 141.752 160.468 141.875C160.369 141.998 160.322 142.155 160.339 142.312Z" fill="white" stroke="#263238" stroke-linecap="round" stroke-linejoin="round"/>
<path d="M152.87 138.215C152.888 138.322 152.937 138.421 153.01 138.5C153.083 138.579 153.178 138.636 153.282 138.663C153.386 138.69 153.496 138.686 153.599 138.652C153.701 138.619 153.792 138.556 153.86 138.472C153.927 138.388 153.969 138.286 153.981 138.179C153.992 138.072 153.972 137.963 153.924 137.867C153.875 137.771 153.8 137.69 153.707 137.636C153.614 137.581 153.507 137.555 153.399 137.559C153.242 137.576 153.098 137.655 152.999 137.778C152.9 137.901 152.854 138.058 152.87 138.215Z" fill="white" stroke="#263238" stroke-linecap="round" stroke-linejoin="round"/>
<path d="M161.71 133.615C161.71 133.615 164.245 135.573 165.744 136.976C167.242 138.379 169.142 139.162 168.337 140.554C167.533 141.947 165.505 142.524 161.832 142.391C158.158 142.259 156.538 139.242 154.453 138.373C152.367 137.505 150.943 137.982 150.218 136.214C149.493 134.446 150.34 132.122 150.34 132.122C150.34 132.122 149.694 130.693 150.181 130.005C150.526 129.601 150.98 129.304 151.489 129.151C151.997 128.998 152.539 128.995 153.05 129.142C154.23 129.433 159.762 131.381 161.71 133.615Z" fill="#263238" stroke="#263238" stroke-linecap="round" stroke-linejoin="round"/>
<path d="M157.295 139.305C159.301 140.687 160.09 141.253 163.647 141.306C166.49 141.349 167.882 139.93 168.342 139.348C168.45 139.532 168.504 139.742 168.499 139.956C168.493 140.169 168.428 140.376 168.31 140.555C167.501 141.947 165.478 142.524 161.805 142.391C158.131 142.259 156.511 139.242 154.426 138.374C152.34 137.506 150.916 137.982 150.191 136.214C149.993 135.708 149.893 135.169 149.895 134.626C150.175 134.748 150.54 134.912 151.011 135.155C152.319 135.806 155.289 137.924 157.295 139.305Z" fill="white" stroke="#263238" stroke-linecap="round" stroke-linejoin="round"/>
<path d="M160.46 117.708L158.639 131.095C158.639 131.095 158.11 132.905 156.67 133.292C155.23 133.678 152.017 131.831 151.816 130.899C151.615 129.968 151.557 118.036 151.557 118.036C151.557 118.036 157.152 118.311 160.46 117.708Z" fill="#86C240" stroke="#263238" stroke-linecap="round" stroke-linejoin="round"/>
<path d="M160.053 120.668L160.46 117.688C157.152 118.312 151.557 118.016 151.557 118.016C151.557 118.016 151.557 119.265 151.557 120.985C154.354 121.754 157.32 121.643 160.053 120.668Z" fill="#263238" stroke="#263238" stroke-miterlimit="10"/>
<path d="M160.227 130.084C159.822 129.925 159.383 129.873 158.952 129.932C158.521 129.991 158.113 130.16 157.766 130.423C156.432 131.317 155.257 131.868 155.283 132.54C155.31 133.212 156.675 135.991 157.538 136.388C158.401 136.785 160.9 134.827 161.651 134.372C162.403 133.916 160.227 130.084 160.227 130.084Z" fill="white" stroke="#263238" stroke-linecap="round" stroke-linejoin="round"/>
<path d="M130.869 82.2413C130.869 82.2413 131.499 96.0042 131.753 99.2968C132.008 102.589 132.764 109.148 132.764 113.319C132.764 117.49 134.532 120.396 137.566 120.518C140.599 120.64 145.273 120.142 145.903 117.871C146.533 115.601 145.273 106.882 145.273 106.882L145.146 97.9099L146.533 98.291C146.533 98.291 148.428 116.358 148.936 117.877C149.444 119.396 151.207 119.645 153.864 119.899C156.521 120.153 159.925 119.37 160.936 118.761C161.947 118.152 162.328 117.12 162.455 115.855C162.582 114.59 162.455 96.4012 162.455 96.4012L161.82 82.3789C161.82 82.3789 150.704 84.1469 144.516 84.1469C138.328 84.1469 131.753 81.2408 131.753 81.2408C131.753 81.2408 130.488 80.9761 130.869 82.2413Z" fill="white" stroke="#263238" stroke-linecap="round" stroke-linejoin="round"/>
<path d="M161.91 84.3601L161.841 82.7456C161.741 82.6344 161.64 82.518 161.529 82.4015C159.745 82.6768 150.116 84.1272 144.516 84.1272C138.323 84.1272 131.753 81.2211 131.753 81.2211C131.753 81.2211 130.488 80.967 130.869 82.2321L130.965 84.2701C132.717 85.4452 137.264 87.822 145.522 87.9173C154.759 88.0337 160.084 85.3711 161.91 84.3601Z" fill="#263238" stroke="#263238" stroke-miterlimit="10"/>
<path d="M146.578 85.8768L141.527 85.6836L141.44 87.9581L146.491 88.1513L146.578 85.8768Z" fill="white" stroke="#263238" stroke-linecap="round" stroke-linejoin="round"/>
<path d="M154.775 87.3721L154.664 85.1436L155.723 84.9795L155.834 87.208" fill="white"/>
<path d="M154.775 87.3721L154.664 85.1436L155.723 84.9795L155.834 87.208" stroke="#263238" stroke-linecap="round" stroke-linejoin="round"/>
<path d="M137.439 87.207V85.2008L136.1 85.1426L136.269 87.207" fill="white"/>
<path d="M137.439 87.207V85.2008L136.1 85.1426L136.269 87.207" stroke="#263238" stroke-linecap="round" stroke-linejoin="round"/>
<path d="M145.019 44.0881C145.019 44.0881 131.256 50.1544 131.256 50.7843C131.256 51.4142 121.411 67.464 121.411 67.464L130.759 70.1107C130.759 70.1107 129.621 77.1828 129.621 79.4589C129.621 81.7351 130.632 83.3761 133.411 84.6359C136.19 85.8958 148.195 86.9121 151.732 86.2822C155.268 85.6523 161.71 84.3871 162.345 82.6191C162.98 80.8511 162.345 73.5197 162.345 73.5197L171.931 71.127C171.931 71.127 166.246 56.0937 165.484 54.4474C164.722 52.8011 154.23 44.5963 154.114 44.0881C153.997 43.5799 151.843 43.834 150.832 43.834C149.821 43.834 145.019 44.0881 145.019 44.0881Z" fill="white" stroke="#263238" stroke-linecap="round" stroke-linejoin="round"/>
<path d="M170.64 67.6533L159.095 72.0522L159.762 74.0002L171.937 71.1258L170.64 67.6533Z" fill="#86C240" stroke="#263238" stroke-linecap="round" stroke-linejoin="round"/>
<path d="M123.528 63.9795C122.289 66.0175 121.411 67.4626 121.411 67.4626L130.595 70.067L131.399 65.6628L123.528 63.9795Z" fill="#86C240" stroke="#263238" stroke-linecap="round" stroke-linejoin="round"/>
<path d="M130.871 69.6064L133.396 58.6172" stroke="#263238" stroke-linecap="round" stroke-linejoin="round"/>
<path d="M156.087 45.902C155.378 45.3556 154.717 44.748 154.113 44.0864C153.991 43.557 151.842 43.8323 150.831 43.8323C149.82 43.8323 145.008 44.0864 145.008 44.0864L142.478 45.2139C142.356 46.1243 142.182 47.6912 142.102 49.6445C142.054 51.6052 142.58 53.5371 143.616 55.2026C143.616 55.2026 152.086 49.6445 153.472 48.3846C154.346 47.5959 155.41 46.5637 156.087 45.902Z" fill="#86C240" stroke="#263238" stroke-linecap="round" stroke-linejoin="round"/>
<path d="M144.638 42.0655C144.638 42.0655 143.379 48.7617 143.506 50.2809C143.633 51.8002 144.638 51.292 145.904 50.7838C147.169 50.2756 154.114 44.0876 154.114 44.0876V40.8057L145.02 41.0545L144.638 42.0655Z" fill="white" stroke="#263238" stroke-linecap="round" stroke-linejoin="round"/>
<path d="M144.575 42.4243C144.448 43.1177 144.157 44.7269 143.908 46.3414C145.428 46.7511 147.017 46.8365 148.572 46.5921C150.127 46.3477 151.613 45.779 152.934 44.9228C156.448 42.726 149.588 42.3978 144.575 42.4243Z" fill="#263238" stroke="#263238" stroke-miterlimit="10"/>
<path d="M159.169 70.9979L158.158 60.7656" stroke="#263238" stroke-linecap="round" stroke-linejoin="round"/>
<path d="M134.031 64.3033L131.251 67.9504H124.301C122.406 67.9504 121.014 69.9725 120.765 72.1217C120.516 74.2708 123.29 76.0335 124.931 76.0335C126.572 76.0335 130.113 73.7626 130.113 73.7626C131.037 73.8515 131.965 73.8939 132.892 73.8897C134.533 73.8897 136.937 70.8565 136.937 70.8565L135.544 63.9062L134.031 64.3033Z" fill="white" stroke="#263238" stroke-linecap="round" stroke-linejoin="round"/>
<path d="M156.263 69.8613C156.263 69.8613 162.705 71.5023 165.484 72.3863C168.263 73.2703 171.169 75.033 170.92 77.3145C170.671 79.596 168.517 81.6128 166.749 81.6128C164.981 81.6128 161.821 80.2206 158.158 78.0715C154.495 75.9223 152.864 74.0326 152.864 74.0326C152.864 74.0326 155.887 71.7564 156.263 69.8613Z" fill="white" stroke="#263238" stroke-linecap="round" stroke-linejoin="round"/>
<path d="M150.075 74.3022C150.075 74.3022 149.439 75.1862 151.086 75.6943C152.732 76.2025 154.749 74.9374 156.136 72.2801C157.523 69.6228 156.39 68.3682 154.998 68.744C153.605 69.1199 154.368 70.385 152.727 71.7772C151.89 72.5085 151.005 73.1839 150.08 73.7993L150.075 74.3022Z" fill="#7D7D7D" stroke="#263238" stroke-linecap="round" stroke-linejoin="round"/>
<path d="M154.998 68.7232C154.998 68.7232 156.136 70.3642 154.114 72.6404C152.092 74.9165 149.567 74.7895 148.683 74.1543C147.96 73.6759 147.2 73.2547 146.412 72.8944C146.412 72.8944 142.241 73.1485 138.953 73.1485C135.666 73.1485 134.279 70.7453 133.776 68.9773C133.274 67.2093 133.395 64.1761 133.903 63.038C134.804 61.4307 136.23 60.1821 137.942 59.502C138.73 59.2431 139.532 59.0328 140.346 58.8721C140.346 58.8721 141.732 57.861 144.766 59.1209C147.5 60.3311 149.953 62.0958 151.97 64.3032C153.103 65.6901 154.998 68.7232 154.998 68.7232Z" fill="#7D7D7D" stroke="#263238" stroke-linecap="round" stroke-linejoin="round"/>
<path d="M150.959 63.9219C150.2 64.4575 149.569 65.1543 149.112 65.9624C148.654 66.7705 148.381 67.6699 148.312 68.596C148.185 71.6291 150.837 71.8832 151.975 70.1152C153.113 68.3472 153.616 67.712 153.108 66.4521C152.6 65.1923 151.462 63.9219 150.959 63.9219Z" fill="white" stroke="#263238" stroke-linecap="round" stroke-linejoin="round"/>
<path d="M142.622 60.1317C144.39 61.5239 146.661 63.5459 147.799 62.2808C148.078 61.9704 148.299 61.6116 148.45 61.2221C147.292 60.398 146.05 59.6988 144.745 59.1365C141.711 57.8767 140.325 58.8877 140.325 58.8877C139.511 59.0484 138.709 59.2587 137.921 59.5176C137.921 59.5176 140.849 58.7448 142.622 60.1317Z" stroke="#263238" stroke-linecap="round" stroke-linejoin="round"/>
<path d="M133.776 63.5459C133.776 63.5459 138.577 61.1427 143.251 64.1758" stroke="#263238" stroke-linecap="round" stroke-linejoin="round"/>
<path d="M133.649 66.325C133.649 66.325 137.821 65.5681 141.23 66.5738" stroke="#263238" stroke-linecap="round" stroke-linejoin="round"/>
<path d="M134.152 69.8613C134.152 69.8613 138.704 69.9884 141.61 69.9884" stroke="#263238" stroke-linecap="round" stroke-linejoin="round"/>
<path d="M149.466 8.79546C149.466 8.79546 144.85 7.50386 138.545 11.5216C132.241 15.5393 130.155 20.5893 128.588 24.8558C127.022 29.1223 127.461 32.563 129.584 34.2993C131.706 36.0355 133.57 37.3166 132.76 39.7568C131.95 42.1971 134.993 40.5561 136.179 40.3762C136.566 40.2879 136.93 40.1212 137.25 39.8863C137.57 39.6513 137.838 39.3532 138.037 39.0105C138.037 39.0105 145.617 42.1389 149.635 42.1865C153.653 42.2342 158.544 39.4339 158.544 39.4339C158.544 39.4339 160.227 41.329 161.26 41.5513C162.292 41.7736 164.436 40.8685 164.436 40.8685C164.069 40.5787 163.815 40.1696 163.718 39.7122C163.622 39.2549 163.688 38.7781 163.906 38.3647C164.626 36.7766 166.823 35.2151 167.014 30.0434C167.204 24.8717 165.515 19.4829 162.996 16.6403C160.476 13.7978 159.746 12.755 159.29 12.2733C158.835 11.7916 156.072 8.62607 149.466 8.79546Z" fill="#263238" stroke="#263238" stroke-miterlimit="10"/>
<path d="M142.31 16.2168C142.043 16.8968 141.865 17.6085 141.78 18.3342" stroke="#6B6B6B" stroke-miterlimit="10"/>
<path d="M150.334 9.31445C148.145 9.69881 146.146 10.8014 144.654 12.4482C144.09 13.0466 143.593 13.7052 143.172 14.412" stroke="#6B6B6B" stroke-miterlimit="10"/>
<path d="M130.939 24.5107C129.139 25.5694 128.573 25.49 128.573 25.49" stroke="#6B6B6B" stroke-miterlimit="10"/>
<path d="M145.332 11.3096C145.332 11.3096 138.821 12.2994 136.132 16.603C133.909 20.1655 133.649 22.0976 132.374 23.4316" stroke="#6B6B6B" stroke-miterlimit="10"/>
<path d="M164.41 26.6865C164.886 27.1788 165.05 27.3853 165.05 27.3853" stroke="#6B6B6B" stroke-miterlimit="10"/>
<path d="M159.889 15.8887C159.889 15.8887 160.043 22.5743 162.25 24.607C162.705 25.0199 163.086 25.3851 163.415 25.6974" stroke="#6B6B6B" stroke-miterlimit="10"/>
<path d="M134.48 29.7895C134.48 29.7895 133.908 25.6976 131.913 26.4122C129.917 27.1269 129.451 31.1022 130.928 32.018C131.736 32.5385 132.62 32.9297 133.548 33.1773L134.173 33.2514C134.173 33.2514 134.967 37.2479 137.82 39.8364C140.673 42.4249 145.485 44.8811 149.466 44.5C153.447 44.1188 157.088 42.7584 159.238 39.8364C161.387 36.9144 161.837 34.9559 161.837 34.9559C161.837 34.9559 164.632 35.4852 165.796 31.928C166.961 28.3708 165.135 27.6933 164.129 28.1273C163.123 28.5614 162.795 29.5566 162.509 30.16C162.223 30.7635 161.556 30.16 161.45 29.186C161.344 28.212 161.604 24.3319 159.91 22.5427C158.216 20.7535 158.269 18.5303 158.417 17.2758C158.468 16.2346 158.379 15.1913 158.152 14.1738C158.152 14.1738 154.415 11.7123 151.324 13.6762C148.233 15.6401 146.883 18.0221 145.104 19.6155C144.174 20.4964 143.086 21.1933 141.896 21.6693L141.801 18.9008C141.801 18.9008 140.822 21.754 138.418 23.2679C136.015 24.7819 135.719 25.4912 135.242 27.6615C134.766 29.8318 134.904 30.6894 134.48 29.7895Z" fill="white" stroke="#263238" stroke-miterlimit="10"/>
<path d="M144.834 28.9688C144.797 29.1408 144.697 29.2928 144.554 29.3949C144.411 29.497 144.235 29.5419 144.06 29.5206C143.886 29.4994 143.726 29.4136 143.611 29.2801C143.497 29.1466 143.436 28.9751 143.442 28.7994C143.475 28.6249 143.575 28.4702 143.72 28.3676C143.865 28.265 144.044 28.2224 144.22 28.2489C144.396 28.2651 144.559 28.3494 144.673 28.4839C144.788 28.6184 144.846 28.7924 144.834 28.9688Z" fill="#263238" stroke="#263238" stroke-miterlimit="10"/>
<path d="M144.829 28.3759C144.829 28.3759 142.474 27.079 140.785 28.053" stroke="#263238" stroke-miterlimit="10"/>
<path d="M150.779 29.434C150.801 29.5739 150.865 29.704 150.962 29.8071C151.059 29.9102 151.185 29.9815 151.323 30.0119C151.462 30.0422 151.606 30.03 151.738 29.977C151.869 29.924 151.981 29.8326 152.06 29.7147C152.139 29.5968 152.18 29.4579 152.178 29.3162C152.177 29.1746 152.132 29.0367 152.051 28.9206C151.97 28.8045 151.855 28.7156 151.723 28.6655C151.59 28.6155 151.446 28.6066 151.308 28.64C151.133 28.6758 150.979 28.7793 150.88 28.928C150.781 29.0767 150.744 29.2586 150.779 29.434Z" fill="#263238" stroke="#263238" stroke-miterlimit="10"/>
<path d="M150.731 28.847C150.731 28.847 152.954 27.3331 154.722 28.1483" stroke="#263238" stroke-miterlimit="10"/>
<path d="M145.761 33.8232C145.761 33.8232 148.048 35.0354 150.16 33.8232" stroke="#263238" stroke-miterlimit="10"/>
<path d="M143.151 35.2412C144.533 36.4213 146.289 37.0739 148.106 37.0833C151.24 37.1416 152.41 35.2412 152.41 35.2412" stroke="#263238" stroke-miterlimit="10"/>
<path d="M145.486 36.7197C145.486 36.7197 146.857 37.7414 147.863 37.8631C148.868 37.9849 150.176 36.8838 150.176 36.8838C150.176 36.8838 146.82 37.5561 145.486 36.7197Z" fill="#263238" stroke="#263238" stroke-miterlimit="10"/>
<path d="M143.617 34.5898L142.638 35.5691" stroke="#263238" stroke-miterlimit="10"/>
<path d="M152.145 34.8193L152.981 35.7033" stroke="#263238" stroke-miterlimit="10"/>
<path d="M145.49 24.7713C144.576 24.4646 143.593 24.4299 142.66 24.6714C141.727 24.9129 140.884 25.4203 140.234 26.1318" stroke="#263238" stroke-miterlimit="10"/>
<path d="M151.245 25.2161C151.245 25.2161 154.357 24.8032 155.702 26.6876" stroke="#263238" stroke-miterlimit="10"/>
<path d="M165.219 29.9487C165.219 29.9487 164.69 28.71 163.658 29.7634C162.626 30.8168 162.938 31.7432 162.938 31.7432C162.938 31.7432 163.764 31.7696 163.346 32.4101C163.186 32.7036 162.966 32.9599 162.7 33.1618C162.7 33.1618 162.986 34.2205 163.97 33.4529C164.394 33.1195 165.235 32.0872 164.748 31.5473C164.261 31.0074 163.314 30.8909 163.494 30.4886C163.674 30.0863 164.219 29.5887 164.732 30.5204C165.246 31.452 165.616 30.6845 165.219 29.9487Z" fill="#263238"/>
<path d="M131.225 28.3644C131.225 28.3644 131.754 27.1257 132.781 28.1632C133.808 29.2007 133.517 30.1377 133.517 30.1377C133.517 30.1377 132.696 30.1747 133.12 30.8099C133.281 31.1008 133.501 31.355 133.766 31.5563C133.766 31.5563 133.49 32.615 132.495 31.858C132.072 31.5298 131.219 30.5029 131.701 29.9577C132.183 29.4125 133.136 29.2907 132.945 28.899C132.755 28.5073 132.215 27.9991 131.712 28.9413C131.209 29.8836 130.833 29.1001 131.225 28.3644Z" fill="#263238"/>
<path opacity="0.2" d="M77.7673 148.939C93.7003 148.939 106.617 145.029 106.617 140.205C106.617 135.381 93.7003 131.471 77.7673 131.471C61.8342 131.471 48.918 135.381 48.918 140.205C48.918 145.029 61.8342 148.939 77.7673 148.939Z" fill="black"/>
<path d="M61.5954 97.6348C61.5954 97.6348 62.7493 105.088 63.1358 108.296C63.5222 111.504 62.6064 114.722 63.5222 118.062C64.4379 121.402 66.3595 131.677 66.3595 132.063C66.3595 132.45 65.7137 135.017 65.7137 136.171C65.7137 137.325 62.2465 138.611 61.4789 140.671C60.7114 142.73 61.606 144.011 64.4327 144.265C67.2594 144.519 68.6674 143.238 70.2131 142.724C71.7588 142.211 74.0667 142.195 74.1938 140.411C74.3208 138.627 73.1668 134.504 73.1668 134.504V121.27C73.1668 118.449 72.7804 107.015 72.7804 107.015V99.948C72.7804 99.948 62.7493 98.6511 61.5954 97.6348Z" fill="white" stroke="#263238" stroke-linecap="round" stroke-linejoin="round"/>
<path d="M62.3686 102.754C64.4436 103.357 69.0965 104.617 72.7702 104.934V99.948C72.7702 99.948 62.7497 98.6511 61.5957 97.6348C61.5957 97.6348 61.9715 100.07 62.3686 102.754Z" fill="#263238"/>
<path d="M73.1561 127.051C69.6571 128.332 66.9998 127.681 65.4224 126.939C65.9517 129.639 66.3487 131.889 66.3487 132.064C66.3487 132.45 65.7029 135.017 65.7029 136.171C65.7029 137.325 62.2357 138.612 61.4682 140.671C60.7006 142.73 61.5952 144.011 64.4219 144.265C67.2486 144.519 68.6567 143.238 70.2024 142.725C71.748 142.211 74.056 142.195 74.183 140.411C74.3101 138.627 73.1561 134.504 73.1561 134.504V127.051Z" fill="white" stroke="#263238" stroke-linecap="round" stroke-linejoin="round"/>
<path d="M74.183 140.412C74.3101 138.612 73.1561 134.504 73.1561 134.504V133.392C72.0974 133.779 70.7158 134.245 70.7158 134.245C70.7158 134.245 70.1865 132.318 68.789 131.804C68.3908 131.651 67.9619 131.595 67.5376 131.64C67.1134 131.685 66.7059 131.83 66.3487 132.064C66.3487 132.45 65.7029 135.017 65.7029 136.171C65.7029 137.325 62.2357 138.612 61.4682 140.671C60.7006 142.73 61.5952 144.011 64.4219 144.265C67.2486 144.519 68.6567 143.238 70.2024 142.725C71.748 142.211 74.056 142.211 74.183 140.412Z" fill="white" stroke="#263238" stroke-linecap="round" stroke-linejoin="round"/>
<path d="M77.9099 108.813C77.9099 108.813 73.1458 109.343 71.3566 109.967C69.5675 110.592 68.7893 112.794 69.4298 114.462C70.0703 116.129 71.4837 118.829 71.4837 118.829C71.4837 118.829 70.4568 121.782 71.3566 123.593C72.2565 125.403 73.5428 126.547 74.9562 126.419C76.3695 126.292 76.883 123.339 76.883 122.566C76.883 121.793 77.5235 117.685 77.9099 116.785C78.2964 115.886 79.7044 114.605 80.0908 114.345C80.4773 114.086 79.5615 113.059 79.5615 113.059C78.9875 112.519 78.5414 111.857 78.2557 111.123C77.97 110.388 77.8518 109.599 77.9099 108.813Z" fill="white" stroke="#263238" stroke-linecap="round" stroke-linejoin="round"/>
<path d="M85.3582 98.5343L86.7715 100.588C86.7715 100.588 82.9179 104.294 81.6316 105.601C80.3453 106.909 76.624 109.836 76.624 109.836C76.624 109.836 75.47 112.144 76.2376 113.303C77.0051 114.462 78.1644 115.23 79.1913 115.23C80.2182 115.23 93.1925 107.136 95.3787 106.231C97.5649 105.326 100.143 102.526 99.4917 99.4236C98.8406 96.3217 96.4056 93.3838 96.4056 93.3838C96.4056 93.3838 87.6714 95.4747 85.3582 98.5343Z" fill="white" stroke="#263238" stroke-linecap="round" stroke-linejoin="round"/>
<path d="M96.4044 93.3945C96.4044 93.3945 87.6702 95.4537 85.3569 98.5345L86.7703 100.588C86.7703 100.588 94.0117 95.7554 96.9072 94.0615C96.6108 93.6433 96.4044 93.3945 96.4044 93.3945Z" fill="#263238"/>
<path d="M80.6099 106.543C79.0219 107.956 76.624 109.841 76.624 109.841C76.624 109.841 75.47 112.149 76.2376 113.308C77.0051 114.467 78.1644 115.235 79.1913 115.235C79.5883 115.235 81.7374 114.044 84.3577 112.53C81.9545 111.487 80.9911 108.65 80.6099 106.543Z" fill="white" stroke="#263238" stroke-linecap="round" stroke-linejoin="round"/>
<path d="M68.6573 48.1837C68.6573 48.1837 63.8932 48.0513 60.823 49.0783C57.7528 50.1052 54.9155 54.4776 54.6561 54.9911C54.3968 55.5045 46.8218 65.9061 47.0812 67.5789C47.3406 69.2516 50.035 73.7722 50.035 73.7722L54.1427 72.2265L53.8886 66.192L60.1825 59.6387C60.1825 59.6387 60.4366 67.6053 60.7118 68.1082C60.9871 68.6111 58.3986 79.7962 58.0122 81.9823C57.6258 84.1685 54.0315 97.651 54.0315 97.651C54.0315 97.651 60.9659 101.637 67.1328 102.415C73.2997 103.193 82.5473 101.775 86.6603 99.3343C90.7733 96.894 97.1943 93.9403 97.1943 93.9403L98.8617 93.8079C98.8617 93.8079 94.8811 87.1276 93.2083 85.3384C91.5356 83.5492 88.0631 76.4189 87.285 74.5133C86.5068 72.6077 85.3581 60.258 85.1041 58.8447C84.85 57.4313 84.3312 53.7048 84.3312 53.7048C84.3312 53.7048 94.3517 44.7059 96.0191 43.1708C97.6866 41.6357 98.4594 37.7768 98.4594 36.8769C98.4594 35.977 98.0783 24.2891 98.0783 24.2891L94.0923 24.6755L90.6251 37.1363C90.6251 37.1363 83.9448 42.9167 82.5314 43.4302C81.1181 43.9436 75.9834 46.1245 75.9834 46.1245C75.9834 46.1245 71.2299 47.9243 68.6573 48.1837Z" fill="#86C240" stroke="#263238" stroke-linecap="round" stroke-linejoin="round"/>
<path d="M76.417 45.9393C79.8471 48.0037 84.3254 53.7048 84.3254 53.7048C84.3254 53.7048 94.3459 44.7059 96.0133 43.1708C97.6808 41.6357 98.4589 37.7768 98.4589 36.8769C98.4589 35.977 98.0778 24.2891 98.0778 24.2891L94.0918 24.6755L90.6246 37.1363C90.6246 37.1363 83.9443 42.9167 82.5309 43.4302C81.3717 43.8484 77.6927 45.3993 76.417 45.9393Z" fill="white" stroke="#263238" stroke-linecap="round" stroke-linejoin="round"/>
<path d="M60.823 49.0781C57.7422 50.1368 54.9155 54.4774 54.6561 54.9909C54.3968 55.5043 46.8218 65.906 47.0812 67.5787C47.3406 69.2514 50.035 73.772 50.035 73.772L54.1427 72.2263L53.8886 66.1918L60.1825 59.6385C60.1825 59.6385 60.1825 60.0461 60.2196 60.6972C61.5958 56.3301 64.3379 50.6767 65.513 48.3105C63.9253 48.385 62.3516 48.6426 60.823 49.0781Z" fill="white" stroke="#263238" stroke-linecap="round" stroke-linejoin="round"/>
<path d="M85.2309 47.2841L84.3311 53.705L87.0307 45.6113" stroke="#263238" stroke-linecap="round" stroke-linejoin="round"/>
<path d="M60.1821 59.6111L58.3823 54.6035" stroke="#263238" stroke-linecap="round" stroke-linejoin="round"/>
<path d="M60.0544 60.1253L57.7412 57.8174" stroke="#263238" stroke-linecap="round" stroke-linejoin="round"/>
<path d="M84.9551 57.9759C84.7963 56.9702 84.6057 55.6468 84.4734 54.7363L75.3581 67.9488L60.2559 61.0673C60.2559 61.7554 60.3141 62.6183 60.3564 63.497L76.3903 72.3L84.9551 57.9759Z" fill="white" stroke="#263238" stroke-linecap="round" stroke-linejoin="round"/>
<path d="M73.7967 85.9463L72.4204 102.568C74.7562 102.469 77.0813 102.195 79.376 101.747L73.7967 85.9463Z" fill="white" stroke="#263238" stroke-linecap="round" stroke-linejoin="round"/>
<path d="M64.2893 86.8457L59.1123 100.079C61.096 100.921 63.151 101.584 65.2527 102.059L64.2893 86.8457Z" fill="white" stroke="#263238" stroke-linecap="round" stroke-linejoin="round"/>
<path d="M57.3603 84.792C56.2117 89.4449 54.0308 97.618 54.0308 97.618C54.0308 97.618 54.5601 97.9197 55.4441 98.375L57.3603 84.792Z" fill="white" stroke="#263238" stroke-linecap="round" stroke-linejoin="round"/>
<path d="M96.8019 94.0876C97.0401 93.9711 97.1777 93.9129 97.1777 93.9129L98.8452 93.7806C98.8452 93.7806 96.1667 89.2864 94.2822 86.6768L96.8019 94.0876Z" fill="white" stroke="#263238" stroke-linecap="round" stroke-linejoin="round"/>
<path d="M83.5581 82.8652L85.7972 99.7566C86.099 99.6137 86.3795 99.4602 86.6442 99.3067C88.6557 98.1104 91.2283 96.7923 93.3245 95.7548L83.5581 82.8652Z" fill="white" stroke="#263238" stroke-linecap="round" stroke-linejoin="round"/>
<path d="M67.889 43.5561L67.2485 50.1094C67.2485 50.1094 68.2755 52.9308 72.3832 53.0632C76.4909 53.1955 78.1636 49.3578 78.1636 48.9502C78.1636 48.5426 76.7503 42.6562 76.7503 42.6562C76.7503 42.6562 70.0647 43.8102 67.889 43.5561Z" fill="white" stroke="#263238" stroke-linecap="round" stroke-linejoin="round"/>
<path d="M76.7507 42.6562C76.7507 42.6562 70.0651 43.8102 67.8895 43.5561L67.4131 48.4314C69.0329 49.0401 71.3567 49.6436 73.1353 49.0243C74.8337 48.36 76.3374 47.2787 77.5077 45.88C77.1424 44.276 76.7507 42.6562 76.7507 42.6562Z" fill="#263238" stroke="#263238" stroke-miterlimit="10"/>
<path d="M64.3688 82.6909C64.3688 82.2516 64.9882 81.7858 64.9511 81.3517C64.914 80.9176 64.2418 80.5683 64.1359 80.1236C64.03 79.679 64.5806 79.1231 64.4588 78.705C64.3371 78.2868 63.596 78.0698 63.4372 77.6463C63.2784 77.2228 63.686 76.5876 63.4901 76.1906C63.2943 75.7936 62.5267 75.7248 62.2938 75.3542C62.0609 74.9837 62.3414 74.2585 62.0821 73.9144C61.8227 73.5703 61.0234 73.6338 60.7481 73.3109C60.4728 72.988 60.5999 72.2258 60.277 71.9346C59.9541 71.6435 59.2183 71.8499 58.8583 71.5853C58.4984 71.3206 58.509 70.5266 58.1384 70.3201C57.7679 70.1137 57.0797 70.4313 56.6827 70.2354C56.2857 70.0396 56.1534 69.2826 55.7405 69.1238C55.3276 68.965 54.7189 69.4308 54.2954 69.3144C53.8719 69.1979 53.5967 68.4727 53.1626 68.388C52.7285 68.3033 52.2151 68.8856 51.7757 68.8433C51.3364 68.8009 50.9393 68.1445 50.4947 68.1445C50.05 68.1445 49.6477 68.8062 49.2137 68.8433C48.7796 68.8803 48.2556 68.3139 47.8321 68.388C47.4086 68.4621 47.1175 69.1926 46.6993 69.3144C46.2811 69.4361 45.6406 68.965 45.2542 69.1238C44.8678 69.2826 44.7248 70.0449 44.3119 70.2354C43.8991 70.426 43.2533 70.0872 42.8562 70.3201C42.4592 70.5531 42.4857 71.3259 42.1363 71.5853C41.787 71.8447 41.0406 71.6382 40.7177 71.9346C40.3948 72.2311 40.5377 72.9933 40.2413 73.3109C39.9449 73.6285 39.1826 73.565 38.9126 73.9144C38.6427 74.2638 38.9126 74.9731 38.7009 75.3542C38.4892 75.7353 37.6951 75.7989 37.4993 76.1906C37.3034 76.5823 37.7163 77.2493 37.5575 77.6463C37.3987 78.0433 36.6523 78.2656 36.5359 78.705C36.4194 79.1443 36.9382 79.6948 36.8588 80.1236C36.7794 80.5524 36.0859 80.8964 36.0436 81.3358C36.0012 81.7752 36.6206 82.2357 36.6206 82.6751C36.6206 83.1144 36.0065 83.5855 36.0436 84.0143C36.0806 84.4431 36.7794 84.7977 36.8588 85.2265C36.9382 85.6553 36.4141 86.2322 36.5359 86.6504C36.6576 87.0686 37.3987 87.2856 37.5575 87.7091C37.7163 88.1326 37.3087 88.7678 37.5046 89.1701C37.7004 89.5724 38.468 89.6306 38.7009 90.0012C38.9338 90.3717 38.6532 91.0969 38.9126 91.4463C39.172 91.7957 39.9713 91.7216 40.2466 92.0445C40.5218 92.3674 40.3948 93.1296 40.7177 93.4207C41.0406 93.7119 41.7764 93.5054 42.1363 93.7701C42.4963 94.0348 42.4857 94.8288 42.8562 95.0405C43.2268 95.2523 43.9149 94.9241 44.3119 95.1199C44.709 95.3158 44.8413 96.0781 45.2542 96.2369C45.6671 96.3957 46.2758 95.9245 46.6993 96.0463C47.1228 96.168 47.398 96.888 47.8321 96.9674C48.2662 97.0468 48.7796 96.4751 49.2137 96.5121C49.6477 96.5492 50.0553 97.2109 50.4947 97.2109C50.934 97.2109 51.3469 96.5545 51.7757 96.5121C52.2045 96.4698 52.7391 97.0415 53.1626 96.9674C53.5861 96.8933 53.8772 96.1628 54.2954 96.0463C54.7136 95.9298 55.3541 96.3904 55.7405 96.2369C56.1269 96.0834 56.2698 95.3158 56.6827 95.1199C57.0956 94.9241 57.7679 95.2682 58.1384 95.0405C58.509 94.8129 58.509 94.0348 58.8583 93.7701C59.2077 93.5054 59.9541 93.7172 60.277 93.4207C60.5999 93.1243 60.457 92.3621 60.7481 92.0445C61.0392 91.7268 61.8068 91.7904 62.0821 91.4463C62.3573 91.1022 62.0821 90.3876 62.2938 90.0012C62.5055 89.6148 63.2943 89.5618 63.4901 89.1701C63.686 88.7784 63.2784 88.1114 63.4372 87.7091C63.596 87.3068 64.3424 87.0951 64.4588 86.6504C64.5753 86.2058 64.0565 85.6606 64.1359 85.2265C64.2153 84.7924 64.9088 84.4537 64.9511 84.0143C64.9934 83.5749 64.3688 83.1356 64.3688 82.6909Z" fill="#86C240" stroke="#263238" stroke-linecap="round" stroke-linejoin="round"/>
<path d="M39.8339 79.6572C39.7439 79.9748 40.1409 80.4142 40.0774 80.7159C40.0139 81.0176 39.4898 81.3088 39.4581 81.6423C39.4263 81.9758 39.9027 82.3251 39.9027 82.6639C39.9027 83.0027 39.4263 83.3573 39.4581 83.6855C39.4898 84.0137 40.0192 84.289 40.0774 84.6119C40.1356 84.9348 39.7439 85.3794 39.8339 85.6971C39.9239 86.0147 40.4956 86.184 40.612 86.4964C40.7285 86.8087 40.4215 87.3116 40.5697 87.608C40.7179 87.9044 41.3108 87.9626 41.4855 88.2432C41.6601 88.5238 41.4484 89.0796 41.6496 89.3442C41.8507 89.6089 42.4436 89.556 42.6659 89.8048C42.8882 90.0536 42.7823 90.6305 43.0311 90.8635C43.2799 91.0964 43.8463 90.927 44.0898 91.1281C44.3333 91.3293 44.3545 91.9221 44.6192 92.0968C44.8838 92.2715 45.4291 92.0068 45.7308 92.1604C46.0325 92.3139 46.1384 92.8908 46.4507 93.0073C46.763 93.1238 47.2288 92.7744 47.5517 92.8644" fill="#86C240"/>
<path d="M39.8339 79.6572C39.7439 79.9748 40.1409 80.4142 40.0774 80.7159C40.0139 81.0176 39.4898 81.3088 39.4581 81.6423C39.4263 81.9758 39.9027 82.3251 39.9027 82.6639C39.9027 83.0027 39.4263 83.3573 39.4581 83.6855C39.4898 84.0137 40.0192 84.289 40.0774 84.6119C40.1356 84.9348 39.7439 85.3794 39.8339 85.6971C39.9239 86.0147 40.4956 86.184 40.612 86.4964C40.7285 86.8087 40.4215 87.3116 40.5697 87.608C40.7179 87.9044 41.3108 87.9626 41.4855 88.2432C41.6601 88.5238 41.4484 89.0796 41.6496 89.3442C41.8507 89.6089 42.4436 89.556 42.6659 89.8048C42.8882 90.0536 42.7823 90.6305 43.0311 90.8635C43.2799 91.0964 43.8463 90.927 44.0898 91.1281C44.3333 91.3293 44.3545 91.9221 44.6192 92.0968C44.8838 92.2715 45.4291 92.0068 45.7308 92.1604C46.0325 92.3139 46.1384 92.8908 46.4507 93.0073C46.763 93.1238 47.2288 92.7744 47.5517 92.8644" stroke="#263238" stroke-linecap="round" stroke-linejoin="round"/>
<path d="M111.38 15.5911C111.38 15.1517 111.994 14.6859 111.957 14.2518C111.92 13.8178 111.221 13.4684 111.142 13.0396C111.062 12.6109 111.586 12.0392 111.465 11.621C111.343 11.2028 110.602 10.9858 110.443 10.5623C110.284 10.1388 110.692 9.5036 110.501 9.10659C110.311 8.70958 109.533 8.64076 109.3 8.27022C109.067 7.89968 109.353 7.17448 109.088 6.83041C108.823 6.48633 108.029 6.54985 107.759 6.22695C107.489 5.90405 107.606 5.14179 107.283 4.85066C106.96 4.55952 106.224 4.76596 105.864 4.50129C105.504 4.23662 105.52 3.4426 105.144 3.23615C104.768 3.02971 104.086 3.34732 103.689 3.15146C103.292 2.9556 103.159 2.19864 102.746 2.03983C102.333 1.88103 101.725 2.34685 101.301 2.2304C100.878 2.11394 100.603 1.38874 100.174 1.30934C99.745 1.22994 99.2262 1.80163 98.7868 1.75928C98.3475 1.71693 97.9452 1.06055 97.5058 1.06055C97.0665 1.06055 96.6536 1.72223 96.2248 1.75928C95.796 1.79634 95.2614 1.22994 94.8379 1.30405C94.4145 1.37815 94.1233 2.10865 93.7051 2.2304C93.287 2.35215 92.6464 1.88103 92.26 2.03983C91.8736 2.19864 91.7307 2.96089 91.3178 3.15146C90.9049 3.34202 90.2326 3.00324 89.8621 3.23615C89.4915 3.46907 89.4915 4.24191 89.1422 4.50129C88.7928 4.76067 88.0464 4.55422 87.7235 4.85066C87.4006 5.14709 87.5436 5.90934 87.2524 6.22695C86.9613 6.54456 86.1937 6.48104 85.9185 6.83041C85.6432 7.17977 85.9185 7.88909 85.7067 8.27022C85.495 8.65135 84.7063 8.71487 84.5104 9.10659C84.3146 9.4983 84.7222 10.1653 84.5633 10.5623C84.4045 10.9593 83.6582 11.1816 83.5417 11.621C83.4253 12.0603 83.944 12.6109 83.8646 13.0396C83.7852 13.4684 83.0918 13.8125 83.0494 14.2518C83.0071 14.6912 83.6317 15.1517 83.6317 15.5911C83.6317 16.0304 83.0124 16.5015 83.0494 16.9303C83.0865 17.3591 83.7852 17.7137 83.8646 18.1425C83.944 18.5713 83.42 19.1483 83.5417 19.5664C83.6635 19.9846 84.4045 20.2017 84.5633 20.6251C84.7222 21.0486 84.3146 21.6838 84.5104 22.0861C84.7063 22.4884 85.4738 22.5467 85.7067 22.9172C85.9396 23.2877 85.6591 24.0129 85.9185 24.3623C86.1779 24.7117 86.9772 24.6376 87.2524 24.9605C87.5277 25.2834 87.4006 26.0192 87.7235 26.3421C88.0464 26.665 88.7822 26.4215 89.1422 26.6861C89.5021 26.9508 89.4915 27.7448 89.8621 27.9566C90.2326 28.1683 90.9208 27.8401 91.3178 28.036C91.7148 28.2318 91.8471 28.9941 92.26 29.1529C92.6729 29.3117 93.2817 28.8406 93.7051 28.9623C94.1286 29.0841 94.4039 29.804 94.8379 29.8834C95.272 29.9628 95.7855 29.3911 96.2248 29.4281C96.6642 29.4652 97.0612 30.1269 97.5058 30.1269C97.9505 30.1269 98.3528 29.4705 98.7868 29.4281C99.2209 29.3858 99.745 29.9575 100.174 29.8834C100.603 29.8093 100.883 29.0788 101.301 28.9623C101.719 28.8459 102.36 29.3064 102.746 29.1529C103.133 28.9994 103.276 28.2318 103.689 28.036C104.101 27.8401 104.747 28.1842 105.144 27.9566C105.541 27.7289 105.515 26.9508 105.864 26.6861C106.214 26.4215 106.96 26.6332 107.283 26.3368C107.606 26.0403 107.463 25.2781 107.759 24.9605C108.056 24.6429 108.818 24.7117 109.088 24.3623C109.358 24.0129 109.088 23.3036 109.3 22.9172C109.511 22.5308 110.305 22.4778 110.501 22.0861C110.697 21.6944 110.284 21.0274 110.443 20.6251C110.602 20.2228 111.348 20.0111 111.465 19.5664C111.581 19.1218 111.062 18.5766 111.142 18.1425C111.221 17.7084 111.915 17.3697 111.957 16.9303C111.999 16.4909 111.38 16.0357 111.38 15.5911Z" fill="#86C240" stroke="#263238" stroke-linecap="round" stroke-linejoin="round"/>
<path d="M88.4275 8.73535C88.221 9.01061 88.4275 9.57701 88.2581 9.86815C88.0887 10.1593 87.4747 10.2122 87.3211 10.5192C87.1676 10.8263 87.4905 11.345 87.3635 11.6626C87.2364 11.9802 86.6542 12.1496 86.5642 12.4778C86.4742 12.806 86.8765 13.256 86.8183 13.5947C86.76 13.9335 86.2095 14.1982 86.1778 14.5423C86.146 14.8863 86.633 15.2463 86.633 15.601C86.633 15.9556 86.146 16.3156 86.1778 16.6596C86.2095 17.0037 86.7547 17.279 86.8183 17.6125C86.8818 17.946 86.4689 18.3959 86.5642 18.7241C86.6595 19.0523 87.2417 19.2217 87.3635 19.5393C87.4852 19.8569 87.1676 20.3756 87.3211 20.6827C87.4747 20.9897 88.0781 21.0479 88.2581 21.3338C88.4381 21.6196 88.221 22.1913 88.4275 22.4666C88.6339 22.7418 89.2374 22.6836 89.4862 22.9377C89.735 23.1918 89.6026 23.7846 89.8567 23.9964C90.1108 24.2081 90.6931 24.0599 90.9683 24.2663C91.2436 24.4728 91.2383 25.0815 91.5294 25.2615C91.8206 25.4415 92.3658 25.1715 92.6728 25.325C92.9798 25.4785 93.091 26.0767 93.4086 26.1984C93.7262 26.3202 94.2132 25.9549 94.5414 26.0502C94.8696 26.1455 95.0707 26.7066 95.4307 26.7701C95.7907 26.8337 96.1718 26.3837 96.5159 26.4155" fill="#86C240"/>
<path d="M88.4275 8.73535C88.221 9.01061 88.4275 9.57701 88.2581 9.86815C88.0887 10.1593 87.4747 10.2122 87.3211 10.5192C87.1676 10.8263 87.4905 11.345 87.3635 11.6626C87.2364 11.9802 86.6542 12.1496 86.5642 12.4778C86.4742 12.806 86.8765 13.256 86.8183 13.5947C86.76 13.9335 86.2095 14.1982 86.1778 14.5423C86.146 14.8863 86.633 15.2463 86.633 15.601C86.633 15.9556 86.146 16.3156 86.1778 16.6596C86.2095 17.0037 86.7547 17.279 86.8183 17.6125C86.8818 17.946 86.4689 18.3959 86.5642 18.7241C86.6595 19.0523 87.2417 19.2217 87.3635 19.5393C87.4852 19.8569 87.1676 20.3756 87.3211 20.6827C87.4747 20.9897 88.0781 21.0479 88.2581 21.3338C88.4381 21.6196 88.221 22.1913 88.4275 22.4666C88.6339 22.7418 89.2374 22.6836 89.4862 22.9377C89.735 23.1918 89.6026 23.7846 89.8567 23.9964C90.1108 24.2081 90.6931 24.0599 90.9683 24.2663C91.2436 24.4728 91.2383 25.0815 91.5294 25.2615C91.8206 25.4415 92.3658 25.1715 92.6728 25.325C92.9798 25.4785 93.091 26.0767 93.4086 26.1984C93.7262 26.3202 94.2132 25.9549 94.5414 26.0502C94.8696 26.1455 95.0707 26.7066 95.4307 26.7701C95.7907 26.8337 96.1718 26.3837 96.5159 26.4155" stroke="#263238" stroke-linecap="round" stroke-linejoin="round"/>
<path d="M58.1283 34.7013C58.1283 34.7013 55.7781 31.1864 54.6082 33.1132C53.4384 35.04 55.7728 38.756 56.8315 39.2907C57.127 39.4421 57.4641 39.4926 57.791 39.4343C58.118 39.3759 58.4168 39.2121 58.6418 38.9678C58.6418 38.9678 61.8179 44.4571 65.6239 45.701C69.7316 47.0456 71.1291 47.702 74.0934 47.2891C76.8566 46.8921 79.4609 44.0495 79.4609 44.0495C79.4609 44.0495 82.2294 42.2815 83.4046 39.6136C84.5797 36.9457 84.5744 35.6594 84.5744 35.6594C84.5744 35.6594 85.6331 36.8292 86.4959 36.0829C87.3588 35.3365 88.6133 31.07 87.4541 29.5772C86.2948 28.0845 84.1509 30.4294 84.1509 30.4294C84.1509 30.4294 82.24 19.8796 80.5249 17.4234C78.8099 14.9673 77.9629 13.1569 76.0467 12.5217C74.1304 11.8865 72.1825 12.1988 72.1825 13.4798C72.1825 14.7608 67.0637 16.5712 63.6494 18.4927C60.2351 20.4142 58.1072 22.7592 57.4667 26.4911C56.8262 30.223 58.1283 34.7013 58.1283 34.7013Z" fill="white" stroke="#263238" stroke-miterlimit="10"/>
<path d="M68.7204 34.0709C68.7278 34.2125 68.6926 34.3531 68.6193 34.4745C68.546 34.596 68.438 34.6926 68.3092 34.752C68.1804 34.8114 68.0368 34.8309 67.8968 34.8078C67.7569 34.7848 67.6271 34.7203 67.5241 34.6228C67.4212 34.5252 67.3498 34.399 67.3193 34.2605C67.2888 34.122 67.3005 33.9775 67.353 33.8458C67.4054 33.714 67.4961 33.6009 67.6134 33.5212C67.7307 33.4415 67.8693 33.3988 68.0111 33.3986C68.1941 33.3944 68.3714 33.4626 68.5043 33.5886C68.6372 33.7145 68.7149 33.8879 68.7204 34.0709Z" fill="#263238" stroke="#263238" stroke-miterlimit="10"/>
<path d="M68.6409 33.4616C68.6409 33.4616 66.1159 32.4347 64.5332 33.6204" stroke="#263238" stroke-miterlimit="10"/>
<path d="M74.7545 33.8106C74.7927 33.9473 74.8711 34.0693 74.9795 34.161C75.0878 34.2527 75.2212 34.3097 75.3623 34.3248C75.5034 34.3399 75.6458 34.3122 75.7711 34.2455C75.8964 34.1788 75.9987 34.076 76.065 33.9505C76.1312 33.8249 76.1582 33.6824 76.1426 33.5414C76.127 33.4003 76.0694 33.2672 75.9773 33.1592C75.8852 33.0512 75.7628 32.9733 75.626 32.9356C75.4891 32.8979 75.3442 32.9022 75.2097 32.9477C75.0355 33.0026 74.89 33.124 74.8047 33.2856C74.7195 33.4471 74.7015 33.6358 74.7545 33.8106Z" fill="#263238" stroke="#263238" stroke-miterlimit="10"/>
<path d="M74.6387 33.2238C74.6387 33.2238 76.6978 31.4346 78.5717 32.0433" stroke="#263238" stroke-miterlimit="10"/>
<path d="M70.2236 38.835C70.2236 38.835 72.6692 39.7825 74.6437 38.3057" stroke="#263238" stroke-miterlimit="10"/>
<path d="M67.7725 40.5702C69.307 41.5931 71.1542 42.0395 72.9865 41.83C76.1626 41.5177 77.0942 39.4639 77.0942 39.4639" stroke="#263238" stroke-miterlimit="10"/>
<path d="M70.2979 41.7511C70.2979 41.7511 71.8012 42.6245 72.8281 42.6245C73.855 42.6245 75.0408 41.3594 75.0408 41.3594C75.0408 41.3594 71.7218 42.4657 70.2979 41.7511Z" fill="#263238" stroke="#263238" stroke-miterlimit="10"/>
<path d="M68.1699 39.8574L67.3018 40.9638" stroke="#263238" stroke-miterlimit="10"/>
<path d="M76.7773 39.0664L77.7249 39.8551" stroke="#263238" stroke-miterlimit="10"/>
<path d="M68.8793 29.7504C67.9241 29.5479 66.9308 29.6267 66.0195 29.9771C65.1082 30.3275 64.318 30.9346 63.7446 31.7249" stroke="#263238" stroke-miterlimit="10"/>
<path d="M74.7236 29.5137C74.7236 29.5137 77.8044 28.725 79.3819 30.4612" stroke="#263238" stroke-miterlimit="10"/>
<path d="M75.3006 13.3736L77.6456 17.3172C77.6456 17.3172 67.191 18.4923 63.3533 21.372C59.5155 24.2516 58.658 29.2645 58.658 31.2919C58.658 33.3193 58.4462 34.7009 58.1286 34.7009C57.811 34.7009 57.2764 33.7427 56.6359 31.2919C55.9954 28.841 54.5185 21.6896 57.594 17.1054C60.6695 12.5213 65.5924 10.8115 69.9648 10.8115C74.3372 10.8115 78.2861 12.1984 80.6311 14.1199C83.2051 16.2679 85.0948 19.1217 86.0674 22.3301C87.0308 25.6385 85.3211 29.3704 85.3211 29.3704L83.9395 30.3285C83.3714 28.1073 82.5472 25.9596 81.4833 23.9287C79.7788 20.7526 78.7095 18.7041 78.7095 18.7041C78.7095 18.7041 77.5397 15.078 77.1215 14.4375C76.7033 13.797 75.0835 12.3043 75.3006 13.3736Z" fill="#263238" stroke="#263238" stroke-miterlimit="10"/>
<path d="M57.3868 30.6985C57.3868 30.6985 56.1535 21.1174 61.3569 18.3754C66.5604 15.6334 75.4587 15.6387 75.4587 15.6387" stroke="#6B6B6B" stroke-miterlimit="10"/>
<path d="M73.9555 13.1713C73.9555 13.1713 65.6024 12.2132 61.4947 15.3628C57.387 18.5124 58.0699 21.9372 58.0699 21.9372" stroke="#6B6B6B" stroke-miterlimit="10"/>
<path d="M79.1592 17.1318C79.1592 17.1318 85.1831 22.3353 85.3155 26.173" stroke="#6B6B6B" stroke-miterlimit="10"/>
<path d="M77.7881 14.543C77.7881 14.543 82.7163 16.1839 84.6325 20.9798" stroke="#6B6B6B" stroke-miterlimit="10"/>
<path d="M57.1122 17.7456C55.8679 16.8733 54.3617 16.4547 52.8457 16.5599C50.0825 16.6393 46.0542 19.0107 46.0542 19.7995C46.0542 20.5882 48.1081 25.8816 49.6114 25.564C51.1147 25.2464 52.6869 21.1387 54.2696 19.9583C54.9997 19.3506 55.8263 18.8693 56.7152 18.5343C56.7152 18.5343 57.1122 18.5343 57.1122 17.7456Z" fill="#263238" stroke="#263238" stroke-miterlimit="10"/>
<path d="M56.1538 17.6933C54.0101 17.4532 51.8556 18.0401 50.1299 19.3342" stroke="#6B6B6B" stroke-miterlimit="10"/>
<path d="M54.7879 18.375C54.7879 18.375 53.1417 18.7879 51.0825 21.9375" stroke="#6B6B6B" stroke-miterlimit="10"/>
<path d="M82.0073 15.6181C82.7204 14.277 83.8739 13.2227 85.2734 12.6326C87.7719 11.4468 92.4354 11.738 92.7901 12.442C93.1447 13.146 93.7164 18.7941 92.2343 19.1911C90.7521 19.5882 87.4702 16.6397 85.5434 16.3009C84.6164 16.0919 83.6612 16.0383 82.7166 16.1421C82.7166 16.1421 82.362 16.3221 82.0073 15.6181Z" fill="#263238" stroke="#263238" stroke-miterlimit="10"/>
<path d="M82.7163 16.1423C82.7163 16.1423 86.2788 13.9984 89.4231 14.8189" stroke="#6B6B6B" stroke-miterlimit="10"/>
<path d="M82.8545 15.2249C82.8545 15.2249 85.046 13.0334 89.1537 13.4463" stroke="#6B6B6B" stroke-miterlimit="10"/>
<path d="M86.8449 30.8567C86.8449 30.8567 86.1515 29.6762 85.2569 30.8567C84.3623 32.0371 84.7699 32.937 84.7699 32.937C84.7699 32.937 85.601 32.8682 85.2569 33.5616C85.1329 33.8751 84.9434 34.1584 84.7011 34.3927C84.7011 34.3927 85.1193 35.4514 86.0192 34.5303C86.4003 34.1492 87.1308 33.0058 86.575 32.5241C86.0192 32.0424 85.0505 32.0371 85.1881 31.6189C85.3257 31.2007 85.8074 30.6238 86.432 31.5025C87.0567 32.3812 87.3319 31.5501 86.8449 30.8567Z" fill="#263238"/>
<path d="M55.2112 34.8274C55.2112 34.8274 55.5977 33.5199 56.7569 34.4409C57.9162 35.362 57.7309 36.3413 57.7309 36.3413C57.7309 36.3413 56.9104 36.4789 57.4133 37.0665C57.6087 37.3416 57.8616 37.571 58.1544 37.7388C58.1544 37.7388 58.0009 38.8504 56.9104 38.194C56.4446 37.9134 55.4653 36.9818 55.8835 36.3783C56.3017 35.7749 57.2439 35.5367 57.011 35.1661C56.7781 34.7956 56.1641 34.3509 55.7723 35.3567C55.3806 36.3625 54.9095 35.6214 55.2112 34.8274Z" fill="#263238"/>
<path d="M38.7912 29.0311C35.0858 22.5096 29.9247 28.8829 27.9449 37.2889C27.9449 37.2889 18.3796 25.3204 14.6742 33.2606C12.7315 37.416 17.7497 43.3181 22.9744 47.9817" stroke="#263238" stroke-miterlimit="10"/>
<path d="M28.1089 52.2178C30.7556 54.2187 32.6718 55.4944 32.6718 55.4944C32.6718 55.4944 42.8247 40.2599 39.7598 31.1816" stroke="#263238" stroke-miterlimit="10"/>
<path d="M23.8325 48.7402C24.6159 49.4231 25.4206 50.0689 26.151 50.6776" stroke="#263238" stroke-miterlimit="10"/>
<path d="M209.537 34.7274C209.818 27.2372 202.068 29.9633 195.97 36.056C195.97 36.056 194.112 20.848 186.791 25.6597C182.959 28.1741 184.145 35.8231 186.124 42.5458" stroke="#263238" stroke-miterlimit="10"/>
<path d="M188.273 48.8447C189.449 51.9255 190.428 54.0323 190.428 54.0323C190.428 54.0323 207.07 46.3992 209.235 37.0615" stroke="#263238" stroke-miterlimit="10"/>
<path d="M186.452 43.6367C186.764 44.6319 187.087 45.5953 187.41 46.5058" stroke="#263238" stroke-miterlimit="10"/>
<path d="M220.426 84.8881C219.796 80.5686 215.662 82.9401 212.803 87.0849C212.803 87.0849 210.157 78.573 206.451 82.1037C204.524 83.9512 206.006 88.2018 207.854 91.8437" stroke="#263238" stroke-miterlimit="10"/>
<path d="M209.749 95.2216C210.749 96.8573 211.533 97.9636 211.533 97.9636C211.533 97.9636 220.251 91.8338 220.5 86.2598" stroke="#263238" stroke-miterlimit="10"/>
<path d="M208.156 92.4316C208.442 92.961 208.727 93.4903 209.008 93.972" stroke="#263238" stroke-miterlimit="10"/>
<path d="M10.8315 90.8866C8.98408 88.2399 7.00963 91.1672 6.48558 94.862C6.48558 94.862 1.89616 90.0979 0.615143 93.6551C-0.0571254 95.5184 2.33022 97.8581 4.76521 99.6632" stroke="#263238" stroke-miterlimit="10"/>
<path d="M7.1416 101.299C8.34851 102.056 9.25898 102.532 9.25898 102.532C9.25898 102.532 13.0332 95.5714 11.3764 91.7812" stroke="#263238" stroke-miterlimit="10"/>
<path d="M5.16113 99.96C5.52638 100.219 5.88634 100.489 6.21982 100.701" stroke="#263238" stroke-miterlimit="10"/>
<path d="M115.059 53.6566C114.72 50.4329 111.571 52.0686 109.332 55.0541C109.332 55.0541 107.606 48.6596 104.769 51.1634C103.281 52.4761 104.239 55.6787 105.515 58.4366" stroke="#263238" stroke-miterlimit="10"/>
<path d="M106.812 60.9942C107.505 62.2435 108.055 63.0851 108.055 63.0851C108.055 63.0851 114.709 58.8027 115.064 54.6738" stroke="#263238" stroke-miterlimit="10"/>
<path d="M105.716 58.876C105.912 59.2836 106.108 59.6753 106.304 60.0458" stroke="#263238" stroke-miterlimit="10"/>
</svg>
