<svg width="470" height="470" viewBox="0 0 470 470" fill="none" xmlns="http://www.w3.org/2000/svg">
    <path d="M412.986 273.335C412.618 272.246 412.036 271.242 411.273 270.382C410.51 269.522 409.582 268.824 408.545 268.329C406.173 267.573 403.64 267.481 401.22 268.064C396.779 268.837 392.903 270.602 388.704 272.101C388.704 272.101 390.492 271.444 397.863 275.031C400.616 276.493 403.675 277.284 406.792 277.338C409.283 277.258 413.067 276.554 412.986 273.335Z" fill="#86C240"/>
    <path d="M413.378 262.516C413.344 261.366 413.078 260.235 412.596 259.19C412.115 258.146 411.427 257.209 410.575 256.437C408.525 255.033 406.133 254.212 403.653 254.06C399.178 253.518 394.967 254.06 390.503 254.326C390.503 254.326 392.406 254.21 398.428 259.77C400.643 261.955 403.343 263.587 406.307 264.535C408.706 265.192 412.57 265.596 413.378 262.516Z" fill="#86C240"/>
    <path d="M421.004 276.82C420.125 276.08 419.404 275.171 418.885 274.146C418.365 273.121 418.058 272.002 417.982 270.856C418.148 268.367 418.998 265.971 420.439 263.935C422.746 260.093 425.86 257.14 428.814 253.795C428.814 253.795 427.533 255.214 428.156 263.393C428.496 266.482 428.101 269.609 427.002 272.517C426.01 274.824 423.946 278.123 421.004 276.82Z" fill="#86C240"/>
    <path d="M431.651 282.751C431.552 281.604 431.685 280.45 432.042 279.356C432.398 278.262 432.972 277.251 433.728 276.383C435.607 274.75 437.896 273.661 440.349 273.234C444.721 272.172 448.978 272.253 453.442 271.965C453.442 271.965 451.527 272.069 446.198 278.298C444.244 280.72 441.752 282.652 438.919 283.939C436.6 284.873 432.816 285.738 431.651 282.751Z" fill="#86C240"/>
    <path d="M430.947 269.056C429.813 268.87 428.728 268.458 427.757 267.843C426.786 267.229 425.949 266.425 425.295 265.48C424.169 263.261 423.67 260.776 423.853 258.294C423.853 253.783 425.006 249.688 425.825 245.293C425.825 245.293 425.456 247.162 430.197 253.864C432.071 256.346 433.332 259.235 433.877 262.296C434.223 264.8 434.143 268.687 430.947 269.056Z" fill="#86C240"/>
    <path d="M441.905 262.227C442.743 263.017 443.731 263.629 444.812 264.026C445.893 264.422 447.043 264.595 448.192 264.534C450.639 264.076 452.914 262.955 454.768 261.293C458.297 258.513 460.87 255.121 463.858 251.799C463.858 251.799 462.589 253.229 454.398 253.564C451.288 253.601 448.23 254.367 445.47 255.802C443.336 257.013 440.314 259.458 441.905 262.227Z" fill="#86C240"/>
    <path d="M438.756 259.551C439.904 259.64 441.058 259.496 442.148 259.127C443.239 258.758 444.243 258.173 445.101 257.405C446.71 255.51 447.774 253.213 448.181 250.761C449.196 246.366 449.069 242.121 449.334 237.656C449.334 237.656 449.254 239.571 443.082 244.958C440.678 246.938 438.774 249.455 437.522 252.306C436.576 254.625 435.757 258.42 438.756 259.551Z" fill="#86C240"/>
    <path d="M425.064 296.891L418.442 280.591L410.806 261.754" stroke="#263238" stroke-width="1.0796" stroke-linecap="round" stroke-linejoin="round"/>
    <path d="M426.598 294.09L433.207 271.422L440.336 257.418" stroke="#263238" stroke-width="1.0796" stroke-linecap="round" stroke-linejoin="round"/>
    <path d="M429.136 285.17L435.758 281.352" stroke="#263238" stroke-width="1.0796" stroke-linecap="round" stroke-linejoin="round"/>
    <path d="M433.208 271.42L429.909 264.037" stroke="#263238" stroke-width="1.0796" stroke-linecap="round" stroke-linejoin="round"/>
    <path d="M437.362 264.074L445.436 260.475" stroke="#263238" stroke-width="1.0796" stroke-linecap="round" stroke-linejoin="round"/>
    <path d="M419.724 283.646L422.515 272.445" stroke="#263238" stroke-width="1.0796" stroke-linecap="round" stroke-linejoin="round"/>
    <path d="M416.009 275.136L409.538 271.676" stroke="#263238" stroke-width="1.0796" stroke-linecap="round" stroke-linejoin="round"/>
    <path d="M431.674 305.036H419.734L417.173 291.539H434.235L431.674 305.036Z" fill="#263238" stroke="#263238" stroke-width="1.0796" stroke-linecap="round" stroke-linejoin="round"/>
    <path d="M456.268 305.15H216.651V309.753H456.268V305.15Z" stroke="#263238" stroke-width="1.0796" stroke-miterlimit="10"/>
    <path d="M452.173 309.846H220.308V432.919H452.173V309.846Z" stroke="#263238" stroke-width="1.0796" stroke-miterlimit="10"/>
    <path d="M449.75 315.129H379.383V341.903H449.75V315.129Z" stroke="#263238" stroke-width="1.0796" stroke-miterlimit="10"/>
    <path d="M421.109 325.719H408.028V329.456H421.109V325.719Z" fill="#263238" stroke="#263238" stroke-width="1.0796" stroke-linecap="round" stroke-linejoin="round"/>
    <path d="M449.75 346.264H379.383V373.038H449.75V346.264Z" stroke="#263238" stroke-width="1.0796" stroke-miterlimit="10"/>
    <path d="M421.109 356.854H408.028V360.591H421.109V356.854Z" fill="#263238" stroke="#263238" stroke-width="1.0796" stroke-linecap="round" stroke-linejoin="round"/>
    <path d="M449.75 377.396H379.383V404.171H449.75V377.396Z" stroke="#263238" stroke-width="1.0796" stroke-miterlimit="10"/>
    <path d="M421.109 387.988H408.028V391.726H421.109V387.988Z" fill="#263238" stroke="#263238" stroke-width="1.0796" stroke-linecap="round" stroke-linejoin="round"/>
    <path d="M373.467 315.129H303.1V341.903H373.467V315.129Z" stroke="#263238" stroke-width="1.0796" stroke-miterlimit="10"/>
    <path d="M344.834 325.719H331.753V329.456H344.834V325.719Z" fill="#263238" stroke="#263238" stroke-width="1.0796" stroke-linecap="round" stroke-linejoin="round"/>
    <path d="M373.467 346.264H303.1V373.038H373.467V346.264Z" stroke="#263238" stroke-width="1.0796" stroke-miterlimit="10"/>
    <path d="M344.834 356.854H331.753V360.591H344.834V356.854Z" fill="#263238" stroke="#263238" stroke-width="1.0796" stroke-linecap="round" stroke-linejoin="round"/>
    <path d="M373.467 377.396H303.1V404.171H373.467V377.396Z" stroke="#263238" stroke-width="1.0796" stroke-miterlimit="10"/>
    <path d="M344.834 387.988H331.753V391.726H344.834V387.988Z" fill="#263238" stroke="#263238" stroke-width="1.0796" stroke-linecap="round" stroke-linejoin="round"/>
    <path d="M297.192 315.129H226.825V341.903H297.192V315.129Z" stroke="#263238" stroke-width="1.0796" stroke-miterlimit="10"/>
    <path d="M268.549 325.719H255.467V329.456H268.549V325.719Z" fill="#263238" stroke="#263238" stroke-width="1.0796" stroke-linecap="round" stroke-linejoin="round"/>
    <path d="M297.192 346.264H226.825V373.038H297.192V346.264Z" stroke="#263238" stroke-width="1.0796" stroke-miterlimit="10"/>
    <path d="M268.549 356.854H255.467V360.591H268.549V356.854Z" fill="#263238" stroke="#263238" stroke-width="1.0796" stroke-linecap="round" stroke-linejoin="round"/>
    <path d="M297.192 377.396H226.825V404.171H297.192V377.396Z" stroke="#263238" stroke-width="1.0796" stroke-miterlimit="10"/>
    <path d="M268.549 387.988H255.467V391.726H268.549V387.988Z" fill="#263238" stroke="#263238" stroke-width="1.0796" stroke-linecap="round" stroke-linejoin="round"/>
    <path d="M253.022 469.926C356.167 469.926 439.783 463.879 439.783 456.418C439.783 448.958 356.167 442.91 253.022 442.91C149.876 442.91 66.2607 448.958 66.2607 456.418C66.2607 463.879 149.876 469.926 253.022 469.926Z" fill="#86C240"/>
    <path opacity="0.5" d="M253.022 469.926C356.167 469.926 439.783 463.879 439.783 456.418C439.783 448.958 356.167 442.91 253.022 442.91C149.876 442.91 66.2607 448.958 66.2607 456.418C66.2607 463.879 149.876 469.926 253.022 469.926Z" fill="white"/>
    <path d="M469.844 432.92H28.4121" stroke="#263238" stroke-width="1.0796" stroke-miterlimit="10"/>
    <path d="M324.452 84.1035H254.984V177.034H324.452V84.1035Z" stroke="#263238" stroke-width="1.0796" stroke-miterlimit="10"/>
    <path d="M311.821 101.002H267.616V160.133H311.821V101.002Z" stroke="#263238" stroke-width="1.0796" stroke-miterlimit="10"/>
    <path d="M428.203 144.309H371.368V220.34H428.203V144.309Z" stroke="#263238" stroke-width="1.0796" stroke-miterlimit="10"/>
    <path d="M417.854 158.127H381.69V206.507H417.854V158.127Z" stroke="#263238" stroke-width="1.0796" stroke-miterlimit="10"/>
    <path d="M132.486 56.0402V296.742M213.224 55.7172H52.0948C51.5548 55.6752 51.0197 55.8459 50.6038 56.1929C50.1878 56.5399 49.924 57.0356 49.8684 57.5744V295.588C49.9211 296.129 50.1838 296.628 50.6001 296.977C51.0163 297.326 51.5529 297.499 52.0948 297.457H213.224C213.764 297.498 214.3 297.326 214.714 296.976C215.128 296.626 215.389 296.128 215.439 295.588V57.5744C215.386 57.0366 215.124 56.5409 214.71 56.1937C214.296 55.8464 213.762 55.6754 213.224 55.7172ZM83.3908 293.673H54.3096V250.668H83.3793L83.3908 293.673ZM83.3908 246.931H54.3096V189.253H83.3793L83.3908 246.931ZM83.3908 185.492H54.3096V121.62H83.3793L83.3908 185.492ZM83.3908 117.882H54.3096V59.4432H83.3793L83.3908 117.882ZM87.8435 59.4432H119.843V117.94H87.8435V59.4432ZM87.8435 121.62H119.843V185.492H87.8435V121.62ZM87.8435 189.23H119.843V246.908H87.8435V189.23ZM87.8435 250.668H119.843V293.673H87.8435V250.668ZM174.764 293.673H145.441V250.668H174.729L174.764 293.673ZM174.764 246.931H145.441V189.253H174.729L174.764 246.931ZM174.764 185.492H145.441V121.62H174.729L174.764 185.492ZM174.764 117.882H145.441V59.4432H174.729L174.764 117.882ZM210.997 293.673H179.217V250.668H210.997V293.673ZM210.997 246.931H179.217V189.253H210.997V246.931ZM210.997 185.492H179.217V121.62H210.997V185.492ZM210.997 117.882H179.217V59.4432H210.997V117.882Z" stroke="#263238" stroke-width="1.0796" stroke-miterlimit="10"/>
    <path d="M279.748 239.48C279.748 239.48 254.22 256.599 251.417 257.522C248.613 258.445 240.516 257.522 238.958 257.522C237.401 257.522 230.883 269.358 230.883 270.915C230.883 272.472 242.084 274.641 245.51 273.084C248.936 271.526 256.412 263.44 256.412 263.44L282.251 256.588C282.251 256.588 283.486 242.584 279.748 239.48Z" fill="white" stroke="#263238" stroke-width="1.0796" stroke-linecap="round" stroke-linejoin="round"/>
    <path d="M200.661 279.44L212.473 289.661C212.473 289.661 232.51 264.282 232.776 263.913C233.041 263.544 236.502 262.321 239.282 262.76C242.062 263.198 248.395 265.92 249.052 266.855C249.71 267.789 251.094 268.078 250.967 268.873C250.763 269.416 250.416 269.892 249.963 270.254C249.511 270.615 248.969 270.848 248.395 270.927C247.334 270.927 239.951 269.773 237.955 270.062C236.423 270.233 234.883 270.322 233.341 270.327C233.341 270.327 226.316 283.743 225.647 285.196C224.978 286.65 215.426 305.51 214.226 306.964C213.027 308.417 203.083 301.519 203.083 301.519L200.661 279.44Z" fill="white" stroke="#263238" stroke-width="1.0796" stroke-linecap="round" stroke-linejoin="round"/>
    <path d="M238.878 266.381C240.153 266.426 241.411 266.696 242.593 267.177C244.461 267.846 247.772 267.315 247.91 268.33C248.049 269.346 247.645 269.657 245.788 269.922C244.11 270.101 242.423 270.19 240.735 270.188C238.821 270.85 236.793 271.121 234.771 270.984C232.245 270.591 232.903 268.999 232.903 268.999" fill="white"/>
    <path d="M238.878 266.381C240.153 266.426 241.411 266.696 242.593 267.177C244.461 267.846 247.772 267.315 247.91 268.33C248.049 269.346 247.645 269.657 245.788 269.922C244.11 270.101 242.423 270.19 240.735 270.188C238.821 270.85 236.793 271.121 234.771 270.984C232.245 270.591 232.903 268.999 232.903 268.999" stroke="#263238" stroke-width="1.0796" stroke-linecap="round" stroke-linejoin="round"/>
    <path d="M249.263 258.466C249.263 258.466 238.673 255.663 236.504 256.597C234.336 257.531 232.144 266.875 232.144 266.875C232.144 266.875 234.324 267.498 235.604 266.252L239.953 261.892C239.953 261.892 244.625 264.072 248.028 264.072" fill="white"/>
    <path d="M249.263 258.466C249.263 258.466 238.673 255.663 236.504 256.597C234.336 257.531 232.144 266.875 232.144 266.875C232.144 266.875 234.324 267.498 235.604 266.252L239.953 261.892C239.953 261.892 244.625 264.072 248.028 264.072" stroke="#263238" stroke-width="1.0796" stroke-linecap="round" stroke-linejoin="round"/>
    <path d="M274.455 193.085C274.455 193.085 275.7 213.007 276.323 222.351C276.946 231.695 277.258 254.731 277.569 256.288C277.881 257.846 271.963 289.603 271.963 292.049C271.92 293.829 271.712 295.602 271.34 297.343C271.34 297.343 281.93 292.672 285.356 292.36C287.869 292.088 290.365 291.672 292.831 291.114C292.831 291.114 299.371 274.607 299.994 258.422C300.617 242.238 289.093 203.052 284.733 198.022C280.372 192.993 277.569 189.947 277.569 189.947L274.455 193.085Z" fill="#787878" stroke="#263238" stroke-width="1.0796" stroke-linecap="round" stroke-linejoin="round"/>
    <path d="M261.385 439.045C261.385 439.045 252.041 445.274 247.058 447.12C242.074 448.966 238.037 449.923 238.037 452.103C238.037 454.283 242.074 455.564 246.112 456.464C250.149 457.363 269.471 457.087 273.509 456.775C277.546 456.464 284.41 460.236 288.505 454.283C292.6 448.331 287.571 445.874 285.39 444.317C283.21 442.759 261.385 439.045 261.385 439.045Z" fill="white" stroke="#263238" stroke-width="1.0796" stroke-linecap="round" stroke-linejoin="round"/>
    <path d="M273.486 456.798C277.535 456.486 284.387 460.258 288.482 454.306L288.551 454.191C283.164 454.606 274.201 454.468 260.058 453.741C249.169 453.176 242.559 451.595 239.041 450.453C238.753 450.632 238.513 450.877 238.34 451.168C238.168 451.46 238.068 451.788 238.048 452.126C238.048 454.306 242.086 455.586 246.123 456.486C250.161 457.386 269.483 457.086 273.486 456.798Z" fill="#787878" stroke="#263238" stroke-width="1.0796" stroke-linecap="round" stroke-linejoin="round"/>
    <path d="M338.904 445.272C338.904 445.272 326.145 454.928 322.096 457.108C318.047 459.288 318.982 461.457 328.014 462.08C337.046 462.703 352.608 457.731 354.165 457.465C355.723 457.2 367.235 454.005 371.284 452.482C375.333 450.959 367.823 441.27 367.823 441.27L338.904 445.272Z" fill="white" stroke="#263238" stroke-width="1.0796" stroke-linecap="round" stroke-linejoin="round"/>
    <path d="M320.227 458.494C318.843 460.143 320.919 461.597 328.014 462.081C337.034 462.704 352.607 457.732 354.165 457.467C355.722 457.202 367.235 454.006 371.284 452.484C372.702 451.93 372.691 450.384 372.103 448.619C364.927 451.007 343.264 458.136 336.008 459.278C330.745 460.012 325.391 459.746 320.227 458.494Z" fill="#787878" stroke="#263238" stroke-width="1.0796" stroke-linecap="round" stroke-linejoin="round"/>
    <path d="M285.668 284.055C285.668 284.055 276.948 309.272 274.456 318.927C271.964 328.582 266.992 353.534 268.238 360.962C269.484 368.391 265.124 420.428 265.124 420.428C265.124 420.428 263.255 433.498 262.009 435.678C261.209 437.094 260.482 438.55 259.829 440.039C259.829 440.039 264.443 445.645 274.767 448.114C280.488 449.558 286.324 450.496 292.209 450.917C292.209 450.917 293.766 430.983 293.766 414.176C293.766 397.369 295.324 353.776 295.324 350.661C295.324 347.547 306.525 306.445 306.525 306.445L315.246 313.92C315.246 313.92 316.491 351.596 318.36 358.136C320.229 364.677 337.348 429.426 337.971 432.541C338.594 435.655 337.036 446.556 337.036 446.556C342.661 448.861 348.717 449.924 354.79 449.671C360.13 449.369 365.386 448.2 370.351 446.21C370.351 446.21 367.236 430.061 364.433 415.699C361.63 401.337 345.446 364.331 344.2 360.328C342.954 356.325 341.085 334.488 341.085 329.816V295.833C341.085 291.472 340.774 285.554 340.774 285.554C340.774 285.554 331.753 289.015 316.18 284.62C307.906 282.203 299.482 280.331 290.963 279.014H288.16L285.668 284.055Z" fill="#263238" stroke="#263238" stroke-width="1.0796" stroke-linecap="round" stroke-linejoin="round"/>
    <path d="M274.456 193.083C274.456 193.083 282.865 223.283 285.668 235.119C288.471 246.954 292.832 252.549 290.963 258.778C289.094 265.008 283.799 288.356 283.799 288.356C283.799 288.356 295.635 293.65 304.967 294.896C314.299 296.142 342.7 289.29 342.7 289.29C342.7 289.29 339.897 261.605 337.094 243.828C334.291 226.052 324.589 202.15 317.426 194.075C310.262 186 286.28 179.748 286.28 179.748L274.456 193.083Z" fill="white" stroke="#263238" stroke-width="1.0796" stroke-linecap="round" stroke-linejoin="round"/>
    <path d="M279.438 195.229C279.438 195.229 286.29 215.462 293.765 236.33C301.24 257.198 308.704 281.157 308.081 285.829C307.458 290.501 307.769 301.402 307.769 301.402C307.769 301.402 318.359 298.287 332.986 292.993C342.202 289.61 351.155 285.55 359.772 280.846L350.428 255.006C350.428 255.006 359.772 250.334 361.641 245.351C362.155 243.837 362.282 242.218 362.01 240.642C361.738 239.066 361.076 237.584 360.083 236.33C360.083 236.33 362.264 234.461 359.149 227.92C356.034 221.38 341.396 205.818 334.544 194.606C327.691 183.393 312.753 175.307 308.704 175.307H292.831L290.028 176.241L279.438 195.229Z" fill="#787878" stroke="#263238" stroke-width="1.0796" stroke-linecap="round" stroke-linejoin="round"/>
    <path d="M350.43 255.042L345.135 248.812" stroke="#263238" stroke-width="1.0796" stroke-linecap="round" stroke-linejoin="round"/>
    <path d="M307.458 180.625C305.79 182.566 304.653 184.906 304.158 187.416C303.663 189.927 303.826 192.523 304.631 194.952C307.435 203.362 312.106 206.788 312.106 206.788" stroke="#263238" stroke-width="1.0796" stroke-linecap="round" stroke-linejoin="round"/>
    <path d="M315.557 209.58L345.446 241.649" stroke="#263238" stroke-width="1.0796" stroke-linecap="round" stroke-linejoin="round"/>
    <path d="M338.592 235.119C338.592 235.119 338.281 241.648 341.396 246.009C344.51 250.369 356.034 253.172 360.083 236.365" stroke="#263238" stroke-width="1.0796" stroke-linecap="round" stroke-linejoin="round"/>
    <path d="M306.525 211.76L322.41 216.743L310.263 220.169" stroke="#263238" stroke-width="1.0796" stroke-linecap="round" stroke-linejoin="round"/>
    <path d="M274.502 187.568L270.165 196.035L271.618 204.918L278.632 188.191L274.502 187.568Z" fill="#787878" stroke="#263238" stroke-width="1.0796" stroke-linecap="round" stroke-linejoin="round"/>
    <path d="M238.579 144.219C238.579 144.219 237.137 153.92 237.333 155.985C237.529 158.05 240.794 159.284 240.436 161.349C240.079 163.414 237.541 170.232 238.994 171.466C240.448 172.7 243.943 172.504 243.943 172.504C243.943 172.504 246.25 180.348 247.046 183.648C247.239 184.562 247.631 185.423 248.194 186.169C248.758 186.914 249.48 187.526 250.308 187.96C251.135 188.395 252.049 188.641 252.983 188.681C253.916 188.721 254.848 188.554 255.71 188.193C259.093 186.841 262.344 185.181 265.422 183.232L276.566 190.673L287.721 172.089L280.073 163.207C280.073 163.207 287.098 147.933 284.41 138.22C281.722 128.508 269.552 120.248 262.527 120.248C255.502 120.248 244.774 125.416 236.514 132.222C228.255 139.028 231.958 143.804 238.579 144.219Z" fill="white" stroke="#263238" stroke-width="1.0796" stroke-linecap="round" stroke-linejoin="round"/>
    <path d="M272.853 175.803C274.087 172.089 270.788 159.284 270.373 154.947C269.958 150.61 272.438 147.726 274.918 149.998C277.398 152.271 275.737 158.073 275.945 161.349C276.152 164.625 280.074 163.207 280.074 163.207C280.074 163.207 287.099 147.933 284.412 138.22C281.724 128.508 269.554 120.248 262.529 120.248C255.503 120.248 244.775 125.416 236.516 132.222C228.256 139.028 231.971 143.758 238.581 144.207C238.581 144.207 243.737 139.04 244.568 141.312C245.398 143.585 245.387 150.54 249.32 151.221C253.254 151.902 258.191 148.741 259.841 149.364C261.49 149.987 264.386 159.688 265.216 161.961C266.047 164.233 265.424 167.325 261.502 168.974C257.58 170.624 253.427 168.974 249.724 170.013C247.684 170.533 245.738 171.37 243.956 172.493C243.956 172.493 246.263 180.337 247.059 183.636C247.252 184.551 247.644 185.412 248.208 186.157C248.771 186.903 249.493 187.515 250.321 187.949C251.148 188.383 252.062 188.629 252.996 188.669C253.93 188.709 254.861 188.543 255.723 188.181C259.106 186.83 262.357 185.169 265.436 183.221C265.436 183.221 271.619 179.518 272.853 175.803Z" fill="#263238" stroke="#263238" stroke-width="1.0796" stroke-linecap="round" stroke-linejoin="round"/>
    <path d="M246.955 160.679C247.382 161.683 247.336 162.652 246.863 162.848C246.39 163.044 245.709 162.398 245.248 161.395C244.786 160.391 244.867 159.433 245.34 159.226C245.813 159.018 246.551 159.676 246.955 160.679Z" fill="#263238"/>
    <path d="M241.879 157.014C241.879 157.014 242.917 154.13 247.646 155.157" stroke="#263238" stroke-width="1.0796" stroke-linecap="round" stroke-linejoin="round"/>
    <path d="M248.109 177.038C250.425 176.316 252.447 174.868 253.877 172.908" stroke="white" stroke-width="1.0796" stroke-linecap="round" stroke-linejoin="round"/>
    <path d="M288.125 166.713L272.229 192.114L280.28 198.516L295.773 170.647L288.125 166.713Z" fill="#787878" stroke="#263238" stroke-width="1.0796" stroke-linecap="round" stroke-linejoin="round"/>
    <path d="M192.84 208.771C192.84 208.771 194.547 216.788 196.301 217.999C198.054 219.211 201.4 219.937 201.4 221.887C201.307 223.224 200.799 224.498 199.946 225.532C199.946 225.532 201.884 234.288 200.673 237.448C199.462 240.609 190.948 242.063 190.948 242.063C190.812 246.122 190.974 250.186 191.433 254.221C192.16 258.593 192.402 259.816 192.402 259.816L174.902 255.675C174.916 251.852 174.669 248.032 174.164 244.243C173.437 240.355 173.922 238.66 171.488 234.761C169.762 231.953 168.99 228.664 169.285 225.382C169.58 222.1 170.927 219.001 173.126 216.546C178.986 209.982 186.969 204.145 192.84 208.771Z" fill="white" stroke="#263238" stroke-width="1.0796" stroke-linecap="round" stroke-linejoin="round"/>
    <path d="M188.953 221.173C188.953 221.173 189.679 217.713 192.84 218.739" stroke="#263238" stroke-width="1.0796" stroke-linecap="round" stroke-linejoin="round"/>
    <path d="M185.551 217.273C185.551 217.273 187.501 213.812 190.904 213.812" stroke="#263238" stroke-width="1.0796" stroke-linecap="round" stroke-linejoin="round"/>
    <path d="M195.759 228.463C193.244 229.155 190.563 228.896 188.226 227.736" stroke="#263238" stroke-width="1.0796" stroke-linecap="round" stroke-linejoin="round"/>
    <path d="M174.119 236.758C174.119 236.758 175.826 235.293 179.471 228.971C180.537 227.274 181.142 225.328 181.227 223.325C181.312 221.323 180.874 219.332 179.956 217.551L185.816 214.609L186.3 210.468L188.25 213.144L195.056 209.741L194.571 207.065C194.087 204.389 191.895 196.372 186.496 194.664C181.098 192.957 172.158 197.341 172.158 197.341L168.259 199.036C168.259 199.036 150.263 201.228 146.86 212.879C143.457 224.53 144.68 230.182 144.922 235.95C145.164 241.718 146.133 259.021 141.265 267.8C136.397 276.578 127.653 271.261 127.653 271.261C127.653 271.261 123.524 277.132 131.322 283.177C139.12 289.221 146.399 291.448 161.476 287.076C176.553 282.704 177.037 259.39 176.795 252.538C176.395 247.206 175.499 241.923 174.119 236.758Z" fill="#263238" stroke="#263238" stroke-width="1.0796" stroke-linecap="round" stroke-linejoin="round"/>
    <path d="M143.686 270.211C143.686 270.211 149.858 265.596 152.165 254.799C154.472 244.002 147.158 225.522 150.238 215.89C153.318 206.257 169.11 202.785 169.11 202.785C169.11 202.785 175.663 193.153 184.522 195.864" stroke="#787878" stroke-width="1.0796" stroke-linecap="round" stroke-linejoin="round"/>
    <path d="M171.811 207.041C171.811 207.041 157.553 218.577 159.122 227.067C160.69 235.557 165.282 249.803 158.741 259.436" stroke="#787878" stroke-width="1.0796" stroke-linecap="round" stroke-linejoin="round"/>
    <path d="M174.891 212.428C174.891 212.428 175.283 218.196 171.43 227.424C167.577 236.652 161.048 249.342 169.123 252.802" stroke="#787878" stroke-width="1.0796" stroke-linecap="round" stroke-linejoin="round"/>
    <path d="M172.964 205.497C172.964 205.497 177.209 197.019 187.96 202.417" stroke="#787878" stroke-width="1.0796" stroke-linecap="round" stroke-linejoin="round"/>
    <path d="M180.671 225.14C180.671 225.14 174.13 238.625 177.983 243.597C181.836 248.568 185.689 245.523 185.689 245.523C185.689 245.523 187.777 250.53 181.317 253.102C174.857 255.674 166.032 254.775 166.424 244.762C166.817 234.749 174.892 224.344 174.892 224.344" fill="#263238"/>
    <path d="M180.671 225.14C180.671 225.14 174.13 238.625 177.983 243.597C181.836 248.568 185.689 245.523 185.689 245.523C185.689 245.523 187.777 250.53 181.317 253.102C174.857 255.674 166.032 254.775 166.424 244.762C166.817 234.749 174.892 224.344 174.892 224.344" stroke="#263238" stroke-width="1.0796" stroke-linecap="round" stroke-linejoin="round"/>
    <path d="M154.97 366.773L156.978 377.721C156.978 377.721 148.707 387.687 145.788 393.524C142.87 399.361 130.953 421.971 127.793 427.566C124.632 433.161 119.037 436.321 119.037 438.271C119.037 440.22 125.601 445.561 128.035 447.499C130.469 449.437 137.033 452.114 140.436 452.114C143.839 452.114 145.304 451.387 143.839 450.418C142.374 449.449 138.002 442.343 137.033 439.713C136.064 437.083 134.241 433.357 134.241 433.357C134.241 433.357 157.22 405.914 163.299 398.623C168.294 392.728 172.466 386.181 175.7 379.163C177.649 374.548 177.396 367.973 177.396 367.973L154.97 366.773Z" fill="white" stroke="#263238" stroke-width="1.0796" stroke-linecap="round" stroke-linejoin="round"/>
    <path d="M169.262 370.719C169.262 370.719 169.504 380.698 169.504 386.292C169.504 391.887 164.394 403.307 166.586 414.497C168.777 425.686 172.423 434.684 172.665 437.845C172.907 441.006 172.423 450.972 172.665 451.941C172.869 452.561 173.259 453.103 173.78 453.495C174.302 453.887 174.931 454.109 175.583 454.133C177.037 454.133 183.658 453.891 185.55 453.891C187.442 453.891 192.598 456.325 196.982 455.344C201.365 454.364 202.092 451.941 200.627 451.699C199.162 451.457 187.938 446.104 184.823 442.217C181.709 438.329 180.44 429.528 181.42 424.464C182.401 419.399 182.874 403.065 185.55 395.036C188.226 387.008 187.742 374.861 187.742 371.7V368.539L169.262 370.719Z" fill="white" stroke="#263238" stroke-width="1.0796" stroke-linecap="round" stroke-linejoin="round"/>
    <path d="M188.953 254.73C188.953 254.73 179.229 251.327 171.65 254.003C164.071 256.679 159.987 266.161 158.038 267.846C156.088 269.53 137.608 284.63 135.417 285.841C133.225 287.052 100.164 308.462 100.164 308.462C100.164 308.462 86.0559 305.544 83.3796 306.997C80.7033 308.451 76.3314 313.319 77.5426 314.299C78.7538 315.28 84.1063 312.35 84.1063 312.35L92.3774 313.077C92.3774 313.077 83.3796 316.237 84.1063 317.691C84.8331 319.144 88.9744 317.206 91.4084 316.226C93.8424 315.245 97.2454 316.226 101.133 314.046C103.149 312.942 105.098 311.721 106.97 310.389C106.97 310.389 143.445 295.554 149.767 292.636C153.129 291.214 156.244 289.267 158.995 286.868L145.153 326.504C145.153 326.504 135.417 347.903 131.045 353.255C126.673 358.608 124.723 360.788 124.723 360.788C124.723 360.788 136.639 371.251 159.007 373.673C181.374 376.096 197.432 371.977 203.269 371.251C207.229 370.824 211.224 370.824 215.185 371.251C215.185 371.251 209.59 340.358 209.348 331.361C209.106 322.363 205.461 293.674 205.218 290.755C204.976 287.837 202.784 273.244 199.139 264.973C195.494 256.702 188.953 254.73 188.953 254.73Z" fill="#86C240" stroke="#263238" stroke-width="1.0796" stroke-linecap="round" stroke-linejoin="round"/>
    <path d="M146.882 326.953C146.882 326.953 170.472 335.224 206.948 330.598" stroke="#263238" stroke-width="1.0796" stroke-linecap="round" stroke-linejoin="round"/>
    <path d="M151.75 329.145C151.75 329.145 146.156 343.483 143.237 351.27" stroke="#263238" stroke-width="1.0796" stroke-linecap="round" stroke-linejoin="round"/>
    <path d="M161.717 331.082C161.717 331.082 155.88 352.481 153.943 358.075" stroke="#263238" stroke-width="1.0796" stroke-linecap="round" stroke-linejoin="round"/>
    <path d="M175.099 336.678L169.747 368.297" stroke="#263238" stroke-width="1.0796" stroke-linecap="round" stroke-linejoin="round"/>
    <path d="M188.953 333.275L189.437 361.238" stroke="#263238" stroke-width="1.0796" stroke-linecap="round" stroke-linejoin="round"/>
    <path d="M200.627 331.568L204.757 366.106" stroke="#263238" stroke-width="1.0796" stroke-linecap="round" stroke-linejoin="round"/>
    <path d="M171.406 282.127C171.406 282.127 183.23 285.865 193.197 285.865" stroke="#263238" stroke-width="1.0796" stroke-linecap="round" stroke-linejoin="round"/>
    <path d="M167.669 285.207C167.669 285.207 177.624 297.043 186.345 300.78" stroke="#263238" stroke-width="1.0796" stroke-linecap="round" stroke-linejoin="round"/>
    <path d="M187.5 275.159C187.5 275.159 189.196 267.857 187.258 261.535C186.13 258.221 184.067 255.305 181.317 253.137C178.082 252.729 174.796 253.024 171.685 254.003C164.152 256.679 160.023 266.161 158.073 267.845C156.123 269.529 137.644 284.63 135.452 285.841C133.26 287.052 100.199 308.462 100.199 308.462C100.199 308.462 86.091 305.544 83.4148 306.997C80.7385 308.451 76.3665 313.319 77.5778 314.299C78.789 315.28 84.1415 312.35 84.1415 312.35L92.4125 313.076C92.4125 313.076 83.4148 316.237 84.1415 317.69C84.8682 319.144 89.0095 317.206 91.4435 316.225C93.8775 315.245 97.2805 316.225 101.168 314.045C103.184 312.942 105.133 311.721 107.005 310.388C107.005 310.388 143.481 295.554 149.802 292.635C153.164 291.214 156.279 289.267 159.03 286.867L172.723 277.512L187.5 275.159Z" fill="white" stroke="#263238" stroke-width="1.0796" stroke-linecap="round" stroke-linejoin="round"/>
    <path d="M201.505 270.627C200.478 268.573 200.709 268.435 199.198 264.94C197.556 260.995 194.646 257.711 190.927 255.607C191.506 256.563 191.993 257.571 192.38 258.618C194.33 263.728 193.845 272.968 193.845 272.968L201.505 270.627Z" fill="white" stroke="#263238" stroke-width="1.0796" stroke-linecap="round" stroke-linejoin="round"/>
    <path d="M172.734 277.478L182.39 270.533" stroke="#263238" stroke-width="1.0796" stroke-linecap="round" stroke-linejoin="round"/>
    </svg>
    